<mxfile host="app.diagrams.net" agent="Mozilla/5.0 (Macintosh; Intel Mac OS X 10_15_7) AppleWebKit/537.36 (KHTML, like Gecko) Chrome/138.0.0.0 Safari/537.36" version="28.0.7">
  <diagram name="Страница — 1" id="NCmVvwRc1Nbtke05w0Ft">
    <mxGraphModel dx="1584" dy="878" grid="1" gridSize="10" guides="0" tooltips="1" connect="0" arrows="1" fold="1" page="1" pageScale="1" pageWidth="1169" pageHeight="827" math="0" shadow="0">
      <root>
        <mxCell id="0" />
        <mxCell id="1" parent="0" />
        <mxCell id="xtmQm8H3WPaShv8IGNw_-29" value="Private subnet" style="points=[[0,0],[0.25,0],[0.5,0],[0.75,0],[1,0],[1,0.25],[1,0.5],[1,0.75],[1,1],[0.75,1],[0.5,1],[0.25,1],[0,1],[0,0.75],[0,0.5],[0,0.25]];outlineConnect=0;gradientColor=none;html=1;whiteSpace=wrap;fontSize=12;fontStyle=0;container=1;pointerEvents=0;collapsible=0;recursiveResize=0;shape=mxgraph.aws4.group;grIcon=mxgraph.aws4.group_security_group;grStroke=0;strokeColor=#00A4A6;fillColor=#E6F6F7;verticalAlign=top;align=left;spacingLeft=30;fontColor=#147EBA;dashed=0;fontFamily=Verdana;" vertex="1" parent="1">
          <mxGeometry x="317" y="439" width="590" height="460" as="geometry" />
        </mxCell>
        <mxCell id="xtmQm8H3WPaShv8IGNw_-28" value="Public subnet" style="points=[[0,0],[0.25,0],[0.5,0],[0.75,0],[1,0],[1,0.25],[1,0.5],[1,0.75],[1,1],[0.75,1],[0.5,1],[0.25,1],[0,1],[0,0.75],[0,0.5],[0,0.25]];outlineConnect=0;gradientColor=none;html=1;whiteSpace=wrap;fontSize=12;fontStyle=0;container=1;pointerEvents=0;collapsible=0;recursiveResize=0;shape=mxgraph.aws4.group;grIcon=mxgraph.aws4.group_security_group;grStroke=0;strokeColor=#7AA116;fillColor=#F2F6E8;verticalAlign=top;align=left;spacingLeft=30;fontColor=#248814;dashed=0;movable=1;resizable=1;rotatable=1;deletable=1;editable=1;locked=0;connectable=1;fontFamily=Verdana;" vertex="1" parent="1">
          <mxGeometry x="315.5" y="335" width="593" height="92" as="geometry" />
        </mxCell>
        <mxCell id="xtmQm8H3WPaShv8IGNw_-22" value="NLB" style="sketch=0;outlineConnect=0;fontColor=#808080;gradientColor=none;fillColor=#8C4FFF;strokeColor=none;dashed=0;verticalLabelPosition=bottom;verticalAlign=top;align=center;html=1;fontSize=8;fontStyle=0;aspect=fixed;pointerEvents=1;shape=mxgraph.aws4.network_load_balancer;fontFamily=Verdana;" vertex="1" parent="xtmQm8H3WPaShv8IGNw_-28">
          <mxGeometry x="301.5" y="16" width="44" height="44" as="geometry" />
        </mxCell>
        <mxCell id="xtmQm8H3WPaShv8IGNw_-21" value="ALB" style="sketch=0;outlineConnect=0;fontColor=#808080;gradientColor=none;fillColor=#8C4FFF;strokeColor=none;dashed=0;verticalLabelPosition=bottom;verticalAlign=top;align=center;html=1;fontSize=8;fontStyle=0;aspect=fixed;pointerEvents=1;shape=mxgraph.aws4.application_load_balancer;fontFamily=Verdana;" vertex="1" parent="xtmQm8H3WPaShv8IGNw_-28">
          <mxGeometry x="231.5" y="16" width="44" height="44" as="geometry" />
        </mxCell>
        <mxCell id="xtmQm8H3WPaShv8IGNw_-23" value="NAT GATEWAY" style="sketch=0;outlineConnect=0;fontColor=#808080;gradientColor=none;fillColor=#8C4FFF;strokeColor=none;dashed=0;verticalLabelPosition=bottom;verticalAlign=top;align=center;html=1;fontSize=8;fontStyle=0;aspect=fixed;pointerEvents=1;shape=mxgraph.aws4.nat_gateway;fontFamily=Verdana;" vertex="1" parent="xtmQm8H3WPaShv8IGNw_-28">
          <mxGeometry x="571.5" y="16" width="40" height="40" as="geometry" />
        </mxCell>
        <mxCell id="xtmQm8H3WPaShv8IGNw_-25" value="AWS Account" style="points=[[0,0],[0.25,0],[0.5,0],[0.75,0],[1,0],[1,0.25],[1,0.5],[1,0.75],[1,1],[0.75,1],[0.5,1],[0.25,1],[0,1],[0,0.75],[0,0.5],[0,0.25]];outlineConnect=0;gradientColor=none;html=1;whiteSpace=wrap;fontSize=12;fontStyle=0;container=1;pointerEvents=0;collapsible=0;recursiveResize=0;shape=mxgraph.aws4.group;grIcon=mxgraph.aws4.group_account;strokeColor=#CD2264;fillColor=none;verticalAlign=top;align=left;spacingLeft=30;fontColor=#CD2264;dashed=0;" vertex="1" parent="1">
          <mxGeometry x="187" y="209" width="780" height="740" as="geometry" />
        </mxCell>
        <mxCell id="xtmQm8H3WPaShv8IGNw_-26" value="VPC" style="points=[[0,0],[0.25,0],[0.5,0],[0.75,0],[1,0],[1,0.25],[1,0.5],[1,0.75],[1,1],[0.75,1],[0.5,1],[0.25,1],[0,1],[0,0.75],[0,0.5],[0,0.25]];outlineConnect=0;gradientColor=none;html=1;whiteSpace=wrap;fontSize=12;fontStyle=0;container=1;pointerEvents=0;collapsible=0;recursiveResize=0;shape=mxgraph.aws4.group;grIcon=mxgraph.aws4.group_vpc2;strokeColor=#8C4FFF;fillColor=none;verticalAlign=top;align=left;spacingLeft=30;fontColor=#AAB7B8;dashed=0;fontFamily=Verdana;" vertex="1" parent="1">
          <mxGeometry x="207" y="309" width="730" height="610" as="geometry" />
        </mxCell>
        <mxCell id="xtmQm8H3WPaShv8IGNw_-27" value="AWS Cloud" style="points=[[0,0],[0.25,0],[0.5,0],[0.75,0],[1,0],[1,0.25],[1,0.5],[1,0.75],[1,1],[0.75,1],[0.5,1],[0.25,1],[0,1],[0,0.75],[0,0.5],[0,0.25]];outlineConnect=0;gradientColor=none;html=1;whiteSpace=wrap;fontSize=12;fontStyle=0;container=1;pointerEvents=0;collapsible=0;recursiveResize=0;shape=mxgraph.aws4.group;grIcon=mxgraph.aws4.group_aws_cloud_alt;strokeColor=#232F3E;fillColor=none;verticalAlign=top;align=left;spacingLeft=30;fontColor=#232F3E;dashed=0;fontFamily=Verdana;" vertex="1" parent="1">
          <mxGeometry x="147" y="179" width="850" height="790" as="geometry" />
        </mxCell>
        <mxCell id="xtmQm8H3WPaShv8IGNw_-20" value="ROUTE53" style="sketch=0;points=[[0,0,0],[0.25,0,0],[0.5,0,0],[0.75,0,0],[1,0,0],[0,1,0],[0.25,1,0],[0.5,1,0],[0.75,1,0],[1,1,0],[0,0.25,0],[0,0.5,0],[0,0.75,0],[1,0.25,0],[1,0.5,0],[1,0.75,0]];outlineConnect=0;fontColor=#808080;fillColor=#8C4FFF;strokeColor=#ffffff;dashed=0;verticalLabelPosition=bottom;verticalAlign=top;align=center;html=1;fontSize=8;fontStyle=0;aspect=fixed;shape=mxgraph.aws4.resourceIcon;resIcon=mxgraph.aws4.route_53;fontFamily=Verdana;" vertex="1" parent="xtmQm8H3WPaShv8IGNw_-27">
          <mxGeometry x="424.7" y="50" width="40" height="40" as="geometry" />
        </mxCell>
        <mxCell id="xtmQm8H3WPaShv8IGNw_-18" value="IAM" style="sketch=0;points=[[0,0,0],[0.25,0,0],[0.5,0,0],[0.75,0,0],[1,0,0],[0,1,0],[0.25,1,0],[0.5,1,0],[0.75,1,0],[1,1,0],[0,0.25,0],[0,0.5,0],[0,0.75,0],[1,0.25,0],[1,0.5,0],[1,0.75,0]];outlineConnect=0;fontColor=#808080;fillColor=#DD344C;strokeColor=#ffffff;dashed=0;verticalLabelPosition=bottom;verticalAlign=top;align=center;html=1;fontSize=8;fontStyle=0;aspect=fixed;shape=mxgraph.aws4.resourceIcon;resIcon=mxgraph.aws4.identity_and_access_management;fontFamily=Verdana;" vertex="1" parent="xtmQm8H3WPaShv8IGNw_-27">
          <mxGeometry x="510" y="50" width="40" height="40" as="geometry" />
        </mxCell>
        <mxCell id="xtmQm8H3WPaShv8IGNw_-157" value="ACM" style="sketch=0;points=[[0,0,0],[0.25,0,0],[0.5,0,0],[0.75,0,0],[1,0,0],[0,1,0],[0.25,1,0],[0.5,1,0],[0.75,1,0],[1,1,0],[0,0.25,0],[0,0.5,0],[0,0.75,0],[1,0.25,0],[1,0.5,0],[1,0.75,0]];outlineConnect=0;fontColor=#808080;fillColor=#DD344C;strokeColor=#ffffff;dashed=0;verticalLabelPosition=bottom;verticalAlign=top;align=center;html=1;fontSize=8;fontStyle=0;aspect=fixed;shape=mxgraph.aws4.resourceIcon;resIcon=mxgraph.aws4.certificate_manager_3;fontFamily=Verdana;" vertex="1" parent="xtmQm8H3WPaShv8IGNw_-27">
          <mxGeometry x="340" y="50" width="40" height="40" as="geometry" />
        </mxCell>
        <mxCell id="xtmQm8H3WPaShv8IGNw_-24" value="INTERNET GATEWAY" style="sketch=0;outlineConnect=0;fontColor=#808080;gradientColor=none;fillColor=#8C4FFF;strokeColor=none;dashed=0;verticalLabelPosition=bottom;verticalAlign=top;align=center;html=1;fontSize=8;fontStyle=0;aspect=fixed;pointerEvents=1;shape=mxgraph.aws4.internet_gateway;fontFamily=Verdana;" vertex="1" parent="xtmQm8H3WPaShv8IGNw_-27">
          <mxGeometry x="690" y="100" width="40" height="40" as="geometry" />
        </mxCell>
        <mxCell id="xtmQm8H3WPaShv8IGNw_-19" value="S3&amp;nbsp;" style="sketch=0;points=[[0,0,0],[0.25,0,0],[0.5,0,0],[0.75,0,0],[1,0,0],[0,1,0],[0.25,1,0],[0.5,1,0],[0.75,1,0],[1,1,0],[0,0.25,0],[0,0.5,0],[0,0.75,0],[1,0.25,0],[1,0.5,0],[1,0.75,0]];outlineConnect=0;fontColor=#808080;fillColor=#7AA116;strokeColor=#ffffff;dashed=0;verticalLabelPosition=bottom;verticalAlign=top;align=center;html=1;fontSize=8;fontStyle=0;aspect=fixed;shape=mxgraph.aws4.resourceIcon;resIcon=mxgraph.aws4.s3;fontFamily=Verdana;" vertex="1" parent="xtmQm8H3WPaShv8IGNw_-27">
          <mxGeometry x="110" y="260" width="40" height="40" as="geometry" />
        </mxCell>
        <mxCell id="xtmQm8H3WPaShv8IGNw_-16" value="KMS" style="sketch=0;points=[[0,0,0],[0.25,0,0],[0.5,0,0],[0.75,0,0],[1,0,0],[0,1,0],[0.25,1,0],[0.5,1,0],[0.75,1,0],[1,1,0],[0,0.25,0],[0,0.5,0],[0,0.75,0],[1,0.25,0],[1,0.5,0],[1,0.75,0]];outlineConnect=0;fontColor=#808080;fillColor=#DD344C;strokeColor=#ffffff;dashed=0;verticalLabelPosition=bottom;verticalAlign=top;align=center;html=1;fontSize=8;fontStyle=0;aspect=fixed;shape=mxgraph.aws4.resourceIcon;resIcon=mxgraph.aws4.key_management_service;fontFamily=Verdana;" vertex="1" parent="xtmQm8H3WPaShv8IGNw_-27">
          <mxGeometry x="110" y="330" width="40" height="40" as="geometry" />
        </mxCell>
        <mxCell id="xtmQm8H3WPaShv8IGNw_-10" value="ECR" style="sketch=0;points=[[0,0,0],[0.25,0,0],[0.5,0,0],[0.75,0,0],[1,0,0],[0,1,0],[0.25,1,0],[0.5,1,0],[0.75,1,0],[1,1,0],[0,0.25,0],[0,0.5,0],[0,0.75,0],[1,0.25,0],[1,0.5,0],[1,0.75,0]];outlineConnect=0;fontColor=#808080;fillColor=#ED7100;strokeColor=#ffffff;dashed=0;verticalLabelPosition=bottom;verticalAlign=top;align=center;html=1;fontSize=8;fontStyle=0;aspect=fixed;shape=mxgraph.aws4.resourceIcon;resIcon=mxgraph.aws4.ecr;fontFamily=Verdana;" vertex="1" parent="xtmQm8H3WPaShv8IGNw_-27">
          <mxGeometry x="110" y="410" width="40" height="40" as="geometry" />
        </mxCell>
        <mxCell id="xtmQm8H3WPaShv8IGNw_-31" value="CLOUDWATCH" style="sketch=0;points=[[0,0,0],[0.25,0,0],[0.5,0,0],[0.75,0,0],[1,0,0],[0,1,0],[0.25,1,0],[0.5,1,0],[0.75,1,0],[1,1,0],[0,0.25,0],[0,0.5,0],[0,0.75,0],[1,0.25,0],[1,0.5,0],[1,0.75,0]];points=[[0,0,0],[0.25,0,0],[0.5,0,0],[0.75,0,0],[1,0,0],[0,1,0],[0.25,1,0],[0.5,1,0],[0.75,1,0],[1,1,0],[0,0.25,0],[0,0.5,0],[0,0.75,0],[1,0.25,0],[1,0.5,0],[1,0.75,0]];outlineConnect=0;fontColor=#808080;fillColor=#E7157B;strokeColor=#ffffff;dashed=0;verticalLabelPosition=bottom;verticalAlign=top;align=center;html=1;fontSize=8;fontStyle=0;aspect=fixed;shape=mxgraph.aws4.resourceIcon;resIcon=mxgraph.aws4.cloudwatch_2;fontFamily=Verdana;" vertex="1" parent="xtmQm8H3WPaShv8IGNw_-27">
          <mxGeometry x="110" y="480" width="40" height="40" as="geometry" />
        </mxCell>
        <mxCell id="xtmQm8H3WPaShv8IGNw_-38" value="RDS POSTGRES" style="sketch=0;points=[[0,0,0],[0.25,0,0],[0.5,0,0],[0.75,0,0],[1,0,0],[0,1,0],[0.25,1,0],[0.5,1,0],[0.75,1,0],[1,1,0],[0,0.25,0],[0,0.5,0],[0,0.75,0],[1,0.25,0],[1,0.5,0],[1,0.75,0]];outlineConnect=0;fontColor=#808080;fillColor=#C925D1;strokeColor=#ffffff;dashed=0;verticalLabelPosition=bottom;verticalAlign=top;align=center;html=1;fontSize=8;fontStyle=0;aspect=fixed;shape=mxgraph.aws4.resourceIcon;resIcon=mxgraph.aws4.rds;fontFamily=Verdana;" vertex="1" parent="xtmQm8H3WPaShv8IGNw_-27">
          <mxGeometry x="110" y="550" width="40" height="40" as="geometry" />
        </mxCell>
        <mxCell id="xtmQm8H3WPaShv8IGNw_-17" value="BEDROCK" style="sketch=0;points=[[0,0,0],[0.25,0,0],[0.5,0,0],[0.75,0,0],[1,0,0],[0,1,0],[0.25,1,0],[0.5,1,0],[0.75,1,0],[1,1,0],[0,0.25,0],[0,0.5,0],[0,0.75,0],[1,0.25,0],[1,0.5,0],[1,0.75,0]];outlineConnect=0;fontColor=#808080;fillColor=#01A88D;strokeColor=#ffffff;dashed=0;verticalLabelPosition=bottom;verticalAlign=top;align=center;html=1;fontSize=8;fontStyle=0;aspect=fixed;shape=mxgraph.aws4.resourceIcon;resIcon=mxgraph.aws4.bedrock;fontFamily=Verdana;" vertex="1" parent="xtmQm8H3WPaShv8IGNw_-27">
          <mxGeometry x="110" y="620" width="40" height="40" as="geometry" />
        </mxCell>
        <mxCell id="xtmQm8H3WPaShv8IGNw_-203" value="CLAUDE " style="shape=image;verticalLabelPosition=bottom;labelBackgroundColor=default;verticalAlign=top;aspect=fixed;imageAspect=0;image=data:image/webp,UklGRrAWAABXRUJQVlA4WAoAAAAwAAAAGwIAGwIAQUxQSLoEAAANoAJt25xWeyJRzDCVgFscBMexXQ3IxHZRQbYyH5IvspWN6mITefaltcU11EFdQZ7pDAqZf2EJWTp933/5ImICkLqlll6vFXN4b59PR0/BYII3a/7ksIH3+1yxVtdbJQDD26vZG8MSRZBh4/Akj6l03wiGWwA9FoWFV8vPOmmDLguuAUdkl+iDPG2Jnswi/RFE2hdoBhkjbVDqo+6IDLnbBrXa8n4nI8YVUOz23XM1A4IGqLYyHuop5xmg3EbgmylmXYJ6Da/rplUICr60tFT62AYRh586qVN6AR23P5Yn6eK1QMovAzNNQlCz4WmpYXgg6ND00+E7aNrLH6RBCKre/64lLwRhh1rCqiOQdlgbJ8nog7hHPT85px9A3t7DRVJkDgR+PhfJOAeN21tnSZCg8tMtEb/THJnBnl/EzfgAQj9/8ONV7YPUvd44ViMQ+6gWpxDkHmrxCUHwoRaX7yD57wfxMEDz+3k/Fh7RwTPjEILsQ21zHgjfMzdValGeMZhs6AWk/1LezEcQ/8fORtrU1/60iRDkH2rRWWCAlhvZJQe47EblgQV6ZkQGDzD8aAIwwUCPpMEFGsMoxmCD42oEFT5QeV7vDozwbmetbU6wfb+OBCuUYg2bF9jOajqYoR6s9MgNHpsrsUbBD4Rcoc8P+r0VWKPkCFIssTmC7SxhjQZPMPwFLk9wrQUFnlB4XcAaLa5guQAEVxASQJErFKdgjnm+kJ/hhC+cXOGQLxzeosEXGkP8J2WJM5RanKGlcwa9zhnqNc5QK3KGYo4z5KD8r/yv/K/8r/yv/K/8r/yv/K/8r/yv/K/8r/yv/K/8r/yv/K/8r/yv/K/8r/yv/K/8r/yv/K/8r/yv/K/8r/yv/K/8r/yv/K/8r/yv/K/8r/yv/K/8r/yv/K/8r/yv/P+flPMcY5hPi4xhOqoxhtFTnTE8BTpjCAYtxjCYlBjDBP9NOWywhSFwe8gWboGrE7ZwBczybGEG7jgtMoXp36RgCvJvrsUU3L8xx9cCS3hdZLkswVrkGyzBX8QcHZshOMuEZAhiGXPs9dlBbxUp2IFchTk2H5lBc7VAZwbBanBsVuBgTSFZgVgH99uM4B5r79wxgp318FxhA8+IsDpmA9UoMGwwgSEi1QMmoEcD32ABPiI2PRZgRoXuJQPoInLXYgBudNBC8tOwyU9t4vuEjXY+El9nMyi/kF4ZG54MDMLzsXHTIzxzc9BCstMQR9MjOhOx9PP7JPdjFg8cfCe5A8RVCwlOQ3y1kNw0xLk2IrYaYj3ueaRmIub+wzmhnSH2F3ObzBwkUGydEtnF7yTgbMsmMec3kinm5wR2hsRePHjkZSLBfm9EXDUkelwLSUtD0rWQsDQkX/u+T1Q/DpCGB3mPpMwZ0tE3Q4LSkJ6aZxCTbyJNzcELKZWRspPyxzYZfeogfTufQiLSkM6adUlAXRdp7XY9g3h8E2lu+kGDcIY60l4fjitE81xFFlaf77YJ5n4HWblzL21icQSyVDj6I6E0A2Rt0ITok0hPIptlD9ImDkcgy4UDwy0QxavlI/t96xWWKBLDVLp4O7pyivzJYYMEhrdXM7w9Z1e3QwClll6vFXPvbvPp6CkYTJC2VlA4INARAADQjACdASocAhwCPm02m0ikI6MhI5MYYIANiWlu6dCZA0yQ1XhH06xf8Ki3P/V/unhfZf+h/Vebd9v1Zze/G/2b9+eqX1Cf5P0h///6//Q9/3/QB5pfqC3t+ndfHf6j/0b+q/rX5I/rP6X2HEBf7N+gvcJ2G/efUI+qbqf9m736kfsT+L9A38g8XLwRftX/A9gD+Zech9Regz6k4DAgSJdFK5aEnu7GPatEnkvJeS8l5LyWk/Bvc+x4gCmfSF+IstpvyZGXTyXkvJeS8l5LyXyHkpj8QCtjZkwMWUcVWUUzZkGZnLOWcs5ZyzlnLOWcsIMMiaoWhJgDcs5ZyzlnLOWcs5Zyzlmuv+QAIL7Yqk5cS4lxLiXEuJcS4lxLiM1wlPBA6B0DoHQOgdA6B0DoHLgbPsk0YYwxhjDGGMMYYwxhjDGGMMYYwxhjDGGMMYYwxhjDGGMMYYwxhjDGGMMYYwxhjDGGLoWAfteI1Hf/qxOdcrYRWlV9nXmGihiZ5No5HjB0DoHQOgdA6Byw/A6mFHdGtjWve8bZCxOFk+Grx48aWSaMMYYwxhjDCz0w2Awan1ktl+1mL3ZlCkYRSztI+xcS4lxLiXEuIso+maRvsXj2sjBHIlxZsViL44b7E2ptTam1Nqa+cP1/2oeLKqE9ZGhMDFOKXmFrA/ZWBGYgownm1STRhjDGGMMXQ7haJvjMNSub0mQqG/rnGsidrapRhPOYALl6/NnHyXkvJeS8lv+NXwdkzHBpkrLHn2mwG5tDmsBXkTl9gSM0OnGPjEnkvJeS8lvqdC1yTz4Qy2KDhCT+91l5SC/Zizmv36RaBjoBBvTlnLOWcs5GQes0VP77hSFaYABwXaM6udR7w4pa2MJ0I7RkL5G76SaMMYYwwx4fr6inDSpFfhMOrF/6opeqRBjdDyAN5JDRkL46LsC37aX9tZJowxhi6HcLRXxcS4lxF5UF59QCrKMhRxFzES9NrJNGGMMLa7A+t5kDGGMMLDaAUQuiOWauJZj6h+wWwcLOWcs5Zrgq1+wYeeIKc0fsheVJwGoYC6/lYrs+8WEGJnYX3/80hgbcwjEaBGBam1NqbSxsCzkLiZTwcL0kSxr6u9Q9sUzA/fQJ3kQVUxRe25Qdm7N2bEAFzAjbQOhRVha6aMJuLeQfq1U2TeMoLMUXtuUF5kOV0LSk8l5Lfs8ppz1GVzTodeUnXjYXRa8pPJD7ncHXf6tRXsg9vgu65jq9ILQLc0CxGpvXEOMMYYwxnpMCdkmjEBqTRhjDGGMMYYwxhjDGGMMYYwxhjDGGMMYYwxhjDGGMMYYwxhjC/stmjDGGMMYYwxhjDGGMMXcxCVayTRhjDGGMMYYwxhjDF3IIWKN6IcJgCqIuJcS4lxLiXEuJcS4IpkyNGOGapMBOgZTSEzVWNRA6B0DoHQOgdA6By4lqjksxbhOkftbdFL3D0WMMYYwxhjDGGMMYYaxcXBfjHL6vQfcMMB/9PY91ZlS/EuJcS4lxLiXEaJ6n9//gQIRgAP768RDwUy3yJzbFOQ+Yspo7cfNEP6PaP1pRmeVib8/ngA54lDiiMQGAAch04I884ekA3aWzKJ54/2jJe1d8Z7GxVcq11XEEFsMQq6aWnRaqbGl7gBYaF+ijREkeZrFJARJqbO9lUs5oqNpIHB67p1TJ8SYHMKZfDl1dBSczAQOzbNqbO//6wT/+iZ//+r5nDLGgAgUlQcshLyA7p+/w8YvIuigDBoWiG02ASKHQT1WyWHlN+o6KYV+VEfYAJRF64u8CvQaoBcoOrjqqBeEPzGui9i99t/FUtSbvvROokAAAAEyMCzubu38NysxK4rim8R9JlIZxEBi5wmVwau6ZSe/vJiov1dxgekzWTurSfFIf+D31j79Cd3upzYnMMwAAIIoH6q8Wtxp8Y753zM8JIFxqSIC91mfCDnnb8FimVmHEcqfPhgzkiRM37fPigKOFAAJoocC934rV8uI4ygTNvNngylpKe4jP/80iJ/gRKrqkqGMs4hytGYWWjuj/mZ2gAD86jhABrRxN8fvsEAlS9hDAiwGKUdCohOwXcQACvlfVnFZ4oAAAAAAAABZXzcXL0gJ76akvzILQNSzf5x8WhgKmReg+VJurI9Ia1f97rh03pclaJGc/qejYdHuqp4sykhbBZDOh3foWI9gSrb5AD2OmCy0JZRG5flWHli4Fgt5WwwSB7TEqLxAJauCoVHGynk4Y2fGPSXthYb73w0AgYSDn+2Ev+/GbnKPEvPjkLz2E0+fgxYtaLg/Bi3jaaf4w7zDCYv+oALhR3OFJuxCGzRjwVheUO0PMnbtfK5WaoqCAX3uUPPBEQWwer5ihKepzncHQzc5lMSE6d+jGZtYPj+AWHW1ugcshI7eyU7RhdPLLsQlgrQsroQmW3X3wiEZZhBTkYcH3V80eBLsTteZ2YUPXLUkfHBhOy/HZDSADGKbbhDFZylV729zLLv+6RIPg9eM6cPde5cUabrWw+FoAkxbWCs+N+PhNOPMlBgu2iR/BUFWxF4kzvgd6sGSo2G0omTq7hwyGKACUWkI6XUVMmrfccq7KopuBSaAvUaOmQbAqRt67VeGZZ5foBV3k8pf0Fqm+tPttSbkuXfAAQZxdAlMXGhiz4aYRWF8IddMFR7xtxWvp+pQZc8fz+Cpvg2cRBtk1btY70L+s+kUeVFbdCq1th1w4jrRnHdJI13gMN3TkbPs9Qa6U3HQtwat/mBqTILWxXyCNczw6gXQwsuuFzZ2Sz/l5bwUzwMgmOFQqtuJZ5qZRpubGTzg2hWvhI8r1vqFnNvHlH45uNJNaXHLNGVLegldnVzmxnuCXv0yuJ4w965iAo1Xn24y0/jeMUXfmVCetVCdTH6qBwWvq218Q8G+npbR2LgbvMzlMJRKKYLIwmWDX+LiY7tWzBeFGYdV6GdEpPwTK8gxRBQ3q3myWlQixVM+7b/GnjDrwKooBb7gd7nvyBW+t63VoZQEXimyegoj2JH4n/DEN4MBneg547ZAubYuChuIbDL6vqRPwGTOhVsJvK1Q3eYJwRLpTZHh3Ply16ch1enqv9IymNvMqrNH46UU/hGLR+3umhuxmzk3YtiXkAW46qq628gvIOQ23w3C1Y3oNkZbdCSs/BEg6Be+pRe7fDT8b6BKehlLDt8AOEsHg91Ldv68aqZrdpHf5O88FVOm63GOoNqN7AUJO/6cYQ6mpQtAcSxyZo6F4NMFW/9e4MTUefzTZm/m5uLNiTiuwB91E3XlPOnvEfOzTi642mn6ZoP0UBB7G5OznLNwfsLTHc+nuD+F9Kk/fySndfkr7tlqFBbA5DH4+Kc/6SUSMUcP7lxMjjQCeCXrHEZHKrUrOGP8xb2EQBV+xjBu4MUPFxdjzVZQ1FOs/NGkdXoaxflbS80v/R2ZE8T6TSjJwSN2i1NSTemd8TNLaJgpXgDG9Yc+t0em43X3ob4X2Xfs8xeWlf+GAPXDuVJ+e4oVipXJaEWQbviujqDCt8bkXGh1hC9yAqfS5FjC/YZBpNBz9ynkO5moBhzKMG/lZb7p+jyNFuhaLASqdPDTin4RbMBJu+ScU1+ZskDUlOzDPQnvypfWiMotGGY1wuNDCPREr7K/DT0JMZoZwdMNiQf4l3/WpkFs52Luw8YUnh1JCFud3A2MTbuulzYWxn6/lc5OO5mU5x9MPCUJ23sS8kvfOxs1IcY/SAUbhKIjCMSxAwvpUnC1zfRke3pGs5FlCaU9Im2wzNzoXxdkixdzBSgKb184AapL2Sj2ynIaJZPncj71p4Lj41Edfn5+fQMiQXSup0mUw3HRkplXSd4ljfvvdTj9mtBWE2jGTbw+uosxbJpLZfn+LXtV8jDj/3mqg66A9m4qs0Rr4cvmDdG148g5szbKMyzy+X+b60Zd1jcJnKEbB3ba+ILOS1oJdXGHBQ7F2DgTyo1h7P4Uj1HhPzcSQFXI83lwuQRa8toziWMV2A9Cb4oX51weh8LmxTv0gcF3HRKUI2ifbI+GXWTw2vnxJk/XoWCZ47d/92hiT27apdB2TB2lcHSzMhqF64mib3+K2YrngSwv0N/253wzzBXb6GK+X3fEJ94zWqT4WIGX+jcHC2/kJ7QudcstD8cfWTKWnZ7anSaVOLL0IYCL1XXDKjjeCfljF7Ra0O8I06KSD8WRrEnRx5PkKweBbcQvIJt/69avrS4RA00twbTThDHQ9MBbvcfQO04fosp7ytTYa+Mvg41tBMcwrReg3JHNJe+CU7MLBhzVzAdwNLFLZFioAZCNg8trxjOrL7yRIb/y6y8g6MR0ZE/gJuMKGONpenMt8Co6+k5PTRD+gDNnHvj/CddYpA19ldRivg9nO9W1loWR4NMuDW4+oxxj4sfUWHsZaeqG2h4OGvUDCtqgHtxtng/ETDy5ag7cRQzyxNiBX5BIhKAWfYkLFp59IguOU3qp/XuKrs1tZ8ELh+PBMNhn4qcmjiU9sd1CZ1Liqjd4AtFGix8oD5aak1XMfv7DWEnVifa5W54wOWS872ghT/fol0vaOamYGEkU7MLFjF+aogEJ9zdvoR76xOqEfzqXkYAIAAcnWlGVPfmyjGNpo0OZ7UgR9DPeCQcUhcixZO566yBLpvjiL8PK4ZWvtmsBgrARPIZLtwC/6eWUCYabL8Lk9uFQhnrL6vPvJnx/PHu8nIAZqtpFLtXv8MxVJOcX6MrXZU91nyRhC13JBnYHAzqNaZiTjygY1xah8H3j0yOVfKTAzpKFL+rrGOZe7i4jj3NYHR39/jTwIyRiLI+HbJlEeDGFJzN/U1a99h/j14UiaoczBfwJ5m0darESaxvUr0rMwYRn8zFfOfjYIDZENxYy+1MyUCwiirfSx2Q4epHCDQxjxGt7zzflYFJpqmaMHJ0OdyM7oYmy5NH7hH9oAOmXSUMTbY8PkIZ4ft1ZqTHFBgcpNqlZMFidQ85gM0J+2zWeVub659R2PxUBi9uj749vhKbm0Etz0dnx4xbKw+UXAGRpQGdJQwb145aJclPcjsojel+yBJSmal5R+rJyOXGWFFMqZb5fGNGaoJv8AsNFbLx6nV/eJVJS070z4h3tuyF2iaz07Db6QqnrNH40cxmnQsnggJghrGJQP/HtPrf1LeCJ1aGOrf2xJzQfxaNQtcWaockuU8qP8ZdKpgpUuUEkNWWvIE8hU3zKGT7ctx2mGCUPxljnoE0StAGvj17STPEERmgfzPqeycVxWMoq3/OmmuWo9R4YOxNizUXtxZ6oAdXPgL/V+piR8OzjC4mBN/3FzfVvcjDOJb9s3EqE3oEDex3IBSG6ou5G2sTsRNpaZ8MWQ1lDnhx300g73E9OBRXs6c33mrQ5E7qrqq97RH8m9YZFIIr243M9v8P8s13+OCzGZYMS6KTi3wk33HrB4uUT/QnjyehoQfg1oC9Db6JQ+49dGcUrPJ4h5rnfKFWODP5eiMvTQxRBQsV4VdtMJZIargtBodIxVnNuSf3IqjdNR/p3d/QQDp3g7VQM2pr6eA53t0qNTXXuaTyli1AbbVZIaJ4JtiVmyPMljIxX8+IOrQt/VDFhaAAAAAAAAAAPxMY4zasogABRwPJpjlGdLV8c/EwEd8eRckYGwaNI7t5Z/KCNH3YIRIIUc3tY401no8k8wAogFuprwcJog3K4qIASM1dv6PLdMWW9aQ/ZkQO1bIEom3isDBtoxqT/33LtX7gAJDs/JskNzxcl/9MaoEn6YT+eauS8ZF9i/qh314SJACLa4UqZW/odiCPJzNFqVFsj3OAKLVZPt4lB5QKRYNlRxzVhKn4lxN5HEv4NnS9HRbkOtDOwA2hut/bh5Eg19UHpfJEM6cBIny+FUoNDdjYFiAB9j1W/EjY1lgrhYSZWEpjojjOgGgvAjrCneShi4/v9fN//rdn/62A//61qVPwUyZ5Z33ubVxjIUuFUnQAZiIB3bGKR/e1JXQ/yw/UHrxZ0HtI1kvFAtu/y0iQkEKcIhShT3nZ2AU/NE4pDiDgAu0FNxV6tKB7MK2hblgoApGnh7ooAA/rQv7SD7ITqMlj06GJ6AbO/+mMaJT8ayVmWtz6Rj3QdY+v/2j63EshIQAAA=;fontSize=8;fontFamily=Verdana;fontColor=#808080;" vertex="1" parent="xtmQm8H3WPaShv8IGNw_-27">
          <mxGeometry x="113" y="681" width="39" height="39" as="geometry" />
        </mxCell>
        <mxCell id="xtmQm8H3WPaShv8IGNw_-158" value="" style="edgeStyle=orthogonalEdgeStyle;rounded=0;orthogonalLoop=1;jettySize=auto;html=1;entryX=0.25;entryY=0;entryDx=0;entryDy=0;entryPerimeter=0;strokeColor=#9FA8B4;endArrow=blockThin;endFill=1;curved=1;" edge="1" parent="1" source="xtmQm8H3WPaShv8IGNw_-3" target="xtmQm8H3WPaShv8IGNw_-20">
          <mxGeometry relative="1" as="geometry" />
        </mxCell>
        <mxCell id="xtmQm8H3WPaShv8IGNw_-3" value="" style="outlineConnect=0;dashed=0;verticalLabelPosition=bottom;verticalAlign=top;align=center;html=1;shape=mxgraph.aws3.internet_3;fillColor=#D2D3D3;gradientColor=none;" vertex="1" parent="1">
          <mxGeometry x="551.95" y="99" width="79.5" height="54" as="geometry" />
        </mxCell>
        <mxCell id="xtmQm8H3WPaShv8IGNw_-153" value="" style="group;fontSize=6;strokeWidth=0.5;labelBackgroundColor=default;" vertex="1" connectable="0" parent="1">
          <mxGeometry x="337" y="469" width="550" height="400" as="geometry" />
        </mxCell>
        <mxCell id="xtmQm8H3WPaShv8IGNw_-11" value="" style="rounded=0;whiteSpace=wrap;html=1;strokeColor=light-dark(#ed7100, #ededed);strokeWidth=0.5;fillColor=none;fontSize=6;" vertex="1" parent="xtmQm8H3WPaShv8IGNw_-153">
          <mxGeometry width="550" height="400.00000000000006" as="geometry" />
        </mxCell>
        <mxCell id="xtmQm8H3WPaShv8IGNw_-116" value="" style="rounded=1;whiteSpace=wrap;html=1;strokeColor=light-dark(#9FA8B4,#EDEDED);strokeWidth=0.5;fillColor=none;dashed=1;fontSize=6;" vertex="1" parent="xtmQm8H3WPaShv8IGNw_-153">
          <mxGeometry x="225.94094827586204" y="22.677165354330715" width="78.84439655172412" height="81.88976377952757" as="geometry" />
        </mxCell>
        <mxCell id="xtmQm8H3WPaShv8IGNw_-114" value="" style="rounded=1;whiteSpace=wrap;html=1;strokeColor=light-dark(#9FA8B4,#EDEDED);strokeWidth=0.5;fillColor=none;dashed=1;fontSize=6;" vertex="1" parent="xtmQm8H3WPaShv8IGNw_-153">
          <mxGeometry x="298.40107758620684" y="113.38582677165354" width="75.86206896551724" height="81.88976377952757" as="geometry" />
        </mxCell>
        <mxCell id="xtmQm8H3WPaShv8IGNw_-113" value="" style="rounded=1;whiteSpace=wrap;html=1;strokeColor=light-dark(#9FA8B4,#EDEDED);strokeWidth=0.5;fillColor=none;dashed=1;fontSize=6;" vertex="1" parent="xtmQm8H3WPaShv8IGNw_-153">
          <mxGeometry x="212.025" y="113.38582677165354" width="73.49137931034483" height="81.88976377952757" as="geometry" />
        </mxCell>
        <mxCell id="xtmQm8H3WPaShv8IGNw_-117" value="" style="rounded=0;whiteSpace=wrap;html=1;strokeColor=light-dark(#ed7100, #ededed);strokeWidth=0.5;fillColor=none;dashed=1;dashPattern=8 8;fontSize=6;" vertex="1" parent="xtmQm8H3WPaShv8IGNw_-153">
          <mxGeometry x="116.16379310344823" y="9.448818897637798" width="424.35344827586204" height="377.9527559055118" as="geometry" />
        </mxCell>
        <mxCell id="xtmQm8H3WPaShv8IGNw_-112" value="" style="rounded=1;whiteSpace=wrap;html=1;strokeColor=light-dark(#9FA8B4,#EDEDED);strokeWidth=0.5;fillColor=none;dashed=1;fontSize=6;" vertex="1" parent="xtmQm8H3WPaShv8IGNw_-153">
          <mxGeometry x="130.38793103448276" y="286.6141732283465" width="73.49137931034483" height="88.18897637795278" as="geometry" />
        </mxCell>
        <mxCell id="xtmQm8H3WPaShv8IGNw_-111" value="" style="rounded=1;whiteSpace=wrap;html=1;strokeColor=light-dark(#9FA8B4,#EDEDED);strokeWidth=0.5;fillColor=none;dashed=1;fontSize=6;" vertex="1" parent="xtmQm8H3WPaShv8IGNw_-153">
          <mxGeometry x="130.38793103448276" y="113.38582677165354" width="73.49137931034483" height="166.9291338582677" as="geometry" />
        </mxCell>
        <mxCell id="xtmQm8H3WPaShv8IGNw_-110" value="" style="rounded=1;whiteSpace=wrap;html=1;strokeColor=light-dark(#9FA8B4,#EDEDED);strokeWidth=0.5;fillColor=none;dashed=1;fontSize=6;" vertex="1" parent="xtmQm8H3WPaShv8IGNw_-153">
          <mxGeometry x="289.2241379310345" y="207.8740157480315" width="192.02586206896552" height="166.9291338582677" as="geometry" />
        </mxCell>
        <mxCell id="xtmQm8H3WPaShv8IGNw_-1" value="" style="rounded=0;whiteSpace=wrap;html=1;strokeColor=light-dark(#ed7100, #ededed);strokeWidth=0.5;fillColor=none;fontSize=6;" vertex="1" parent="xtmQm8H3WPaShv8IGNw_-153">
          <mxGeometry x="37.93103448275862" y="9.448818897637798" width="78.23275862068962" height="377.9527559055118" as="geometry" />
        </mxCell>
        <mxCell id="xtmQm8H3WPaShv8IGNw_-6" value="&lt;font style=&quot;font-size: 8px; color: rgb(128, 128, 128);&quot;&gt;EKS&lt;/font&gt;" style="sketch=0;points=[[0,0,0],[0.25,0,0],[0.5,0,0],[0.75,0,0],[1,0,0],[0,1,0],[0.25,1,0],[0.5,1,0],[0.75,1,0],[1,1,0],[0,0.25,0],[0,0.5,0],[0,0.75,0],[1,0.25,0],[1,0.5,0],[1,0.75,0]];outlineConnect=0;fontColor=#232F3E;fillColor=#ED7100;strokeColor=#ffffff;dashed=0;verticalLabelPosition=bottom;verticalAlign=top;align=center;html=1;fontSize=6;fontStyle=0;aspect=fixed;shape=mxgraph.aws4.resourceIcon;resIcon=mxgraph.aws4.eks;strokeWidth=0.5;fontFamily=Verdana;" vertex="1" parent="xtmQm8H3WPaShv8IGNw_-153">
          <mxGeometry width="29.41810344827586" height="29.41810344827586" as="geometry" />
        </mxCell>
        <mxCell id="xtmQm8H3WPaShv8IGNw_-7" value="" style="sketch=0;points=[[0,0,0],[0.25,0,0],[0.5,0,0],[0.75,0,0],[1,0,0],[0,1,0],[0.25,1,0],[0.5,1,0],[0.75,1,0],[1,1,0],[0,0.25,0],[0,0.5,0],[0,0.75,0],[1,0.25,0],[1,0.5,0],[1,0.75,0]];outlineConnect=0;fontColor=#232F3E;fillColor=#ED7100;strokeColor=#ffffff;dashed=0;verticalLabelPosition=bottom;verticalAlign=top;align=center;html=1;fontSize=6;fontStyle=0;aspect=fixed;shape=mxgraph.aws4.resourceIcon;resIcon=mxgraph.aws4.auto_scaling2;strokeWidth=0.5;" vertex="1" parent="xtmQm8H3WPaShv8IGNw_-153">
          <mxGeometry x="37.93103448275862" y="9.448818897637798" width="27.155172413793096" height="27.155172413793096" as="geometry" />
        </mxCell>
        <mxCell id="xtmQm8H3WPaShv8IGNw_-8" value="" style="sketch=0;points=[[0,0,0],[0.25,0,0],[0.5,0,0],[0.75,0,0],[1,0,0],[0,1,0],[0.25,1,0],[0.5,1,0],[0.75,1,0],[1,1,0],[0,0.25,0],[0,0.5,0],[0,0.75,0],[1,0.25,0],[1,0.5,0],[1,0.75,0]];outlineConnect=0;fontColor=#232F3E;fillColor=#ED7100;strokeColor=#ffffff;dashed=0;verticalLabelPosition=bottom;verticalAlign=top;align=center;html=1;fontSize=6;fontStyle=0;aspect=fixed;shape=mxgraph.aws4.resourceIcon;resIcon=mxgraph.aws4.ec2;strokeWidth=0.5;" vertex="1" parent="xtmQm8H3WPaShv8IGNw_-153">
          <mxGeometry x="59.05043103448275" y="159.29661417322833" width="35.98060344827586" height="35.98060344827586" as="geometry" />
        </mxCell>
        <mxCell id="xtmQm8H3WPaShv8IGNw_-12" value="" style="sketch=0;points=[[0,0,0],[0.25,0,0],[0.5,0,0],[0.75,0,0],[1,0,0],[0,1,0],[0.25,1,0],[0.5,1,0],[0.75,1,0],[1,1,0],[0,0.25,0],[0,0.5,0],[0,0.75,0],[1,0.25,0],[1,0.5,0],[1,0.75,0]];outlineConnect=0;fontColor=#232F3E;fillColor=#ED7100;strokeColor=#ffffff;dashed=0;verticalLabelPosition=bottom;verticalAlign=top;align=center;html=1;fontSize=6;fontStyle=0;aspect=fixed;shape=mxgraph.aws4.resourceIcon;resIcon=mxgraph.aws4.ec2;strokeWidth=0.5;" vertex="1" parent="xtmQm8H3WPaShv8IGNw_-153">
          <mxGeometry x="57.97655172413792" y="273.2340157480315" width="36.20689655172414" height="36.20689655172414" as="geometry" />
        </mxCell>
        <mxCell id="xtmQm8H3WPaShv8IGNw_-13" value="" style="rounded=0;whiteSpace=wrap;html=1;strokeWidth=0.5;strokeColor=light-dark(#ed7100, #ededed);labelBackgroundColor=none;fillColor=none;fontSize=6;" vertex="1" parent="xtmQm8H3WPaShv8IGNw_-153">
          <mxGeometry x="37.93" y="330" width="78.23" height="57.4" as="geometry" />
        </mxCell>
        <mxCell id="xtmQm8H3WPaShv8IGNw_-14" value="" style="sketch=0;outlineConnect=0;fontColor=#232F3E;gradientColor=none;fillColor=#7AA116;strokeColor=none;dashed=0;verticalLabelPosition=bottom;verticalAlign=top;align=center;html=1;fontSize=6;fontStyle=0;aspect=fixed;pointerEvents=1;shape=mxgraph.aws4.elastic_block_store_volume_gp3;strokeWidth=0.5;" vertex="1" parent="xtmQm8H3WPaShv8IGNw_-153">
          <mxGeometry x="40.712413793103444" y="344.56228346456703" width="31.006681034482753" height="37.79094827586206" as="geometry" />
        </mxCell>
        <mxCell id="xtmQm8H3WPaShv8IGNw_-63" value="&lt;span style=&quot;color: rgb(128, 128, 128); font-family: Verdana;&quot;&gt;AI/RUN UI&lt;/span&gt;" style="text;html=1;align=center;verticalAlign=middle;whiteSpace=wrap;rounded=0;fontSize=6;strokeWidth=0.5;" vertex="1" parent="xtmQm8H3WPaShv8IGNw_-153">
          <mxGeometry x="293.65969827586207" y="261.1049606299213" width="80.60344827586205" height="15.748031496062994" as="geometry" />
        </mxCell>
        <mxCell id="xtmQm8H3WPaShv8IGNw_-96" value="" style="group;fontSize=6;strokeWidth=0.5;" vertex="1" connectable="0" parent="xtmQm8H3WPaShv8IGNw_-153">
          <mxGeometry x="215.73275862068965" y="121.88976377952754" width="107.78172413793087" height="63.860708661417306" as="geometry" />
        </mxCell>
        <mxCell id="xtmQm8H3WPaShv8IGNw_-54" value="" style="sketch=0;outlineConnect=0;fontColor=#232F3E;gradientColor=none;fillColor=#ED7100;strokeColor=none;dashed=0;verticalLabelPosition=bottom;verticalAlign=top;align=center;html=1;fontSize=6;fontStyle=0;aspect=fixed;pointerEvents=1;shape=mxgraph.aws4.container_1;strokeWidth=0.5;" vertex="1" parent="xtmQm8H3WPaShv8IGNw_-96">
          <mxGeometry width="63.07015086206895" height="40.732758620689644" as="geometry" />
        </mxCell>
        <mxCell id="xtmQm8H3WPaShv8IGNw_-44" value="" style="shape=image;verticalLabelPosition=bottom;labelBackgroundColor=default;verticalAlign=top;aspect=fixed;imageAspect=0;image=data:image/jpeg,/9j/4AAQSkZJRgABAQAAAQABAAD/2wCEAAkGBxMSEBMSExIWExUVEhgWGBYXFxUSEhcVFRUWFhcaFhUYHSggGBonGxUXIjEhJSkrLi4uGB8zODMtNygtLisBCgoKDg0OGxAQGy0lICMtLzI3LS0tLS0tLy4vLS0tNy0tLS0tLS0tLS0tLS0tLS0tLS0tLTAtNi0tLS0tLS0tLf/AABEIAOEA4QMBEQACEQEDEQH/xAAcAAEAAQUBAQAAAAAAAAAAAAAABQECAwQGBwj/xABDEAACAQEDBggLCAEEAwAAAAAAAQIDBBExBQYSIUFRExciYXGBkZIHQlNUoaPB0dLT4xQVFiMyseHwYlKCsvEzQ3L/xAAbAQEAAwEBAQEAAAAAAAAAAAAABAUGAwIBB//EADIRAQACAQIFAgQFAwUBAAAAAAABAgMEEQUSEzFBIXFRgbHhFBUykdFCofAiQ1JhwSP/2gAMAwEAAhEDEQA/APcQAAAAAAAAAAAAAAAAAAAAAAAAAAAAAAAAAAAAAAAAAAAAAAAAAAAAAAAAAAAAAAAAAAAAAAAAAAA5rOPPey2KqqVThJz0VJqnFS0U8NJuSV7uw94ETxqWLydo7lP5gDjUsXk7R3KfzAHGpYvJ2juU/mAONSxeTtHcp/MAcali8naO5T+YA41LF5O0dyn8wBxqWLydo7lP5gDjUsXk7R3KfzAHGpYvJ2juU/mAONSxeTtHcp/MAcali8naO5T+YA41LF5O0dyn8wDdyP4RLHaK0KMVVhKbui5xiouWxXxk7m9gHXAAAAAAAAAAAAAAAANDLuVIWWz1K88IRw2uWxLpYHzxlG2zr1qlabvnUk5Pr2dCVy6gNcAAAAAAAAAAAAAFYSaaadzTvT2prWmB79mTl9W2yxqP/wAkeRUX+SWPWtYE+AAAAAAAAAAAAAAB474Vs4uGrqywf5dF8q7xqu3qitXS2BwYAAAAAAAAAAAAAAADpcwM4XY7XFyf5VW6FRbEn+mXU/Q2B7wmBUAAAAAAAAAAAAOfz3y+rFZJTT/MnyKa/wAmsehLWB4FObbbbvbd7e1t4gUAAAAAAAAAAAAAAAAAPaPBdnF9os/ATf5tFJc8qeEX1YPq3gdsAAAAAAAAAAAKN3awPBs/s4Ptlrk4v8qnfCmtl1/Kl0trsSA5sAAAzUKGlzIk4NP1fWeyv12ujT7REbzLN9jW9kn8DX4yrvznJ/xj+6+jk7SdybPsaCJ9Il8njlq+tqxs0qkHFtPFO4rrVmszEr/HkrkrF69pWnl7ACA6Gw5uxnFOU5KW1JK5FlGg9I5p9WevxyeeYpWNobH4Xh5SXYj7+Ar8ZefzvJ/xj+7QyxkLgoacZOST13rWufUcM+l6deaJ3TdFxPr35LxtPhCkNbAACSzcyxKyWmnXj4rukv8AVB6pLs9KQH0NY7TGrTjUg74zipJ8zAzAAAAAAAAAAHEeFLOL7PZ1Qg7qtdNasY08JPmbwXXuA8YAAAKxje7j1Ws2naHjJetKza3aEjThcki6x0ilYrDHZ81s2Sb28rj24pWw0dGN+1kjHXaEPNfmnb4I/L1lwqLol7GVvEMH+5HzaDgOt76e3vH/ALH/AKhiqaYAksiWXSnpvCP/ACJ+gwc9+ee0fVScb1nSxdKve30+7pKNTRd5dWjeGRpbllIpnBMW1aalFxavTVzXMz5MRMbS9UvNLRaveHB5RsjpVJQezB71sZRZcc47TWWz02eM+OLx/ktY5pAAA9P8EecX6rFUe+dJvd48PauvcB6eAAAAAAAAAtqzUU29gHD5ZzRoWutKtWnVc5bFKKiksElovUBo8Xdj31u/H4QHF3Y99bvx+EA/B5Y99bvx+EDk85clWezVVToubkly3KSkk3glclru/csNHi/rlQ8W1O89GvzRJPUbZsNDSle8Ee6V3lzy35apUkILYsFg4eapXapfq5o7WcNTetcUzZN4divk1NIp3id9/hsmuL2yb63fj8JnG/OL2yb63fj8IEVlTIysslThfoNXxb1t773dj/Be6C9ZxbR4YvjeK9dTNrdrdv4+TSJqnbtjqart37HK8eUnDbeNmyeHZilkihaJxVbSWxOLUXe8L709RE1eLnrzR3hacL1XSyclu1vq3uL+yb6vfj8JUNScX9k31e/H4QLXmDZN9Xvx+EDLZMyrPSqRqU51ozg1KLU43pr/AGgdgsqVMOS+r+QH3pP/AB7H7wH3pP8Ax7H7wH3pP/HsfvAfek/8ex+8CaAAAI+21r3orBY87/j+4AaqAAAI7LmUlQoyqPYrorfJ4HTFjm9oq4anPGHHN5eR1qrnKUpO+Um23vbd7LqIiI2hjrWm1ptPeVsVe7j68pmz0tGKXb0kmtdoQMl+a27Ienh2ubGTuDp6bXKnr6I7F7Sj12fqX5Y7Q2fBtF0MXPb9VvomiCuQCPy3YFWpOPjLXHp/kkaXN0sm/hA4jpI1OGa+Y9Y93AyVzuew0UTuwcxMTtKsJ3O8TG5Wdp3SUJXpMjzGybE7xuuD66fJVr4Snr/UtT95S6nF07+naWu4fquvi9e8ek/y3GyOnrQAFrAAAAADpwAGK01dGN+3BdP919QEYgLQAFJMDzPPXK/DV+Di76dPUtzl4z9n/Za6XFyV3nvLMcT1XVycle0fVzhKVjeydR8Z9R1x18uGe+0cqQOyIlM38n8NVV65EdcvYusi6zP0sfp3lZ8K0f4jPG/6a+s/w7oz7cqgAKNgcdnTYNGfCxXJnjzS/kutBn5q8k94+jI8c0fTydava3f3+6CLBQtqx1PF7DnePLvht4bhzSGzk61cHNPY9T6DhnxdSm3lL0WpnT5Yt48+32dOmUjYxMTG8Kh9ALZAAAAAB04ACKtVbSlzLUvb/eYCxAWvH+7P+wDYEBndlf7PQdz/ADKl8Y70tr6r/SSNNi57+vaEHiGp6OL07z2eXNluyi+lTcmkj7Ebzs82mIjeU1CKSSWwlRG0bK+1ptO8roq93LFiZ29SImZ2h3+RrBwNJR8Z65dLM7qc3VvM+G94fpI02GKefPu3yOnAFjkBaBhttmVSEoSwa7HsZ0xZJx3i0OGowVz45x28vP7RRcJyhLU4u5mkpeL1i0eX59mxWxXmlu8LEz05pGjU0lecLRtKbS3NG7IfHpO5EtWlHQeMcOdFXrMPLbnjy0vCdVz06Vu8fT7JQgrgAoBagKgAKaS3gdQBq2+toxuWL9C2sCOQBAVYGOrNJNt3JK9voERu+TMRG8vJ848qO015T8VcmC3RXvx6y6wY+nTZkdbqJz5Zt48Is6oiTyfRuWk8X+x3x18oue+88sNs6I7oM1MnaU+FktUHyeeW/qK7iGflr047z9F/wPRdS/Wt2r29/s65FM1o2BY2BbeBTTAo5Ac9nRYb0qyWtapdGxlnw/PtPTn5M7x3Rc1evXvHf2+LmS3ZVmstW58zPN43h0xX5ZSBxS1jtjpyjKOKd/VtXWJxRkrNZfaam2DJW9e8Ovs9ZTipRwavM/ek0tNZ8Nxhy1y0i9e0sp5dAC1gALZMCwDq5O5XvBARFWppSct+HRsAsAo5XAWSqcwHJ595Y0KaoRfKmr5c0N3W/Qibo8W888+FRxXVclelXvPf2+7gCyZxmstHSlds2nqtd5eb35Y3TBJV7LZqDqTjCOMncjze8UrNp8OuHDbNkjHTvLv7HSVOEYRSuit+L2vAzWTJOS02ny/QdPgrgxxjr2hklWu2en+Dw7KaYFAAAABbOCaaetNXM+xMxO8PNqxas1t2lwuUrG6VSUHhinvi8DR4M0ZaRZgNbpZ02acc9vHs1TsiN6hW5OvYcbV9UqmTevr4adSd7vO0RtCPa3NO6czZt10uCb1PXHp2orOIYN46keO7QcC1vLboW7T29/h83TKRUNUuUgKSAtkwLAAHVVIJpp4NXPoYELW5LcXivTuYGJzYFoADjM/MlXqNoisEozXN4svZ2E/R5f6JUfFtNvtmr7T/AC4tIsFCnsmQVNJPbj0nfk2qi9Xe/wD0ldFbjnu77Qy2Wrwc1NLB+jaeMlOes1l10+WcOSMlfDradRSipLBq8orVms7S2uO9b1i1e0scmeXtRAXqQFQAACkncr3qSBM7PMs4crOvXlJNqC5Mf/lbevEutPj6dNmQ12eNRlm3iPSEZwst77TtvKHyx8ElYINRvbev9jtjjzKLmtG+0Nk6OCZzbsWlPhH+mGHPL+PcQNfn5ackd5+i94Jo5yZetbtX+8/Z1JSNeAWzqXbQMaqXgNJ7wKdb7QOxA0cqUL46axjj0fx7wIoAAAx16MZxlCSvjJNNb0z7EzE7w83rF6zWe0vNa+SXRrzjLCL5L3p4PsL7TWjJWLMRxDHOnvOP/NmUlqxv2WpertqON42lLxW3hnPLolsi2v8A9b6V7UV2tw/1wveD6r16Nvl/CXK5oFEAAqpAXAVA5nPXK3B0+Bi+VUWvmh/OHaTNJi5rc09oVXFNV06dOvefo4Es2aZrJR0pXbFieq13l4yX5a7pgkoDJQpOclFYt3I83tFKzafDpixWy3ile8u4sdmVOEYLYu17WZvLknJebS/QNLp66fFGOvhlcrjmkMcpgY54AWJgZEwKgdiAAgrXQ0JXbHrXRuAwgAAEPnLk/hKemlyoemO1E7Q5+S/LPafqpuM6LrYupX9Vfo44vGMX0ami7z5aN4eqW5Z3SSZwTV0JNNNYp3o+TETG0vVbTS0Wr3h01krqcFJdfMyiy45x2mrZ6bPGfHF4/wAllOaQAACAttNpjThKcncopt9R6rWbTtDxkvFKza3aHleU7bKtVnUljJ9iwS6kXWOkUrFYY7PmnNkm8+Wqe3FMWSjox53rZIpXaELLfmlmPbk6PNqw3J1ZdEfayp4hn3/+cfNqOBaLaPxFvl/KblU3FW0jGwAFswLQCYF+mB2YADXt1n046sVrXu6wIQABRgVA4jL1g4Kq7v0y1x9q6vcaDSZ+rj9e8MLxXR/hs87fpn1j+PkjSUrW5Y6vi9hyvHlIw28No8O7eyRatGei8Jeh7CJq8PPTmjvC04Xqull5LdrfVPMqGpAAADjM+MqXtWeL1LXPp2L29hY6PF/XKh4tqt56Nfn/AA5InKNt5Po3vSeC/c6Y67y5Zr8sbJM7oTYsNmdSoorr5ltOWfLGKk2lK0emtqc0Y4+fs7GCSSS1JK5IzdrTad5foFKVpWK17QqfHoAAWzAtAAAO2AAAIfKVDRlpLCX/AC/uvtA1ADAIDRyxYeGpOPjLXHpRI02bpZN/CDxHSRqcM18x6x7uFau1M0UTuwUxMTtJGVzvExuRO07pOnO9XkeY2TazvG64ProcnWnThrxjqfv7Cl1OLp39O0tdw7VdfF6949JbZHTwDSyxlBUKMqjxWqK3yeCOmLHOS3K4anPGHHN5/wAl5fWquUnKTvcm23zsuoiIjaGOvab2m095Wwje0ltPTzM7JqjTUYpL+sk1jaNlfe3NO68+vLp8h2PQhpP9UtfQthR67P1L8sdobTg2j6GHnt+q30SRBXCoAABZN6/7/dgFAAADtgAADHaKSnFxe399gHGW7OGzUakqVWqoTi7nFxn7Fc0Bg/F1i84j3anwgUWdti84j3anwgV/F1i84j3anwgc7la22erVcqFRT0tcklJXPa9aWJdaDPzV5J7x9GR45ounk61Y9Ld/f7tMsFC2LJVudz2/ueLx5dsN9p2bxySWex2rgpaTd0buV0HDUY4vSYTNBnnDmiY7T6S2/wAV2PziPdn8JSNifiux+cR7s/hA5XOnLKtFRKnK+nFanrSbeL19haaTHFac3xZriueb5eTxVBktVJDJtHxn0I646+UfPf8AphvHZFX0K9KE0601COOtN33bNSIusz9Knp3lZ8K0f4nN/q/TX1n+E8s6LJ5ePdn8Jn25PxRZPLruz+ECv4osnl13Z/CBdTzlssmoxrKTbuSUajbbwSWiBOKyVPJy7rAtlYqnk5djAp9iqeTl2MB9iqeTl2MC/wC7qvk2B1gAAAA888LWb3CUla6a5dJXVEsXT2S/2v0N7gPJAAADJZq7hJSWz0rajpiyTjvFo8OGpwVz4px28uso1FKKksGrzSUvF6xaO0vz7LitivNLd4XHpzSNnqaS5zhaNpTKW5oQudNv0Y8FF65a5c0d3WV+ty7RyR5XvCNLzX61u0dvf7OWKxowDZsdTxewnaPLtPJKm4tpuavVr3jv7N+jT0pJFlEbzsztrcsbpmEbkkthKiNlfM7zvKrYmdvWSImZ2hy2ULVwk29i1LoM7qc3VyTbx4b3h+kjTYYp57z7/ZrEdOAAHofglze4Sq7ZUXIp8mnftqbZdEVq6XzAetgAAAAAAAAAFlWmpRcZK9NNNPBp4gfP+eOQ3Y7XOl4j5dN74PDs1rqAhAAACTyTlFU04yvuxV2u4sNHq4xRNb9lHxbhltTMZMW3N5/7SH3xS3vsZN/MMPxn9lN+R6v4R+8L6OXaUXfe3zXHm+uwzHn9nTFwbVxb1iNvdz1qtDqTlOWLd/8ABTXvN7TaWtw4q4qRSvaGI8ugATPsTtO8PkxExtKZsGUKcVfJvSfNeW+HW4or/q7spquD6i15jHEcvu2vvilvfYzr+YYfjP7I35Hq/hH7w1MpZUjKGjC/Xi7rtRG1WtrenLTyseGcIyYsvUzbenaO/qhyraQAAbmSMnTtNenQgr5Tld0LFt8ySb6gPofJWT4WejCjTV0YRSXPvb529YG2AAAAAAAAAAAOU8Iub32uytxX5tG+cN7XjR60u1IDwwAAAAAAAAAAAAAAAAAAeueCbN3gqTtdRcuqroX4xp7/APc12JAehAAAAAAAAAAAAAA8R8Jmb32a1cLBflV75LdGp48faul7gOPAAAAAAAAAAAAAAAATeZ2QnbbXCldyFy6j3QWK6W9S6eYD6BpU1GKjFXJJJJYJLUgLgAAAAAAAAAAAAAROdORY2yyzovU2r4P/AEzX6WB892mhKnOVOaulCTjJbmncwMYAAAAAAAAAAAAAAHuvg8ze+yWVOS/Nq3TnvX+mPUvS2B1IAAAAAAAAAAAAAAADis6/B5Ttld141nRlJJTWgpxk0rlLFXO65dSAhuKNeeep+oA4o1556n6gDijXnnqfqAOKNeeep+oA4o1556n6gDijXnnqfqAOKNeeep+oA4o1556n6gDijXnnqfqAOKNeeep+oA4o1556n6gDijXnnqfqAbuRfBfTo14ValodZQkpKHBqCclrWk9J3q/XdzAeggAAAAAAAAAAAAAAAAAAAAAAAAAAAAAAAAAAAAAAAAAAAAAAAAAAAAAAAAAAAAAAAAAAAAAAAAAAAAAAAAAAAAAAAAAAAAAAAAAAAAAAAAAAAAAB/9k=;fontSize=6;strokeWidth=0.5;" vertex="1" parent="xtmQm8H3WPaShv8IGNw_-96">
          <mxGeometry x="18.965517241379313" y="9.448818897637796" width="28.286637931034484" height="28.286637931034484" as="geometry" />
        </mxCell>
        <mxCell id="xtmQm8H3WPaShv8IGNw_-55" value="&lt;span style=&quot;color: rgb(128, 128, 128); font-family: Verdana;&quot;&gt;KEYCKLOAK&lt;/span&gt;" style="text;html=1;align=center;verticalAlign=middle;whiteSpace=wrap;rounded=0;fontSize=6;strokeWidth=0.5;" vertex="1" parent="xtmQm8H3WPaShv8IGNw_-96">
          <mxGeometry x="-41.57172413793117" y="48.11267716535431" width="149.35344827586204" height="15.748031496062994" as="geometry" />
        </mxCell>
        <mxCell id="xtmQm8H3WPaShv8IGNw_-97" value="" style="group;fontSize=6;strokeWidth=0.5;" vertex="1" connectable="0" parent="xtmQm8H3WPaShv8IGNw_-153">
          <mxGeometry x="303.44827586206895" y="122.5196850393701" width="73.34068965517254" height="63.225669291338534" as="geometry" />
        </mxCell>
        <mxCell id="xtmQm8H3WPaShv8IGNw_-59" value="" style="sketch=0;outlineConnect=0;fontColor=#232F3E;gradientColor=none;fillColor=#ED7100;strokeColor=none;dashed=0;verticalLabelPosition=bottom;verticalAlign=top;align=center;html=1;fontSize=6;fontStyle=0;aspect=fixed;pointerEvents=1;shape=mxgraph.aws4.container_1;strokeWidth=0.5;" vertex="1" parent="xtmQm8H3WPaShv8IGNw_-97">
          <mxGeometry width="63.07015086206895" height="40.732758620689644" as="geometry" />
        </mxCell>
        <mxCell id="xtmQm8H3WPaShv8IGNw_-42" value="" style="shape=image;verticalLabelPosition=bottom;labelBackgroundColor=default;verticalAlign=top;aspect=fixed;imageAspect=0;image=data:image/png,iVBORw0KGgoAAAANSUhEUgAAAOAAAADgCAMAAAAt85rTAAAA/1BMVEX///8G7ZRsqP8A7ZEFm2EZV7oA7I5m8rTt/vh+sv/r9P9mpf8A7I2D9L5tqf9opv9Q8Kepyv/E++Ul7pyz99b1+f/O4P+awf/J3f8G34v5//0FqWosacn2//x887vM++kz8KON9MGX9syJuP+l+Njn/fOx99Xc/PBc8rLA+uNv87vX/O3O++dP8KuU9swAlli00f+7+NkFsm/N4P/c6v++1/94r/9YlO0JUbgAR7UiX8CD9sjh8uuD5b+018UAmVQAy3ya0LdOtYvM59sF04SIzrI2pHNsvZk5q3twmNuUqtlHg9/F0uuqvOEzbsRGdsY7d9VYhs1OiuSHntSar9u0SiW5AAAOp0lEQVR4nO1d/X+bNh4OUSrTVk4IkLVjwybM+AUMi9c2zepcu+1u2+12e7u7//9vORxLvAhJgA0C8snz6S91bNAj6fsq6auTkyc84QlPeELPMdVX7vX1OMX1tbvSp3bX7ToedrDyNU0zDEMBeSjxZ/Ff/Fmgdt3Ig2CpXuAaKMYDGzZ2f4K7r8wCT7W6bnIN2GvTXRoIcngVAZERuuZ6GGNp65HvQMgbNR4AhMboetV7sTRDx+BOyVKSIBbL/nK01MBBUChwWSXD+xZCod5LgdTdkDkvd4oEQsVZjiYpRqGz+5RNFCAnWvWMomWODQa9WEeC5TiabzabdawnU9jeOv5sHm2XCmL+TvHnfZqqkaNQrXzQ/8p27u14cX9nxdbEM30FFac2UBxXIgMBLG+mUIMQW3EtdIMaD1m4S82gOinuItfrfqYGkYGodhm+O63fMGvqjg2U5wiVrd5Cm2vAi5y8OYdwO18fLD3r+VbJc4RGtGiywTUR5acVQMr8yElleRsnTxEYXcmipTvZyRlrhYnXyIMX27zOgorehUZdT7KKD8CR2wy9HVR3lJ8aozoaqxHYblb4gDLeNOsp2/pYyb7AmcgdxCDM9DBAfgvq3FqMM9YHAG3V+Cu4sLcZPQCMUXNzk4JvZCluW3sPhUBLlQtQJm32rO5nZgp01i2+KsXcybxTM9v1NWw915szCZ5NRr8BELUfhKuzrLaZtM1wasC0P0ctvwzD2qZ9CkG709TNDJ+2afVVWZhhxii6LRqMScoPSfURvW2God8aw21mes7begkb1jr1m0DYzju8MOW3lO/iq6lvAYw2LOIq4Rf7913EofYssU9Aa17VrNL+k+k05RAkKhw4s4afPU16D2rSPfsEC59YfaCYjT7ZTMYP+o0+uCbscapMm1RzJnF6Y9ezwcceglmqCZobQ52MX3fpgxSztDFNMdyk49eVeslilTanGV8q0Z9A6TiHhxE4SYOaGMNAI49z+jB+O0yTMWwgQrRSfv0Yvx1WyRiGR8drPuyT/BGkcmgc9yAr4WdMm2laQ0gcD+gf5TZGidHpz/zcI0jGcHwEQzNxG5p2/Y7HpgmXhjwCbJtrWGNwEdEOh8Zu1pLM8679MzbcxBwe+IAt4bdstF2NIdGAMDro97qBO2gpK6NcF2pIYpxDfDYVq6kmvIW2EEDSxgNiVCKAPVSgKdbJLKvt0Zio1wqGgBhqVHcYFqRrjM62q9iLClsZ1CSVUnMIr/HvkEwPxvKCINBnkR9qOzjGqLx3PWIN660jEBcGNJvaYeL+b76joBQPO7z229mAUe7hm2QI69gKon/BSMIWzo+fvuNuTwTlKs4e4baGNayZiy2oIcFCWN9/ffYdj2Dc7tIsEInIQY10NHFhDvMQ6sH+4ezs7JvP+RSvy9pNNKlSeQhJlxzq49XC/dcxwbMv+AxR6R4AbLJBVZcy8dGkLAD+/YHg2dk/uAzhssRPWWCJQtUkikgtPCaSrI4fMUGBIEKnpKt9omcqtXiFHytDw8Q4S/ANl2FZBpQMYaXYVyUzWoaGiZXop5ThmUAQxSG3SaSwglkLiIMuZ43z+68zBL/gCyISbujwsOGGFYaQSKCkVYgfsgRFggiEytTFXyrPk3okT9ggCRF+yhMUCKIimlMWdrphaWBIvigrzXtPM+QLIkCCRk0RlqyS9+EIEmjSzhHdU5NUJIiirVzYeKMS1RHhAZQYxt//TA0hXxCBseUyNPeyBcQr0Iu9l3ZQjuNgWD9+ohgKBJHrjqnYwXSEjt0cd8N18zRE+PgTxZDvmkJuVEQCQ5H6J0Ze+kpEURC5MSJ3mRKviwrjwgWJc9uhIUCBoUgQ2WkGa4JbL3DrsJEXqeO2YP1MM+QKIuBkJ3CeBUZ8VUu22bTFQoiPtDLlCyJgK1OyGM2doyuEu6A9FiJ8/Cc9iFyLCJlnUCJYMgHxDD14OepY3BcY8gUxZKw42yXejI3VUHsbTstwX0MQHQZDvJyCOI9f7b2dKiFHa/i+siCyMoprLGMcPwxns+lI3lIlwv7xCwr8hFsxo+hhT5rt7qgj9gzVlyOJWH5eAI9gMQi29mu2QGMqWbIURffLHAGZ4NJhjSGt7+f7Ocr2xLAfatB+tlm9ZINsgDHVVrKNjWXokuGl/zAkgvY+gQhYB2RUYiSGTBArSma4t+CFuoMiSEwdw+HGfhoqWPlBEcTzkGUJSWax8IdBEcQONxgXvTHsxxVt5LAIYi3jFJJmNtfLGRZBImmFaCPg/WFgBPGmhOJKGjmPMHSCRNQKizX7dBNreWaYBAu6BGsfRi5gYAR9tjWwNa79GBhBHectqI+nfA9gYASJtqRkTeDiDIygh9MWVMSEFxBZgdTACOI1CnoBF3vhrM29QyO49znp3OcYx1HFHwyNIAkJqbDv8RC0IrwGk/90Ang/aI9g7XQNzAMhxBqQvU9GZSbw7ibmumDdpBNpvyGAs4NWAWGMZYxdwm0bRZE7wzBNcxUErAT+HBPMBUweXhhkLR7qI3+HMQ/XGUS7NsSYxf9WehHTHYIYi8XCs217VwaQ8cqjwCRI9lyyktqW/YCm29EaTCbBfaRvyCsw0h42e52RX6tfY4IStmi3DkIwl1h7VATxEsujJYi3g+aPrD4RHBBkErwS4UUWbzE+E+D1mzevCd7FuLm5fNMEwauHNz888uGpMS6r4FUJvsrgeYzb8xinp6cXMV5WxCWjvUTJVCb45nYH/PYa77+ogdPDwCbIMhMiQ//65YGvbx9CgjlDL3LVhkaQ6aqJnO2hEWQ626Jw6VEQFAW8QyWY/1SQshgYQXbKIiHICD8HRpAknag9r4K04cAIctKGgsTv0AiyE7+C1P3ACHJS94LFl4ER5Cy+CJbPBkZQxwTpz/kLoAMjyFkAJUvYjNoDAyPIW8Lmb0IYJEFY2IQw5W4jGRZB7jYSi7sRaFgEV5A3UNytXMMiyN3KRTbjFY+2DosgfzMedzulkOA5DWnkdigSFGyn9Hinr68uBTmhQqrp9rlE3N7QjcVlKlgn0Lhbmk+ubrhj+P5LGr+8kIkruq04KmJVkrbHnE3pMd7xGX64e5bD3b8KL5UI0ab05MwB6/ju63POND2/KDD85UXbNPgQHSvgHgx5wNVXnEE8P//1GcXw2b/bZSEAGSRmMVTe0Z49uAxPz//zgaL4bVcMRWJ2wj2chXF1yWX4nmb44bcWWQhADmdxziDrJcfrbnjm4vz9l5QgPvtvayREKDleV3pA8h1X1ZwWBPH3LpRpyQHJpHIQ94jrZ895quaUFsS7P962Q0KAsiOuJNoXHFJ+y1c1tCDe/S5d1ZQeUibHzAW1ZATK9P2XFEPpqobUU+WXQqhSKOCSQzC2iH/S5uIvqYI4UzjedApSz0lY6uHmlkvxV3qayvRqqpR6qFas4zWPIEMQ/5DHsEqxDuLqMJfRUrx4Wdki3n1oloUA8wrlVk4WYaWCOVfPuWN4mxfEu78aJSEAqRUrLphD3LWyYgGCIPgiJ4h30jRptZJHSdGqsvpk/CD4/DRrL76VZu4rFq0iJUtYqzB58MP885fpGH6QpWRwSqn8XjRSOK68psxnt1xVc0EE8e4XSZYwKRxXXnFyWbnwmMBvI67pt7JEsHrpv5M1FtYKxRtfvOIyJBZRkj9ap3hjUn6zQukxfhCMLaKskGJOym9WKfOLtyNWK+J/wyMYq5o/n91JinsXWG9Uu4dJrVUC9x3Xq7m4+PXuf0e2vCLqlcBNrwCodMjgdSYIzuyzvLh9dXnzm5wZusBhHqp6s1C9MtQvviKkzl/d3Ny8e/N2n3S+khYr1S1DnVxmU7X+WDGDLhUROS5VvRZ8RErBd3dZZHUkd73VKAWfFPOvfxGHdNhkgtYp5p/c2iTjOoYjsSG+Zb2qy51cqHEIiAatW1EzvRKl35PUS65EqVuvcPPIL7UZ2LVEcFn/AOcgLpZSSBsPsWcDuBqMVEw98DpXcgc8bOl69GNhH3m524lFcv09VTQuMdaHl+wlYdYjvWAxew1l91dE00jadsyhRyu55LQnlyinSC855Ze/r4D0mlqlr9fUjo4spfDILxqOdXGYPKo/DJu8KposOPWJYdDkZd+5+9/7oWmS+9Wb8pM3Td9wfxxWzTdnqiSP7KgMfgZu0hijuTjHNJJJ0bVPMyM3KvCunTgMJum20hXUdmFdJ75Vw3HqNBlDyNouLAmLZTJ+jauDRLRj3dyVqgnSNjQofwTrECa953ZR4cmepfy0NgzWIkwLrHUQ5KthqgfaSvVNEl0K0FzK9ZIJrAClL2/v+vhxqsPQVuYgetvMLQZt3miSWNmdnyvvZpFVmNJrWQFMjUQQgXJsKFYRlp92KwTrtl+aeRsAwnsrm4GanTUK80hLw5g5qTxAbdPuG21dQ8nb2rB+LARaai/iPm0zStQz80WB0nLs9jbV2XG3ll7lfPB7RkbmPVL1dhAq2VcvveYnqrUYZbuxHeeFD3vmZArHAmW8aVbd2Po204Wx/8s4s9oy1pPsFUJAWbrNzSDVHSnZwrtw1EUEY+lGthFAcUbN3ArnTZzs6MVU9a7Kt0b5lgCkzLzj2mKrcwNlnynNNrDhRUa+hjNUJvP1wRzX84mBqOdFXV0WSNoUUU0C0PHdaX2O9tSdGBBQ9Lbd52Itb6ZQ7QLA0LRtHb0QRKFmKNRTIHJbMD8HIdKMfON2RcIRQqNV4KmiwbRVdbHy429C+lY3YDh9WrKzNtf0MOJBMELfnZub9UNhbfxt24v/t96Yc9cPHcT8neJv+lb4euU6qNjU3VhCCHdzNlziYuQTfxnGM/Lhc+YvkOOuejI3c1CDJUK8CwQr3jMYdwcK1z3eXbVaOrSyqA6gGM6y99v/bN2dKJAhWCXkIDRGUWcuS03oputDlvbgkUNg5JqHOwgdwLK92Lbt9D8UCdxO5BAKo8Cz+6hVyhF7Adulpu3ksqBkDEfTllu3Y0+sEdjqdPZwHUX2horZ9Ei//AlPeMITniAB/wexRKEcsh4hRwAAAABJRU5ErkJggg==;fontSize=6;strokeWidth=0.5;" vertex="1" parent="xtmQm8H3WPaShv8IGNw_-97">
          <mxGeometry x="18.44396551724137" y="8.960629921259859" width="27.85894396551724" height="27.85894396551724" as="geometry" />
        </mxCell>
        <mxCell id="xtmQm8H3WPaShv8IGNw_-61" value="&lt;span style=&quot;color: rgb(128, 128, 128); font-family: Verdana;&quot;&gt;OAUTH2 PROXY&lt;/span&gt;" style="text;html=1;align=center;verticalAlign=middle;whiteSpace=wrap;rounded=0;fontSize=6;strokeWidth=0.5;" vertex="1" parent="xtmQm8H3WPaShv8IGNw_-97">
          <mxGeometry x="-7.26275862068951" y="47.47763779527554" width="80.60344827586205" height="15.748031496062994" as="geometry" />
        </mxCell>
        <mxCell id="xtmQm8H3WPaShv8IGNw_-98" value="" style="group;fontSize=6;strokeWidth=0.5;" vertex="1" connectable="0" parent="xtmQm8H3WPaShv8IGNw_-153">
          <mxGeometry x="132.75862068965517" y="205.66929133858272" width="66.07349137931035" height="60.080551181102265" as="geometry" />
        </mxCell>
        <mxCell id="xtmQm8H3WPaShv8IGNw_-50" value="" style="sketch=0;outlineConnect=0;fontColor=#232F3E;gradientColor=none;fillColor=#ED7100;strokeColor=none;dashed=0;verticalLabelPosition=bottom;verticalAlign=top;align=center;html=1;fontSize=6;fontStyle=0;aspect=fixed;pointerEvents=1;shape=mxgraph.aws4.container_1;strokeWidth=0.5;" vertex="1" parent="xtmQm8H3WPaShv8IGNw_-98">
          <mxGeometry width="63.07015086206895" height="40.732758620689644" as="geometry" />
        </mxCell>
        <mxCell id="xtmQm8H3WPaShv8IGNw_-46" value="" style="shape=image;verticalLabelPosition=bottom;labelBackgroundColor=default;verticalAlign=top;aspect=fixed;imageAspect=0;image=data:image/png,iVBORw0KGgoAAAANSUhEUgAAAOEAAADhCAMAAAAJbSJIAAABJlBMVEX///82v7H1vRUXZlYrR5HqR4yUxz/1uwD0uAAAW0kXuqsAV0Qvvq/1vAjpM4PpN4XqQYkdPo319/YAMIgAYE+PxTIlQ4980MaNxCz3ylz64ar63Z3879L40nn//fr4zmoUOYsGNIljcqczTJQ5dGYALoePqqOc2tJOxLfP2dbM6+eM1czY7+zm9fOu4Nr86sX2wS/52ZH2x0z41YT+9+nsYJj1t8351eL98PTudqX99OD75rnzob99ibRDWJqIkrrq6/LR1OO5vtW2x8Jxfa6ht7Fsy8DIzN5fin/U57mx1Xvr9N6+3JOkzmDw9+ady1Hxj7T3xdfvgKrzqMT2v9Pxkrb74uvrVJJSZKCts859nZWbo8RrkohCeWywwr3I4aXe7cm214QQ02PPAAAJiUlEQVR4nO2caVvaShSAWSxLDKIgiBuCXUSpiIrWLipqxWr19mpvW7vb//8nbpJJyMJMMklOGOhz3i/3Pk+W8vacOWdmkjQWQxAEQRAEQRAEQRAEQRAEQRAEQRAEQRAEQRBENJ2thd2VnXa7vTO/vL2wVBX9e2DpLKykM5l0Op3TUP4nk2kvb/0tlp3FtiKXcJJTLOdfi/5xACzNZ9K5AT3DMpPe7oj+heFY2skMRs9GOrM7xsnamc8ww2d1XBT9Q4Oy6BW/vmN7SfRvDUJnJ8Pnl1DH47bon+ufLXZ9oYZxZ9xG4yJ/AHXFxCvRv9kXu34F1Uwdp8G47F9QYYwUA0RwJBU/7//7cm9v7+7N7YH9gO8x2Cc9QhOcg0/TU/lpQn5q7z/Loa3AgolcYlQq6sHd1PQjC9P5R/vGsQ5nm6cHcUeklsm+3U8jv6fnattXH3QyGjO4u6kBP1Xxo3YwRI4SxRFoi3t5muCj/Avt6GKYJFXItQXrKYKDGaoxRbJ0JaRhIrMgWPATPYIK5HhIP4W02Hp6Sx2Dajm90453Qg5D1VDsOoORooohKTRL4Q0TGZGCH5k5ClRotCCK7BjMEIIVmoQ6sxEneMsM4aMv5Ixw/V5H4Az8jj0MSaGpAgxDJU2XhRmykxSw0KiKogQPWK2iX2gWAIZhQmCavmAPQ73QLMMYCqum/7EN9RkNSKFRqqmoRdQ+03D6JTkDZhiKG4guhqTQvIIyzAjazmBnaf5WO+E1zDBUDLfEGLIrjV5odqEM04KWUOxuMU1O2IEpNALXF188Cg1UCMXNaj5RtqA0wzfaYbBCk0ivCDI8+PgyP5WnbLQBFxpxhiqf9+++OC2hC41YQ5WD20+qZV8TutCIN1Q5ePFmLz+lWULPaISunxy80AZmnhQagF2ovuFIPfVWBiYpNFtgw1BMxz85rB0dn3ZdztgGNBz+rO3kvj4zUZ6p1ctvv3YZ58yDFZrhP73orhbLEzrlWr22+v2kMHgWmF8iN+wt01MlfjbKM/X60fFF134a0PJXfalvyCE8LE5QUFK2+Pjw1GIJtEmTSLeH/ORitUYTJJCBeaKfCbRJM+wtjPsZtqCRsmVyKsSWfiIz7OnMqpegSv1CO7cKYGi+4bY+HMFjlxS1hPGInB2+I5rPR88nk+dDELygFhlKEMlQDLupnzP3Z75NJpPZ5FnUggWeFNWCeE8uCLcjbOkS77JJlew7St+F5JDX0AhiqMl3um3sIRaezCYJs9lIh2P3Ka/gRPktuSTE80PzFdPNpCGoMBnlaFwte6sZFLvaJcEfPpldYn0yaWXyWWSC3Tq/4MTMIbko6Do/s2v8sWd2wSijeMw9Ci1BDPhOlK1LOJmMqqT6yFE1iN/JVYHm35YukR0QVBSjqagnfpJUoUYuW0rwfGRhY7BLOHkSieF3X0mqGOpBjL1u+3OkdQkH2UiGop9KqlCun/Qv9f4YyCpI7xJDyFN/ISzPdK0Xv1rhdbR0CXqGasx+gxf01Ssmyo+7jus7u1yOLl3CnqfwQfTXDY8oP6C6mPP8cMa1S9iCCD8S/ZTS2r1x1UbLdpMFj8Lq0SWswJfTE66VIRF8a1zUkiTZ7rjlUnS8u4SFyU1xhvVj45o1KR6Py3LTlrLqV6RUwXTCs0tEmqbcWVo0+mCsqQqqjtKc7S+8s0xz5OoSFsMf0Ia8laZ4alzR0wU1x96G9WbV7YFvnfm6hBVowxhflhYvjPMbctyCLDVsjs6iw9slTOD7xRHHnKZcMyYyBbugihS3Fx3rbM78cuQZp2AE0xqOLYxyuaufvBkfEFRrjrxmLzpGYfXRJcwYgu9nnHqmqdnnn1P8qEVHm83l0v23K727RISGnrs0M2afl1iGWtF5br2tMpvz1SUiNIzduw/E2qpxYkti+tGKTrXfJWZ9CEZh6J6m9UPjvDV3QVrR0eDtEjpRLKDcSk19oM+74yw6/F2iH8MIDL+yg/j0q3HSHJeglqxNa9Hh7hJ94AVd9qKemhMZdo2hOJpFx2OxNAj8rE3llD5zMzcsKH3ew9EoOgXfhr+iMKQ/PTQ3LKh93gNpjlz7zE8dTUa2oxgrDyaquWGx6d9PVSSjseDTMJoNRWUNNdD2LRMZ3hpjR+6Ry899KUazn6jifEbK3eddgqiXG3+G0T1IvLBF0bphEVAwHm+QO5z76Piz0T2AUhf75lh0bFgEDaJeT0cjhArdI6PzmxsW3H3eLYi/+FdOUb+08J281lYM1OddgviEN0d/Riyov7pXZ2xYBIHc54wziFH1Qhsnb4v9iUyAPu8Mor7U4AtiZE9IGWzKoQWVvyJyr3WeuVuk7ypQCNjnHRhB/DGZ9VoGR/imApUNEEFF0bjh+vmPpKI5MhEM0eftyGuWu3bPvj2hW0b8xtAgYfq8A8lRHwvrz35mnSmb/TmMKmphE07QTFOb5fm7WTOYsxGtCV2AGoQqDdYfsvlLG5iz2QgeinrSCt8nDOSmdkfGG92Fs2/vhtwECU1AQ9IuLktXl+9FqDCYgzPUF4nXpVKpUrn5/X5E/qG2kBNumyEpkjcpDdXy+mEELBtggsbcu5Tqo1im/lz+87cYymTH7Z9KyoaSsimhAxPQkExpHkqpAbSBKUoSzlBfA19TDDXLK0GGcJVG3zS9oQsqioIMAbsFuSEjhKlURVDFWYMy1HeFnYXGYvggxhBs1mYUGqZh6VKMIcz6Pt4vNL+ZWSrKsABmSArNFUtQmCFYu9AXh0xBcYZQiwuyOGQXGmGVBmoJrC8O2YVGWLeIxYAMyeKQXWhSKVGCQLMafXF4xS6l18IMYdJULzQf2EkqcHkBIagXmip7GH4QJwgycdMXh+9Hbs6mAdH0+7tQLMMbgYIgLVGfs/1hGYprFRoFAEOyC8UqNBVR8xkDgIcz2n1YhaYirlMYhJ2c6otDRqEZAcHQayh9cXhJNRSeohrhnrHJsn6bh9JAqal8ELxfahBq7ib13zGtXtscS5XUSARQI4yg9Y3v6uVNpVLSqFSuHkTpUAj+qFRqOm5VfX/5+/r690g9gVIJWm2M92fHgGCKYyQYTHGsBIO85C2ted91tOj5CqMsbXjfctTw0/qlBvinysPgeYPTUR6/DDVouXyYZ/HrjWUAdZpejs4vEMePwprs4wvLMWWjJ9EkZVlqtIb87l10bDQbiqVMXiBW/ytJ8V5rnIcfhcLz1tpcr6HQm2u2Nv4yOwRBEARBEARBEARBEARBEARBEARBEARBEAQZS/4HuFQ6u6GR7IgAAAAASUVORK5CYII=;imageBackground=default;fontSize=6;strokeWidth=0.5;" vertex="1" parent="xtmQm8H3WPaShv8IGNw_-98">
          <mxGeometry x="18.147629310344872" y="8.563779527559037" width="28.426939655172408" height="28.426939655172408" as="geometry" />
        </mxCell>
        <mxCell id="xtmQm8H3WPaShv8IGNw_-53" value="&lt;span style=&quot;color: rgb(128, 128, 128); font-family: Verdana;&quot;&gt;ELASTICSEARCH&lt;/span&gt;" style="text;html=1;align=center;verticalAlign=middle;whiteSpace=wrap;rounded=0;fontSize=6;strokeWidth=0.5;" vertex="1" parent="xtmQm8H3WPaShv8IGNw_-98">
          <mxGeometry x="18.813793103448262" y="44.33251968503927" width="28.44827586206896" height="15.748031496062994" as="geometry" />
        </mxCell>
        <mxCell id="xtmQm8H3WPaShv8IGNw_-99" value="" style="group;fontSize=6;strokeWidth=0.5;" vertex="1" connectable="0" parent="xtmQm8H3WPaShv8IGNw_-153">
          <mxGeometry x="132.75862068965517" y="123.77952755905514" width="66.07349137931035" height="61.96543307086614" as="geometry" />
        </mxCell>
        <mxCell id="xtmQm8H3WPaShv8IGNw_-30" value="" style="sketch=0;outlineConnect=0;fontColor=#232F3E;gradientColor=none;fillColor=#ED7100;strokeColor=none;dashed=0;verticalLabelPosition=bottom;verticalAlign=top;align=center;html=1;fontSize=6;fontStyle=0;aspect=fixed;pointerEvents=1;shape=mxgraph.aws4.container_1;strokeWidth=0.5;" vertex="1" parent="xtmQm8H3WPaShv8IGNw_-99">
          <mxGeometry width="63.07015086206895" height="40.732758620689644" as="geometry" />
        </mxCell>
        <mxCell id="xtmQm8H3WPaShv8IGNw_-47" value="" style="shape=image;verticalLabelPosition=bottom;labelBackgroundColor=default;verticalAlign=top;aspect=fixed;imageAspect=0;image=data:image/png,iVBORw0KGgoAAAANSUhEUgAAAOEAAADhCAMAAAAJbSJIAAAA5FBMVEX////pR4s+vrA1NTU3pZXrY5npQ4ldxbn19fUXFxfoMYH+9fhYsKI2o5M+wLLpQYg1Jyo3rJsano3xSI8kuaroNYMnNDDzSJA1LzA1MzP86O8uNDIbMyw1Ky31+vmL1Mv40N/0rcfvg6ybQmY5lYc3Pj2k3NU8t6jo9vRnyb3qVZLvibDzqMT3ytsoGB4/NjlNPUNXOkVhPUtuPFB7QFeJP1ypQ2y5RXTKR33bSYawRHDVSILGR3t5vrKi0Mg5g3jO5uI5bWU4VVG529U5d204X1k3SUY5mYs5iX2Y2NAWAwgaOjVkEELHAAAFcklEQVR4nO3ai1rbRhCGYZAVxzEQjEtsXAxpS49JW8I5hBycHtP2/u+n0lgWa6E9endmnGe+K+B9VvwSEhsbkiRJkiRJkiRJkiRJkiRJkiRJkiRJkvRZt/XiEUXfIAr7Xfx2u3jAQriJX//Lz1zY/woRSCHsf40JJBDuvkQF4gt3H+EC0YXdTWQguhB1RimEuDNKIESeUXwh9oyiC9FnFFuIP6PYQvwZRRYSzCiu8BnBjKIKSWYUU0gzo4hCohlFFBLNKJ6QakbRhGQziiXcRXx1SCIknFEcIeWM4ggpZxRFSDqjGELaGUUQEs9oeiH1jEIphV3MT0zaUgrJZxRKKKSfUSidkMGMQsmEHGYUSiVkMaNQIiGPGYUSCXnMKJRGyGRGoSTCZz9Ts5RSCNnMKJRAyGdGofhCRjMKxRcymlEourD/CzWpUWwhqxmFIgt5zSgUV8hsRqGoQm4zCkUVcptRKKaQ3YxCEYX8ZhSKJ2Q4o1A0IccZhWIJWc4oFEvIckahrf54PP6iLhjIckah3q+nRa/Ozi8ur06ub17fbo4DoExnFOo96ZQdlo1Go+l0enp+df321utAuc4oVAnVSup0dH51czt2U7KdUahFWDkL5uHF9Z39LLvdLWqFKa2wYk4PL98UZ2kS8p1RyCyslGcnd3ok4xmF7MI58lSH5DyjkJOwbDR9dXL70Mh6RiFnIZzkxU1jd3jPKOQhLJHTzsmmYmQ+o5CfEK7Wy7vxmswo5C0sD/L87XgtZhQKEJbGs9LIfkahIGFlZD+jUKAQjD9S//BOBQs7k53hu2PqH9+hYOHg2zzfGb6n/vnthQoHH/byomE+oxbYChQefQRgaeR+qYYJD35bAMtL9XdqhLEg4eS7XG24Ta0wFSQ82FkSFsc4o3boCxGWM9qI8agGCKsZbRC3uQ6Ov/B+RtfjSvUWqjO6Fleqr7Axo2uwqb7C5owuX6k5w4dxT2HLjKrCvYwf0U/YOqMqMNufUYuaeQk1M1qXFe1ze4bzEepndH6E2VMgfk9tWs5DaJrREvgDAAviP9SopTyER3+bgdmi/efUKjV3oW1Gn2Y8ic7CwR/GGc0VIC+iq/DgT/uM8iQ6Cg/+cplRlchmbtyErjOqErncNNyElhndewjkc+t3Eg4++QPZPMC5CI98ZlQlsngMdxAe+c2oGrWuzC6cWGa0ZWXqHlPzNhyEk47xAI1AFrdFqzBkRhUi/aDahGEzqhDJ18YiNM9orp1RJd5Cy9Pojt2XZT9xFtqeRo0rw+VX0SScdEyvDh2B5L+KJuFqM3of7V3RIBx8Mr86dAUS/5mhF0aYURbXqVYYY0ZZXKc6YZQZZXGdaoSRZvSeSPf9VCMcRJrROrr7frsw2ozeH+KMldD2BcYfmNE9n7YJo85ofYhUY9MiXOWPehORkTDujNZConfED4UeX2A8iTR3jAdCy4fssJWZR/PSpil0+ZAdfIgkj6cNofVD9kqRHOKyMOALjNchUvwmLguN/w+kfsheo0NcEiabUcpDVIW2/wdaGZhlBA82ijDljNZRCt3+H2jFCF4t1sLEM7oI/31GLbTNaBwgwV1/IUw+o4vQbxiVMOHTaCP0P6LmQpQZrYTYWwNClBldhP1OqhQizWgV9nNNKbTMaLyVmQuRn2sKIdqMViHfEntP8Ga0CvmW2PsXb0YXQtzLtPdfkleHxnDXtDdEByLf9I9NwvgrMxfOuAgTAZGfTY1nmAiI+3ewQbjiq0NDqPcLvTDNysyFmE/fWmFCIO4vok6YbGXm0QsTAzH/vtCdYVIg6h2xXZhuRish4tfS43y7pcepY/D/35IkSZIkSZIkSZIkSZIkSZIkSZIkSZKUtP8BuMXSRGIsjk0AAAAASUVORK5CYII=;fontSize=6;strokeWidth=0.5;" vertex="1" parent="xtmQm8H3WPaShv8IGNw_-99">
          <mxGeometry x="18.965517241379313" y="9.448818897637796" width="27.155172413793093" height="27.155172413793093" as="geometry" />
        </mxCell>
        <mxCell id="xtmQm8H3WPaShv8IGNw_-52" value="&lt;span style=&quot;color: rgb(128, 128, 128); font-family: Verdana;&quot;&gt;KIBANA&lt;/span&gt;" style="text;html=1;align=center;verticalAlign=middle;whiteSpace=wrap;rounded=0;fontSize=6;strokeWidth=0.5;" vertex="1" parent="xtmQm8H3WPaShv8IGNw_-99">
          <mxGeometry x="18.32086206896551" y="46.21740157480315" width="28.44827586206896" height="15.748031496062994" as="geometry" />
        </mxCell>
        <mxCell id="xtmQm8H3WPaShv8IGNw_-100" value="" style="group;fontSize=6;strokeWidth=0.5;" vertex="1" connectable="0" parent="xtmQm8H3WPaShv8IGNw_-153">
          <mxGeometry x="386.4224137931034" y="56.69291338582677" width="163.5775862068965" height="75.59055118110238" as="geometry" />
        </mxCell>
        <mxCell id="xtmQm8H3WPaShv8IGNw_-115" value="" style="rounded=1;whiteSpace=wrap;html=1;strokeColor=light-dark(#9FA8B4,#EDEDED);strokeWidth=0.5;fillColor=none;dashed=1;fontSize=6;" vertex="1" parent="xtmQm8H3WPaShv8IGNw_-100">
          <mxGeometry x="-9.482758620689651" y="-6.299212598425198" width="156.46551724137925" height="81.8897637795276" as="geometry" />
        </mxCell>
        <mxCell id="xtmQm8H3WPaShv8IGNw_-60" value="" style="sketch=0;outlineConnect=0;fontColor=#232F3E;gradientColor=none;fillColor=#ED7100;strokeColor=none;dashed=0;verticalLabelPosition=bottom;verticalAlign=top;align=center;html=1;fontSize=6;fontStyle=0;aspect=fixed;pointerEvents=1;shape=mxgraph.aws4.container_1;strokeWidth=0.5;" vertex="1" parent="xtmQm8H3WPaShv8IGNw_-100">
          <mxGeometry x="-4.741379310344826" width="63.070150862068964" height="40.73275862068966" as="geometry" />
        </mxCell>
        <mxCell id="xtmQm8H3WPaShv8IGNw_-41" value="" style="shape=image;verticalLabelPosition=bottom;labelBackgroundColor=default;verticalAlign=top;aspect=fixed;imageAspect=0;image=data:image/png,iVBORw0KGgoAAAANSUhEUgAAAOEAAADhCAMAAAAJbSJIAAABIFBMVEX///83XJM0pXSNxj8nquE0WpLU3OiLxTt6x+uBw6Urom8bqOAfrOIxp3YUSYmbzlUyV5Zol26QyTtMbJ00pW+gz2X1+u6z4fREY5ZLmch5vnOXy0oup7Cm0W0mUY0+suTR7fiSzbLs9PZdso64xtnx+eeFwizo9Ni4387f8e7A35jj9Pve78uY1fCfsMrV6rvF4aNcvOej0uRQsIa02YXP5rJ1j7J6x+1+xcppu9+l2PHZ6+1RtODu9O6/5fbC4OcAoeCAx8Cl0MOQxrUJnGTV6+FwuZ1Yn8u10+aOuNSczaxxu2ap1aSNx4llgKoGQYaGmrvF0Np5noWht7VAZY/P288+iIMXhHlWlZbm6PKTrqKKrIygu6AObYNTp1Ow132E7xD2AAAFJElEQVR4nO3dfXPTRhAH4L3KQgGF4AYsB1w7IcQyCTa2i5NAU5MALVDewjsttOT7fwsOaIgV6+5WGtmj3dnfv/Gd7plbyytHIwNImGR3YU7ZvX12XnmYEC6G88ovl87NKedPCSvziRb+NKeIUIQiFKEIRShCEYpQhCIUoQhFKEIRilCEIhShCEUoQhGKUIQiFKEIRShCskL8zRYFCs33WRQvDFd7dVyG9pmyCM9du27KrRkI1wCXG6vWqTIJr5oOsn4NsYuzEsKalchBCOMFy2QshAB3zLMxEULPeErlIoS6ichGCL8Zzjd8hFBPn5KRENZS5+QkhHpaobISphYqL2Fae8NMCHu/n56XmxD2Tu8iOyGMd5Mz8xMCJPtwjkJI7CJLIfQqJ7PzFGoiaeHduwjiAWVhPawjiMeFSlO4iiJSFoaLxj+eZP8gpCushIuIXdz/VqhEhRVUoa59bVKpCnG7uK6PQlZYCcMegjgM6Qr1LvbGbuLCAV2hfs2CUwgwpCyshHduuIn3UP8ZK6lQv8pNHJ9FE0sorIRDxC5iVldaIe4a5CplIapQ4f4fhIW4Qn2AIpZUiCvUP28hllhWoW5vMMTz7jWWVljYLpZXqDu4X93ETecqSyyshAcYomsXyyzUQRBdhVpyYTh0Ex2FWnKhvtRYdxOtu1h2IepqavOhZanFCu3AXEJUoYLlUqNQ4WVXHp0xHe2xZdRf7kJdf/L0iinPTIPGz41jTvI8MaS14shFo3DDtwx74SbCwGukx9syDWnXDEMmU0sMWfIdsQhb5lGqpRDE/oXAS0tsEaaPmExwISlU9liF1oEv9tzEbpy64ICEUI/cRxBTd5GIUPmHCGJqoVIRKn9lw01MK1QyQuX7NxHE6V2kI1RqCUGcLlRKQqUQxM5pIimhjyI2YrpCXKHCUWLhxISq9RJBHE3uIjWh8ncQxP7EpwY5oWphOrhRg7AQRxz8KFSCQj2N+//EJ4VKUajbm1du4nGhkhSq6uuum/h/oRIV/txou4nfC5WqcDneRhC9gLAwqCGIXW0gK/SCGFGokX4ZWaFe+wBBPKK7h/roAYIITcJCTdyKnMKoT1joeXET8WYkLdRE9y7SFnrxUW4iEaEXLHeYC72gmZNIRpj7vUhHmLdQCQlzFioloV5IDiIpoW5vENfEpIW4Ppy0UC8mK5Gc0ItH3IVevJWpDycotNx3wUXoxcvchZkKlaYwS6ESFXqxh+3DqQp1k4okzkCoVjY2DSlQqFfV7aAyA6FqLRmSCegQ6g4OFzcwu7CgOIQFRoQiFKEIRShCEYpQhCIUoQhFKEIRilCEIhShCEUoQhGKUIQiFKEIRShCEZZX6HqKUv7kEQZFJClUF2eWpBElbNSKSDMhPDO7vMwsDJrtqIjAvLLTyiyc3+KKyU7LZy6EN2995kLYPvSZC+Hm2ypzIbx7X2UuhOhDlbkQor+rzIXwz8cl5kKIPh36vIUQ/ctdqIn/MRdC9OQzc6FubxrO++yJC6Gz7CJSF04/45KdENpNO5G+ENr2XWQg1IUaMxdC+8hCZCEEsBCZCKNRYHozMhEmH8bKUwjbhlMqH+H3pyOyFkInlchJCP20PpyVEPopZ1ReQogaUx+MzITQHk39YgAz4XR7w08Ig+QplaFQE7kLJx7EzlUIg4lPDZ7Cye/gmAonfi2IqxA6x19QsRVCuxYzF0LUjJkLAb51cKyF0def0mEtBNCFylwIWwF3oe7guAuhy14I7IGSbPkC6Fwsd+IauiIAAAAASUVORK5CYII=;fontSize=6;strokeWidth=0.5;" vertex="1" parent="xtmQm8H3WPaShv8IGNw_-100">
          <mxGeometry x="18.339655172413764" y="8.81889763779528" width="28.06034482758621" height="28.06034482758621" as="geometry" />
        </mxCell>
        <mxCell id="xtmQm8H3WPaShv8IGNw_-146" value="&lt;span style=&quot;color: rgb(128, 128, 128); font-family: Verdana;&quot;&gt;NATS&lt;/span&gt;" style="text;html=1;align=center;verticalAlign=middle;whiteSpace=wrap;rounded=0;fontSize=6;strokeWidth=0.5;" vertex="1" parent="xtmQm8H3WPaShv8IGNw_-100">
          <mxGeometry x="3.0872844827587755" y="43.3029133858267" width="47.41379310344826" height="15.748031496062994" as="geometry" />
        </mxCell>
        <mxCell id="xtmQm8H3WPaShv8IGNw_-101" value="" style="group;fontSize=6;strokeWidth=0.5;" vertex="1" connectable="0" parent="xtmQm8H3WPaShv8IGNw_-153">
          <mxGeometry x="399.7670258620689" y="220.15748031496062" width="66.07349137931035" height="66.45551181102371" as="geometry" />
        </mxCell>
        <mxCell id="xtmQm8H3WPaShv8IGNw_-66" value="" style="sketch=0;outlineConnect=0;fontColor=#232F3E;gradientColor=none;fillColor=#ED7100;strokeColor=none;dashed=0;verticalLabelPosition=bottom;verticalAlign=top;align=center;html=1;fontSize=6;fontStyle=0;aspect=fixed;pointerEvents=1;shape=mxgraph.aws4.container_1;strokeWidth=0.5;" vertex="1" parent="xtmQm8H3WPaShv8IGNw_-101">
          <mxGeometry width="63.07015086206895" height="40.732758620689644" as="geometry" />
        </mxCell>
        <mxCell id="xtmQm8H3WPaShv8IGNw_-67" value="" style="shape=image;verticalLabelPosition=bottom;labelBackgroundColor=default;verticalAlign=top;aspect=fixed;imageAspect=0;image=data:image/png,/9j/4AAQSkZJRgABAQAAAQABAAD/2wCEAAkGBwgHBgkIBwgKCgkLDRYPDQwMDRsUFRAWIB0iIiAdHx8kKDQsJCYxJx8fLT0tMTU3Ojo6Iys/RD84QzQ5OjcBCgoKDQwNGg8PGjclHyU3Nzc3Nzc3Nzc3Nzc3Nzc3Nzc3Nzc3Nzc3Nzc3Nzc3Nzc3Nzc3Nzc3Nzc3Nzc3Nzc3N//AABEIAJQAlQMBEQACEQEDEQH/xAAbAAACAgMBAAAAAAAAAAAAAAAAAgEFAwYHBP/EAEYQAAEDAgEGCgUKAgsAAAAAAAEAAgMEEQUGEiExQVEHExRTYXGBkaHRIjZSscEVIzI0QmJyg5OzdLIWJDNEVWOCkqLC8f/EABoBAQACAwEAAAAAAAAAAAAAAAABBAIDBQb/xAA1EQACAQMABQoFBAMBAAAAAAAAAQIDBBEFEiExURMUFSIyM0FScaFhgbHB0TSR4fAjQlMk/9oADAMBAAIRAxEAPwDuKAEAIAQAgKLKDKWjwb0HgzVJFxCw6hvJ2LdSoSqehoq3EafqaZXZbYvUEinfHSs3RsDj3nyV6NpTW/aUpXVR7thT1GM4nPfjcQqnfmke5bVSgtyNTqze9nhkmlkPzksjz95xKzwluMMsxZxb9EkHoQGRlfWRf2VXUM/DK4fFY6sXvRlrS4nup8qccpSDFiUxA+zJZ4/5ArB0KT8DZGvUW5m2YBwgxzSNgxqNsJOgVEd8z/UNnX7lUq2mNsC1SusvEze2uDmgtIIOohUy4MgBACAEAIAQAgBACAxVUzaemlnf9GJheeoC6lLLSIk8LJxWrqZKupkqZnF0sri53Wdi7UYqKwjiNuTyzc8HyFjlpGS4pNK2WRocI47DMvvO0qlUu2niCL1O0TWZMoMqsnZMCljcyQy00psx5FiDuPYt9Cuqq+JXr0HSfwNfLlvNIhKAQoSKUApKgHReDDG5J45cIqH34lufTk68y+lvYbW6+hULumk1NF+1qNpxZ0BUy4CAEAIAQAgBACAEBXZRG2AYl/CyfylbKPeR9TXW7uXocca8seHAXLTe29dhrKOOnh5Oz4ViNPidHHVUrw5rhpA1tO0HcVxZwcJYZ2YTU46yNP4TMTp3wU+HRPa+YScbJbTmAAgDrN/BW7ODTcmVLyaaUUc/JV8oiEoBChIpKgCkoSbDwdvLcr6INP0myA9IzHH4BaLnumb7bvUdmXLOmCAEAIAQAgBACAEBW5Ser+Jfwsn8pWyj3kfU11u7l6HGXLsnGBkskRJikfGToOY4i/csWk95OWjETpJ361IEJQCkoSKSgEJUAQoSbDweeuFB+Z+25aLnumb7fvUdpXLOmCAEAIAQAgIJsgK+sx3CqJ+ZU10LHjW0OuR2BbI0py3I1yrQjsbPH/S/Ah/fh+m7yWfN6vAw5zS4mOoyqydqIXwzVjHxyNLXtMbrOB1jUit6qeUiHcUmsNlTyjITm6b9J/kturcmvNsRyjIPbHTfpP8AJMXIzbEcoyC5um/Rf5Ji5GbYU1OQHN036L/JNW5Gbb4GmZUPwx+LvOCBgo8xtgxpAvbToKt0ddQ6+8qVXDW6m4piVsNYpKEiEoDYeDv1yw/8z9tyr3PdM323eo7M+oijdmvdYrh1LujTlqzlhnWVOUtqF5XB7fgsOkLbzfUnkp8BmTxPNmvF9y2U7qjUeIy2kOElvRlVgwBAJLI2KN0j3BrGi7iTYAJv2IhvG05plLlXUYlI+CikdDR6gRodJ0ncOhdOjbKCzLecytcubxHcawdCtFYUlAKSgEJUEiElAIShJBKAQuUAQlCRCUApKA2Lg69caDqk/bcq9z3TN9t3qOs1v1g9QXidI/qH8jv0ewYFRNpBWIPbRVJLuKedP2Su1o68cnyU/kVq1PHWR7l2SuafwiYi6nw+GgjcQ6pJL7ew22jtJHcVbs4ZlrPwKd5NqOqvE52Sukc4UlAISgEKgkQlAKShIpKAQqAIShIpKAQlAKoBsnB1640HVJ+25aLnumb7bvUdYrj/AFg9QXiNJP8A9D+R36PYMF1z8m4UlRkkgOLXAjWDcJGbjJSW9BrKwXcTw9jXDURdexpT5SCmvFZOa1h4OY5fVXHZQyRAm1PG1naRnf8AYLsWkcU88TlXUs1McDWiVZKwhQCFQSKSgEKEilAKSoAhKEiFAIUAqAFAN64KMMfNis+JOaRFTx8W0kaC92u3UB4hVLueIqJbtYZk5cDfqiTPme4arrwl3V5StKS3HepxxFIwkqsbBSViSQsQW2GPz6UD2TZeo0XU17ZLhsKNxHEzkuUkvG49XvO2dw7tHwXqaKxTRwazzUkVhK2moQlQSISgFJQCEoSKTpttOxAQWv8AZd3FY5ROGKWv9h3cUyidoha/2HdynK4jD4CZj/Yd3KMriMPgSIpHGwjeT0NKZXEYfA2HAMi8WxeRplgfR0t/SlnYWm33WnSfctNS4hD4s2woTn8EdTpqWlwXDo8Pw9uaxgtc6ydpO8leY0nf4Tgn1n7HZt6CXoYivNtl5CkqCRSsTIgqMgscIfZkrdgIXf0LPqTj8f79CncramcmxwFuM14Oyof7yvbUuwvQ85V7b9SvJWRgKSgEJQCnWhJvGTGQvKImVuNl0cZ9JtM05pI++dnV/wCKjXu1Hs/uXKNrrbZm6UtPheHM4uhooI2/5cYF+knauFW0tTzvcjpQtsLYsHo5XFzPgFo6Xj5WZ83DlcXNe5Ol4+Vjm7DlcXM+ATpeHlY5uyOWQ8ye4J0vDysnm74kctjBuIbHsUPTEfKyebviYpa2RwzWgNG8a1SraUq1NkOqvc2RoRW1nkJvrXNb8TekQSsMmRF1DZJF1jkkUqAe7Cifnez4rtaH/wB/l9ytc+BzTLGIwZTYgwjQXh46c5oPxXubd5pI81XWKrKQlbjUISgFJQk2vg7wVmJYm+sqGB0FJYtBGh0mzu19yq3VTUjhb2WbanrSy9yOiVUxkeWg+gD3rxd9dOrLUj2V7ndpU8LJgXPNwIAQEFQBSsSSCoySLdYkkEqCRSsWSQVGSRSsckkErHJJa4K35qRxGt1l6TQkP8U5cX/fqUbt9ZI0bhOpeKxOlqwDmzxFhPS0+TvBess5Zi0cO8jiSZpZKuFQQlCRSUB1Tg4jbFko+Vv0pJZHE9I0fBcfSM2lJ8F9jp2a6q9S2C8SdkEBCAglY5JIJUZJFJWOSRSVGQRdY5MiCVGQQSsckikqGyRSViSLdQSbBh8RhpI2nWRc9q9po6lyVtGL37/32nKrS1qjZV5ZYO7F8FkjhF6mI8ZD0kax2i47l06FTk558CpXp8pDBxx24gg7Qdi6xyhCUApKgHWODz1OZ+OX3lcXSnZn6fY6tn2V6lovGnXIuscgglQSKSsSRSVDZJBKxySQSoySQSsckikqMkikrFskUlY5JIKjJJnoYDUVLW29Fpu7qVywtncV1HwW1+n8mmtU1IZNiAsvbHKJQGnZVZEQ4pM6sw57aeqdpe1w9CQ7+g9KtUblw2S2oq1rZT2x2M0moyNyhheW/Jz5PvRyMIPjdW1cUmt5UdvUT3GA5JZQ/wCEz/7meanl6fmI5Cp5To+RdDVYdksKeugdDMHSEsda4BOjUuRpKSlCbXD7HRtItRSkj13XjcnWIJWOTLApKjIIJWOSR2QSyNzmRlwO0LfC1r1Y60I5Ri6kYvDZPJKjmneCy5hdeR+xHLU+JBpKnmXLHmF15H7E8tT4imkqeZd4KOj7v/m/YnlqfEg0dVzLu8KOj7vyP2J5enxI5FVcw7vCjo678j9hy9PiQaKq5h3go6Ou/wDm/b8k8vT4jx4bUvNnNDBvcVtpaIupvrR1fX8IxldU0tm0uKSmZTR5rNJ2uO1eltLSFtDVj82UKlR1HlmdWzWCAEAIAQGKp+ryfhKr3XcT9GZQ7SKa68lk6JBKxySKSsckkEqMkmaGslhjDGhlhvCu2+katCmoRSx/fiap0IzeWOcTn9mPuPmt3TNxwXv+THmsOJHypP7MfcfNY9NXHBfs/wAk81hxZHyrP7MfcfNR01ccF+z/ACOaQ4szUeITT1TI3hgBvqHQrVlpStXrxpySw8/T1Nda3jCDki1XoCmCAEAIAQAgBACAEBiqvq8n4Sq93+nn6Myh2kUl1486RCgkhY5JFJUEkEqCRCQsWyT2wYZJLHnvfmX1C1yuvb6HqVYKc3q58N5VncqLwlk81XTSUzgH6WnU4bVQvLOpaySltT3M30qsai2GTC/r8fb7ituiv1kPn9GY3PdM2BeyOWCAEAIAQAgBACAEAkzc+J7RtBC1Voa9OUV4pkxeGmUB0Eg69q8W9jwzqIgrAyIuoApKxbJwKSoJwLexBKjOHklo2eORr4w5pu0jRZe9p1IVIKcdzONJNPDK7Gnt4qNn2s6/YuLpypHk4w8c5LVonls8uEMLqzO2MFyqGhqblc63BfXYb7qWKeC+XrTmggBACAEAIAQAgBACArq+iLiZYRp2t3riaR0c5vlaW/xRao1sdWRVuuDY6OgrzssptNbUXltFJWOQLdY5MiCoySQoBkinliFo5HNG4Fb6V1Wo7KcmjCVOEt6JiimqpfQBe463E6llRoVrup1Vl+L/ACyJThSW0vaKlbTRBo0k6XO3r11laRtaeqtr8WcyrUdSWWelXDWCAEAIAQAgBACAEAIAQGGanimHzjAenaq1a1o11/kjkzjUlDcyprqSOnF4y7XqJXm9I2VO3WtBv5l2lWlLeeE7lyWWkQhJI0kdJUwWs0n4sxk8It6bD6fNz3BzzucdC9Rb6JtlHWkm/X+MFGpcT3IsI2tYM1oAA2BdeEIwWrFYRVbbeWOsyAQAgBACAEB//9k=;fontSize=6;strokeWidth=0.5;" vertex="1" parent="xtmQm8H3WPaShv8IGNw_-101">
          <mxGeometry x="19.91142241379305" y="11.023622047244096" width="25.059698275862065" height="24.892241379310338" as="geometry" />
        </mxCell>
        <mxCell id="xtmQm8H3WPaShv8IGNw_-62" value="&lt;span style=&quot;color: rgb(128, 128, 128); font-family: Verdana;&quot;&gt;AI/RUN API&lt;/span&gt;" style="text;html=1;align=center;verticalAlign=middle;whiteSpace=wrap;rounded=0;labelBackgroundColor=none;fontSize=6;strokeWidth=0.5;" vertex="1" parent="xtmQm8H3WPaShv8IGNw_-101">
          <mxGeometry x="12.887068965517113" y="40.73748031496072" width="40.301724137931025" height="15.748031496062994" as="geometry" />
        </mxCell>
        <mxCell id="xtmQm8H3WPaShv8IGNw_-102" value="" style="group;fontSize=6;strokeWidth=0.5;" vertex="1" connectable="0" parent="xtmQm8H3WPaShv8IGNw_-153">
          <mxGeometry x="301.07758620689657" y="220.15748031496062" width="66.07349137931035" height="56.69291338582677" as="geometry" />
        </mxCell>
        <mxCell id="xtmQm8H3WPaShv8IGNw_-68" value="" style="sketch=0;outlineConnect=0;fontColor=#232F3E;gradientColor=none;fillColor=#ED7100;strokeColor=none;dashed=0;verticalLabelPosition=bottom;verticalAlign=top;align=center;html=1;fontSize=6;fontStyle=0;aspect=fixed;pointerEvents=1;shape=mxgraph.aws4.container_1;strokeWidth=0.5;" vertex="1" parent="xtmQm8H3WPaShv8IGNw_-102">
          <mxGeometry width="63.07015086206895" height="40.732758620689644" as="geometry" />
        </mxCell>
        <mxCell id="xtmQm8H3WPaShv8IGNw_-70" value="" style="shape=image;verticalLabelPosition=bottom;labelBackgroundColor=default;verticalAlign=top;aspect=fixed;imageAspect=0;image=data:image/png,iVBORw0KGgoAAAANSUhEUgAAAOEAAADhCAMAAAAJbSJIAAAAYFBMVEX///9i2vxV2PxU2Pz5/v+87v1k2/xq3Pzc9v7n+f503vz///6i6P3j+P7U9P6w6/1/4PzE8P2Y5f2n6f30/P+H4vzL8v237f3J8f70/P7t+/6Q5P3R8/6W5P2T5fyE4vyHXrlhAAAOSklEQVR4nO1d6ZaqOBCWsNMICNKKOvb7v+WApCoL2VzxnpPvx51pwZiiKrUnbDYeHh4eHh4eHh4eHh4eHh4eHh4eHh4eHh4eHh4eHh4eHh4eKyC6HNq6betd/vAQw+VQnvtrGVcvnNerkF3JiP+K8Z8wOe/2949QlUVISDBh/E93ev0cn0HezFNri4BOsb+PDXmZzCMACGnfNNeHEId0XkDhNMX04Pz93yYMFiDp4+L+atT4+DkKJzbEPy5fr1KypO82wPbdM3dEzCYoUDix4Wj9dtZo6JvwHYsxYxI2ahqZDYWZD/uzQj4Zig/RYAYSRUhRnhtCJJVRGr4byw9kRHFmSieMP0aGHkxGd/MHp10b8ESSNNN89SQKKAmL7jcfxgtZARfC6FN06AFzSQfuw2PBzz2sld/cifSlNbfqSnqNdO+dvQNgmskgfp713PxJs1QZ0Vl4CH+S/TzTC8kb5+6Ghs7wsrgiKknZAdimwhNYCHIEl5YDfxYnqgr/VBcvHBWhKG4xT1+q8n/gjv4d074DB+pIanw05gsE5Mx93vI2Qq0vgYlriykV0lR3PWcqhxSwVCNOD5FG56S39AadJv4Q6DwNXnLHqElm658nnITqDV5FxcPdvX0HcjqLX+0dP5uMETTyY/ybY2BhcsuoJJ8Nt7wfl3m24WC6KWKGI9xtdmwJhmZjR52ldT03qkls2qBDqghnBQ2cv6Gk971sto/gOs+hsd33u4wf7OEf1dPhqgHGn1XRUPDaZSawt3qc9LGsq0znpULUfqeAQfBUg9AUcVBQlUTsMeYbkdpUPgfeD3WKikBR756c5FNI7plDwyi06JgZJ3LH83sTonso5IMlp0nvv8DkR3eslIp3RZ2kdPi3KMzEfEzo8JWvoDBwldJcMhYucd83SCl1vO26IEqRMvwfazL0GzQN6FLrHFCNkqpEGm2+yvYbrIWjxb9i6mw0E+iHa4NKiuobLD7ljcVBwUh/1i+Yv7G4s+C1rVpq6+epmnMp6HbTrGIEOWRLeYlmatatXtBMgzGEy4FAzH6j3jEvYMr68IFa5OtAUxTEcMtITiIL5QmUTWiKG+jjWzc+pJ6YKfeOajTlbtqC/ScGBjUOAvJ2VNalgsaBCAHvxUHbUNYrU7EfQx5aTBZmZWQfBvSroTRFv7putRvStrppbhdaBnGFpahz37bf4LRBCKwzFxHmLvpNNJzyfMsBHTmNb0PX+NqFC1oiEtyTW/F+v62OMYt501vxUwBeK3JlMpKm2sKV+xXociIcH07ZoS2SgMjFYD1IkBRNe6hyQSXTLFewco20EjyrfFc2iTtlEp0kJMW5rmb78QMSvnYpH2K4elPVf0H4GG0inSRt4yzaDF+hSjeoaoJHOacjs6C6dt3ocEJrnuvzxK7dNbS/i8KFGnX4yu+amuZUFw6THQlK0uLvfG3LrqvrQ113Zdme+6ZIbxetX+936xA57BqtYuHn3QyG0lu0ZwV9PW8JaT9v9qteM59J5ZeHqse/jaXFDQbRo3f2W1+LIFSPS4Luk5Y/igtVN9rIhKbcbSeRYv6oVRXukdm3ofNLp7Y6o7R+ipFDqXzMSR9vcb1gr5u1ssiy/ZwDmnP+Hk9k+gnTcWo14sm7pgdkoUt1s1eMcNKsgaR+s9YZSlk8iSLCxem5RT4DMJFLSqICkikl702f1tIPjmsjHmoizw9tpIOMTgByOI5TMU+jy0JmSOpUm3sEUrfyqFfiaUrQPYIuMqoZ58AHVh2GmcDWySmNdo1EZPj3ntK+0Kk1MhObJalrih0FMF/3zklIOGK8D6lSmu7OO7mT/w2BfyYwMCw4P4OGqiCmWCi8oyMNGqcSOipVPoT9SCW2S5PGZmfvxYEfn/wJaU5JTDHaUC6XSK0LE4HtkaovUbJSL072X7mxw15O48L0bssOLcVSzRyvRZokadPJA/wwo3gTdRBSyfwNnVBHdugAcUXE9cIqml2xi3BiQIQ3Stogb9FTIWFykFkpKJtGPcRIY8s/6tcFx1wHZaLynKCCPZlsbNCW0oedpCrkgSALPvUHgeJRGZucf9rXFxHIPChd+jbFpcF8EYFJ+2WYJY8FRrRh1RC1bd9xY7yGxD82Od3iBgZdsduOL2v+LKv4t1vEJCs2dmf4wDS/NjA2vqSVn/mYvVZBo43HSpqQIYvkpjY6oLiO4If+oKbxn3ZOrLk6fN6/YVUiU6EXYgm0FAK3lYFCsNCViTiIyRxcmFw9XV2EuYfxxrARbSctM6FeFC/WIHJAmN5Rus80rS3e9WwvP9opc2QmyaGYIDOkYsQOZ2FbmMUxw6X9rOUHibGtaDHlJjzXg4FC0eIdQ+0lCT9ck5VjAKNBZbBMArbC5ISYQt6wZ2AUf6u1gR0rkE8lcGbWJNZ0kqhNBBZqonUKsSrBNUs7CB/sOX7Ke6NC6tDQy2m3cKu5oGKi6L1hTdHaTrS5Q8AMgO5Ah8z6D5ucqN1qM4Xi0KiTncoV8JN3UCSD7ttyCvRYZkV0zUuZKJFCSRhh0omLmTsr5eAuUAodJGbDbbUUPzYXNuQgEjjuZOXAf30ip0G1hBMPUUtIgleapVTDQydXhT68p5qmlHNWgylTUc+bzOFiaFy0TgrS4qE7gXZXOujSLdHM2qxLxW6qiLti/8lFku8RQJLJbg95hSIw8R57yG/ItCtTyAQ8FUHBY7J2XkU8HY/6NAM/iJUzmEd+rkrs6jeIq+2svyRRKKhBQSnZtjttX+OX4iqyCY10HsYjscXPnmivLYENnE9v/MIEtpHETKJCMGf6+FBkoWQ5jUYA98KRp7eY5hjjmxY0TA5/V3iwbjE+qqRUdZXHzyZjgzxfbcPTdUw7BuU8TSIsjkFDoPj4oVmxOVqtAM7pVulwOgTHBJaETXQiDw5zi8wUvTF1rk1U0FidqWCDuC7w486beNHZJ2yjss70QyFly0RN9PROy2OEwqtyjEk1tsZfu7A61MvOBeHyk4kqezdwYqU7lERyT0kgpXv5nDfoLZXHv+e3Sr/u4BN+1GYpO1BImcw3mn65Rz2/soI4CQ6ylyTULUDXLFcFH20+F9xL4Mv34VmmUSik4BwWajzalUUSJOlftyx+wEqey6wQFsliGvNV9pcW9H/EhCgRaQRLTfUnZoXvMcVQoJtpOnGlHkS04wvBJH11S18u1FZIw9WAj2K1D9In9/j8cg2YukjchpOTWOgOz2/oOhHrY1yvGag+WFqsj8t1aAi9UPCgvwNUSXaW2qTe03KylUpkJClvkiJv+mHtNK7pBfBq0cTkvDbddpKtCc9v2woVSy0RQVjUWcZp0hmobBxrChgHMQ0E2nSbjeRJD7Z463a9etG/gwxj2gerGG7qDnv3OCfnQOTxUXDevaU0qscfCRTg9R6rIrn0hOC65TS0rq8teHdf24RI7v2akZQxmyGGiw5yiuUt9FCi7NArfuFD9N1w1PWXFmV8Uz6srmqVKQw8bkIwVIc2VXcLf6b3ErFtlYy8rZvieshYj7DtqeOd9aXuNcQFn+yfRURHuaFOIBPRa7qg5kEizlnSd7WTZKVDd0+xnkie3CRt+nNbll1d14fD+E/Xle21b267o+zfD65r7uYe9EkYFa2PbLhYe9MMxHL3TPourH0iHfgv7VGnAh8jKyyuEG68Mgp8BLPbfTMK+0tXPL/Da1LGXTWw/YdrHw1JazcYrOW/s86/n9Dbd5pul1HdC5UQt+rl20CTFvL5rKcq7treVLGQaEuatosrYRRw/dY9rw0Sxppgl52clPCadNotyofr1UllMiHQX3mrM6386lLrfNIm2p/ybVaNyLb5KcK8vDbnCVp63e3qc+Cv13egLpa5z0J7Rb5j3X2yczuE/oxH1hQtueCYZtZnc1rrHZ/A/JwNW0ew/Uw8xgQTxInea8Uo+HXTfQDzYgoNd7B9DCfFh6bjWzBwXHOfLKRKTfewnQxoDH6dwkdISz7XmvckzMaCAs0i3Ib1VHOTByTcVj0oKjMbixmsfDgnHLfS3zpgb/uah31RQbL027A9s5OPiRV44dQhFeBba8ZPR4s5pGDr7rrZs0ydzR2D6GJNkz/Hv/aHzNKfJXsdhjXwe0mL7JM4OFKo6N9zOP0SaooOTWdvw+x3uqS2W4lEF8ZAGm5Nt41S6KLspPeRuPDlH6NQ6Kpx6/P5IgrvPinZ7Qy2vy+g0FnTjPjleOimO+CRrPmuGWotXAxWLOw5cdo4CEXENa3FHOK79LVIhzGQxiFgAIu/pk9DvTYrR6J+YQ9Ta4IJ/dI1j9mlHqctCj+lMn2BQ8jwFbEFHGZmvovfWEhYuGhbX7/fEB/CYdBGieOX4ChxbA+e5Q0Q9VdkMRqrLhBfXTUJXMV9YBJAMBbrZqI6WwgsbuyiLwtiH5jecwHfXNPxZvzQ9FwITUbKFz4Ra1vuuieW47sD1LMQtxfwNuXKvRayVa9G7KF/9Skmd4J6x6oC0U4om4ai48Ptwlh0096A6aon91M8Db57VsBOakaThTHj39ylOBgJs/5rV7kjrnuZ+/QgdsCpzmMQ/BySSnxkZ0ivLKSsKZMVwYbqLDfbqfkgdDmQoOYsOyNwXU06gfVa9r/T2cFlI3cthIo3WNLvCm86nlqqjtNJu6eYSfj6LOQ7azXFbZO230n3EhKO4LTQ2n0KN6jcasbAq7nbdbiqWuQQa58iPCNX8A1YoDhzSUameik34Dte6iy/B4jRV7iV4C+6g15XP2IXkalaokjjHtdVyperJ19D4O0MLrnLvb1veot2TqLz5tZCXoIeHdVhUFb3zy6qygS6UEhIypVPm1chq9trfy0P1eN7BU6XQ9n25/LwRfLp4eHh4eHh4eHh4eHh4eHh4eHh4eHh4eHh4eHh4eHh4eGM/wEHDIMncXBp4wAAAABJRU5ErkJggg==;fontSize=6;strokeWidth=0.5;" vertex="1" parent="xtmQm8H3WPaShv8IGNw_-102">
          <mxGeometry x="19.461422413793084" y="6.788818897637796" width="27.155172413793093" height="27.155172413793093" as="geometry" />
        </mxCell>
        <mxCell id="xtmQm8H3WPaShv8IGNw_-103" value="" style="group;fontSize=6;strokeWidth=0.5;" vertex="1" connectable="0" parent="xtmQm8H3WPaShv8IGNw_-153">
          <mxGeometry x="132.75862068965517" y="296.06299212598424" width="66.07349137931035" height="56.69291338582677" as="geometry" />
        </mxCell>
        <mxCell id="xtmQm8H3WPaShv8IGNw_-73" value="" style="sketch=0;outlineConnect=0;fontColor=#232F3E;gradientColor=none;fillColor=#ED7100;strokeColor=none;dashed=0;verticalLabelPosition=bottom;verticalAlign=top;align=center;html=1;fontSize=6;fontStyle=0;aspect=fixed;pointerEvents=1;shape=mxgraph.aws4.container_1;strokeWidth=0.5;" vertex="1" parent="xtmQm8H3WPaShv8IGNw_-103">
          <mxGeometry width="63.07015086206895" height="40.732758620689644" as="geometry" />
        </mxCell>
        <mxCell id="xtmQm8H3WPaShv8IGNw_-74" value="" style="shape=image;verticalLabelPosition=bottom;labelBackgroundColor=default;verticalAlign=top;aspect=fixed;imageAspect=0;image=data:image/jpeg,/9j/4AAQSkZJRgABAQAAAQABAAD/2wCEAAkGBwgHBgkIBwgKCgkLDRYPDQwMDRsUFRAWIB0iIiAdHx8kKDQsJCYxJx8fLT0tMTU3Ojo6Iys/RD84QzQ5OjcBCgoKDQwNGg8PGjclHyU3Nzc3Nzc3Nzc3Nzc3Nzc3Nzc3Nzc3Nzc3Nzc3Nzc3Nzc3Nzc3Nzc3Nzc3Nzc3Nzc3N//AABEIAL8AywMBIgACEQEDEQH/xAAcAAEAAQUBAQAAAAAAAAAAAAAAAgEDBQYHBAj/xABAEAABAwMBBgEICAQFBQAAAAABAAIDBAURMQYSIUFRYXETIjJCUoHB0QcUI2KRobHwFVOC4TNDcqLxFiREstL/xAAaAQEAAwEBAQAAAAAAAAAAAAAAAwQFAgEG/8QALhEAAgIBBAAEBAUFAAAAAAAAAAECAxEEEiExBRMyQRQiUWGBkaHh8FJxscHR/9oADAMBAAIRAxEAPwDe7N9Iluqy2K5RvoZTq/O/Gf6tR7wFuUEsc0TZIntkjcMtcw5BHivnhe+1XevtE3lKCqfD7Tc5Y7xbotSzQxfMHgox1TXqO+ItDsP0h01QWw3iMUsn85uTGfdq38/ct4p5Y5oWywva+Nwy1zSCCOxCz7Kp1vEkWoWxn6WXERFGSBERAEREAREQBERAEREAREQBERAEREAREQBERAfOikFQaDrzUgvozGZUfqsrZL7cLLLvUUx3M5fC7ix/u691i+aqF44qSwzjLXKOvbO7ZUF3DYZcU1Wf8t7vNcfuu5rZmr5+aOY1C27ZzbSroCyCuJqaUcM5y9o7E6+BWddofev8i1VrdvFn5/8ATqiLyW24U1xpm1FHKJI3dNQehHIr1rPaaeGaKaaygiIvD0IiIAiIgCIiAIiIAiIgCIiAIiIAiIgPniWKSnnkgmaWSxOLHsPqkHiFRb59KFh8lKy9U7RuPwyo7O9V3hy/BaE0nnqt6m1WRUkZFsHCWCYUgqBSUpCyoUhrlRCkEI2ZC1XWqtlSJqSUxO0JGhHQjmF0nZ7aumue7T1IFPWEcG581/gevb9VygK/BIGHBOAeahuohaue/qK7rKHmHX0O6s0PipLn+ze1slNuUt1e58OjZzxLfHqO/Lvy3yB7JYw+Jwcx3EOacgrHtpnU8SNnT6mu+OYP8C4iIoiwEREAREQBERAEXiulyo7XTmor6hsMY5nU9gNSfBaLc/pJdvFtqomkcpKk6/0j5qWumdnpRzKcY9nR0XI/+v7652Q+mHYQ8P1yr8H0g3pjh5RlHJ2Mbgf/AGU3wVpC9TBHVUWi0H0iQPIFfQyxct+J4ePwOPyytio9o7PWY8jcIN4+pI7cd+BwoZ0Ww7idxurl0zMIoMc1zctII6gqy6tpWkh1TCCNQZAoiTKFwpYK6klpalgfFKwtc09CuGXy1zWe6TUE+SYzlj/badHfvnld8Wq7f7P/AMZtvlqZm9W0oLowNXjm35d/FWtLd5csPplfU1b45XaORNdyVwDCsaaDHZXGvxwWwmZTZdCkFEKQXpwySqCqBSQ4Zfp5Q1wacZzkEjmtk2ev09nk8nuukpHHzos6Hq35c1qvhqvbSv3xuv1C8lCM1tkivJyql5lbwzslvrIK6mbPTSB8bufMdj3XpXKbPdai1VHlqZ2Wk+fGTweP3z/uujWq6U90pvLU5I9ph9JpWNqNNKp59jc0WuhqFtfEv50ZBFQKqrGgEREAWK2jvVPYrc6rqMuPoxxtODI/kB81kpHNa0ueQGgZJK4ptpfnX68OfGT9TgyyAciObvEn8sKfT0+bL7HE5YR4Ltdqy81rqqtm33eozGGRjo0LyN0Ci3TTB5qbVsxSXCKcmXGjU8uqsR3ClfOYWT/aDhjr71ec0uaQNSDx6LW6S0VorGNMYaxjwfKHTA6KO2ycGtqyRxjGSe5m1jpz5q4AoBe62W+puVYyno4y+V2uNGjqeWFO2ksspNNvCPMGg6gZ8FkorNc5I2vioKksIyCISuhbP7KUVpa2WUCoqx/muHBp+6OS2DKoWeIJPEEWa/DdyzN4JqLs5GFJFlmucq+kTZv6jVG7UjcUtQ77YN0jkPPwd16+K0vkvoKsp4aunkp6mNskUrS1zHaELie01ilsFydTvLnQuBdBIT6bOmeo0IWnpb9y2PtGVq6Nr3rpmLY4t4clfYQ7iF5+ZyqjhxGqup4M9yweoKQXnZKR6Y96vtc1wy05XSeRlMmpxu3HBw1CgFIaocNZ4ZlGkFocNDxC9durqi31LailcQ8ajk4dCOixtE/ea5nsr1N0XrSawzPe6uXDw0dLst4gutOHx+bM0faRHVvzCygXKKSpmpJ2T07yyRp9IaeC6BYrzFdIccGVDR58efzHZZGp0rr+aPR9HoPEVetlnq/yZhRdr/ZBx8FrW2e1UFgpfJRbslfI37OM6MHtu7fqeCqxg5vCNRtJZZhvpL2kEEBs1I7Mszf+4IPosPq+J/TxXMhqrk8sk80k08jpJXuLnvdqSeqgFtU1KuO1FaTzyTaptUQptUqK8mTCmFEaq40dTwPBdFaZfpoJamaOCBjnyyODWNaNT+/iuubNWOGyUAibh1Q/BmkHrO6eAWvfR1ZQyI3advnvy2nHRvN3v0/Hqt6bpwWVrL9z2R6Rd0lKS3vsDRVRFRLwREQBYraOy099t7qSo812sUo1jdyI+I5hZVF6m08o8lFSWGfP9woam21stJWs3JozhwGh6EdsKwux7Z7Nx36j34t1lfCPsXu0P3T2P5H3rj80MtPM+CeN0csbi1zHagrXouVsfuYGpodMvsQVRw4jVUQKYptl1s7m8HDKutnYdeC8yqEy0c72jJ0UrDMAH53gR8fgsmMcjla5D/jMXvavd5Tvn8xltOJwB3Uoqz6rKyWCctlYcgt5fvosSFVeOeeMFbzWnlG0Xfb+sjoGtoqVrJy3Ek7jkNPZvz4eK59PPNUzPnqZHSzSHee9xySe6zOMjiOH6rxVFBnL4iAfZPBR1whDpG9o/F1NKN75+pj+akEcxzHYe0g91UKY2G01lEwrjVbarrBk4AyV0QTZJoWY2dtD7xcoqcf4Wd6R3stGvyWPigPAv4Y446rq2x1o/hltEkzd2onw5+fVHJv76qtqL/Lhx2VKZLU3eXDpdv8A0Z6njZDCyKJoaxgDWgcgFcVG6KqxjfQREQBERAEREBF374rU9tdlG3mI1dG0Nr2DTQTDoe/Q+48NNuUTrhdQm4SyjiyuNkdsj58kY+KR8cjXNe04c1wwWnphRC6ztjsjHeGuq6ECOvaOI0EwHInr0P8AyOVTRSwSvinjdHKw4exwwQe4WtVdGxcHzup08qZYfRBVCoqhSlNlyEfas8V7gvJSNy8nsvYF4UdQ/mKhVRF4VQiIvDwFrXDDt3+pWHUkJPokeDuCvovSWu+2v0SaLLaSIcRvH35V1rGs4NaAOyqpwxPnlZDE0uke4Na0akngjZ1K+63iUmzPbG2j+JXHy0rM01OQ52dHO5D4ldNbovBYbcy122Ombgv9KRw9Z51P76LIrJus3yz7H2nh2k+FoUX2+X/PsERFEXwiIgCIiAIiIAiIgKLXtqdlqW+xb4AhrWjzJsZ9zhzH6LYkXUZOLyjiyuNkdsllHBblbau11TqWuiMco045DhyIPMLx4x+i7vd7XR3amNNXwCWM6HQtPUHkVy7aPZZ1jqmFlQyWCTO4DwkGOo5+K0atTGfEuGYGr0MqczjyjD07dxnjxV8KI7jCkFYZ85N5fJUoiLwiCIiAIiIBy4Yz3W6bA2jekNzmb5rcshzzPN3wHvWtWS2S3a4MpYiWtPnSP9lvM+PzXXKWCOmp44IGhkUbQ1rRyCq6qzatqN7wXReZPz5dLr+/7FxuiqiLPPrAiIgCIiAIiIAiIgCIiAIityvbG1z5HBrGjJJOgQFq4VcNDSyVNQ7djYMk8z2Hdcqu1wmuda+pn4E8Gt9lvILJ7TXt12qQ2LhSxnzAfX+8VgXZ45RMydXfve1dItuGSoaK4VAqzXZKPRk20V2dooioVFWo2t9lKWiXsyaK2SolSqWSJ6XHuXSQNVRhfNIyGCMySPcGtaBkk8v38lZ4ZOfwXRtiNnPqMbblXMxVvH2bHaxA/E/ovLLFXHLLWk8P86zavxMtsvZGWWgDHHeqZMOmf36DsFmxojdFVZUpOTyz7GuuNcVCK4QREXJ2EREAREQBERAEREARFaqJo4InSzPayNoySTjCAlI5rGlzyA0DJJ5LQtp9oHXBxp6QltK3U/zT8lTaK/yXEmCmDmUoPEHgZPHt2WAcoXZl4Rn6i/PyxLRVtyulWypImfItlRKk5RKniRSIlRKkVEqzEhkRKgccSdMKYBc5rACS44aBxJPQLfdldkhTuZX3ZgMuscBGQw9XdT06eOMSSsUFlntOnnfLbEs7F7LEeTuVzjw4YdDAR6P3nDr0C3tuiM0UlQsm5vLPo9PRCiG2IREXBOEREAREQBERAEREARRkc1jS55AaBkknRa3dtpWsBitwDnaGVw4DwHNcTsjBfMeSko9mXutzp7cwOndlxHmxj0nLRrvdai5yh0x3YgfNibo3+6888r5pHSSvL3k8XOPEqyVTlc5v7FK21y49i07r1Voq65Wiu4FSRAq0VdKtFWIkMi25RKmUiiknmbHDG+SQ6MaCSfcFYiQstFei326ruc4goonPcfSI0aOpOi2azbETzES3Vwhj/ktIL3eJ5LeaCjpqCnEFHC2GIH0Wj8+6kdqj0WqdBOzmfC/Uw2zmzFNaAJpS2asxxkI4N7NHxWwt0VUUEpOTyzYrrjXHbFYQREXh2EREAREQBERAEREBCR7Y2lz3BoHrHksNXbQQRAtpQZ3jno1RrbJU1BJ+umQ8hIDwWOl2erW6eSeez/7KhddqOowx+py8mPr6+prnAzvyBoxvBo9y8LtTnVZV9kuI4/Vf97fmrJs1yP8A4v8Avb81TULG8yTK8kzFnRW3LLCxXR/o0p8fKM+auM2Yuch4siZ/qk+SnhXL6ELhJ+xgCrbltcWxtS4/b1cUf+hpd8l7oNjqFrgaiWeXtkNB/Dj+atQrkc/D2S9jQXEDjleyjstyryDS0j3NPrvG638T8F0ils9uozmno4mu9otyfxK97Tw4Kwo4O46L+pmlW/YfjvXKpJH8uH/6PH8AFtNBbqO3sLKOnZECOJaOJ8TzXtRdFquiFfpRQKqIhKEREAREQBERAEREAREQBERAf//Z;fontSize=6;strokeWidth=0.5;" vertex="1" parent="xtmQm8H3WPaShv8IGNw_-103">
          <mxGeometry x="19.68146551724137" y="11.653543307086615" width="25.494181034482754" height="23.987068965517235" as="geometry" />
        </mxCell>
        <mxCell id="xtmQm8H3WPaShv8IGNw_-104" value="" style="group;fontSize=6;strokeWidth=0.5;" vertex="1" connectable="0" parent="xtmQm8H3WPaShv8IGNw_-153">
          <mxGeometry x="301.23168103448273" y="296.06299212598424" width="71.83659482758618" height="69.68055118110232" as="geometry" />
        </mxCell>
        <mxCell id="xtmQm8H3WPaShv8IGNw_-58" value="" style="sketch=0;outlineConnect=0;fontColor=#232F3E;gradientColor=none;fillColor=#ED7100;strokeColor=none;dashed=0;verticalLabelPosition=bottom;verticalAlign=top;align=center;html=1;fontSize=6;fontStyle=0;aspect=fixed;pointerEvents=1;shape=mxgraph.aws4.container_1;strokeWidth=0.5;" vertex="1" parent="xtmQm8H3WPaShv8IGNw_-104">
          <mxGeometry width="63.07015086206895" height="40.732758620689644" as="geometry" />
        </mxCell>
        <mxCell id="xtmQm8H3WPaShv8IGNw_-77" value="" style="shape=image;verticalLabelPosition=bottom;labelBackgroundColor=default;verticalAlign=top;aspect=fixed;imageAspect=0;image=data:image/png,/9j/4AAQSkZJRgABAQAAAQABAAD/2wCEAAkGBwgHBgkIBwgKCgkLDRYPDQwMDRsUFRAWIB0iIiAdHx8kKDQsJCYxJx8fLT0tMTU3Ojo6Iys/RD84QzQ5OjcBCgoKDQwNGg8PGjclHyU3Nzc3Nzc3Nzc3Nzc3Nzc3Nzc3Nzc3Nzc3Nzc3Nzc3Nzc3Nzc3Nzc3Nzc3Nzc3Nzc3N//AABEIAJQAlQMBEQACEQEDEQH/xAAbAAACAgMBAAAAAAAAAAAAAAAAAgEFAwYHBP/EAEYQAAEDAgEGCgUKAgsAAAAAAAEAAgMEEQUGEiExQVEHExRTYXGBkaHRIjZSscEVIzI0QmJyg5OzdLIWJDNEVWOCkqLC8f/EABoBAQACAwEAAAAAAAAAAAAAAAABBAIDBQb/xAA1EQACAQMABQoFBAMBAAAAAAAAAQIDBBEFEiExURMUFSIyM0FScaFhgbHB0TSR4fAjQlMk/9oADAMBAAIRAxEAPwDuKAEAIAQAgKLKDKWjwb0HgzVJFxCw6hvJ2LdSoSqehoq3EafqaZXZbYvUEinfHSs3RsDj3nyV6NpTW/aUpXVR7thT1GM4nPfjcQqnfmke5bVSgtyNTqze9nhkmlkPzksjz95xKzwluMMsxZxb9EkHoQGRlfWRf2VXUM/DK4fFY6sXvRlrS4nup8qccpSDFiUxA+zJZ4/5ArB0KT8DZGvUW5m2YBwgxzSNgxqNsJOgVEd8z/UNnX7lUq2mNsC1SusvEze2uDmgtIIOohUy4MgBACAEAIAQAgBACAxVUzaemlnf9GJheeoC6lLLSIk8LJxWrqZKupkqZnF0sri53Wdi7UYqKwjiNuTyzc8HyFjlpGS4pNK2WRocI47DMvvO0qlUu2niCL1O0TWZMoMqsnZMCljcyQy00psx5FiDuPYt9Cuqq+JXr0HSfwNfLlvNIhKAQoSKUApKgHReDDG5J45cIqH34lufTk68y+lvYbW6+hULumk1NF+1qNpxZ0BUy4CAEAIAQAgBACAEBXZRG2AYl/CyfylbKPeR9TXW7uXocca8seHAXLTe29dhrKOOnh5Oz4ViNPidHHVUrw5rhpA1tO0HcVxZwcJYZ2YTU46yNP4TMTp3wU+HRPa+YScbJbTmAAgDrN/BW7ODTcmVLyaaUUc/JV8oiEoBChIpKgCkoSbDwdvLcr6INP0myA9IzHH4BaLnumb7bvUdmXLOmCAEAIAQAgBACAEBW5Ser+Jfwsn8pWyj3kfU11u7l6HGXLsnGBkskRJikfGToOY4i/csWk95OWjETpJ361IEJQCkoSKSgEJUAQoSbDweeuFB+Z+25aLnumb7fvUdpXLOmCAEAIAQAgIJsgK+sx3CqJ+ZU10LHjW0OuR2BbI0py3I1yrQjsbPH/S/Ah/fh+m7yWfN6vAw5zS4mOoyqydqIXwzVjHxyNLXtMbrOB1jUit6qeUiHcUmsNlTyjITm6b9J/kturcmvNsRyjIPbHTfpP8AJMXIzbEcoyC5um/Rf5Ji5GbYU1OQHN036L/JNW5Gbb4GmZUPwx+LvOCBgo8xtgxpAvbToKt0ddQ6+8qVXDW6m4piVsNYpKEiEoDYeDv1yw/8z9tyr3PdM323eo7M+oijdmvdYrh1LujTlqzlhnWVOUtqF5XB7fgsOkLbzfUnkp8BmTxPNmvF9y2U7qjUeIy2kOElvRlVgwBAJLI2KN0j3BrGi7iTYAJv2IhvG05plLlXUYlI+CikdDR6gRodJ0ncOhdOjbKCzLecytcubxHcawdCtFYUlAKSgEJUEiElAIShJBKAQuUAQlCRCUApKA2Lg69caDqk/bcq9z3TN9t3qOs1v1g9QXidI/qH8jv0ewYFRNpBWIPbRVJLuKedP2Su1o68cnyU/kVq1PHWR7l2SuafwiYi6nw+GgjcQ6pJL7ew22jtJHcVbs4ZlrPwKd5NqOqvE52Sukc4UlAISgEKgkQlAKShIpKAQqAIShIpKAQlAKoBsnB1640HVJ+25aLnumb7bvUdYrj/AFg9QXiNJP8A9D+R36PYMF1z8m4UlRkkgOLXAjWDcJGbjJSW9BrKwXcTw9jXDURdexpT5SCmvFZOa1h4OY5fVXHZQyRAm1PG1naRnf8AYLsWkcU88TlXUs1McDWiVZKwhQCFQSKSgEKEilAKSoAhKEiFAIUAqAFAN64KMMfNis+JOaRFTx8W0kaC92u3UB4hVLueIqJbtYZk5cDfqiTPme4arrwl3V5StKS3HepxxFIwkqsbBSViSQsQW2GPz6UD2TZeo0XU17ZLhsKNxHEzkuUkvG49XvO2dw7tHwXqaKxTRwazzUkVhK2moQlQSISgFJQCEoSKTpttOxAQWv8AZd3FY5ROGKWv9h3cUyidoha/2HdynK4jD4CZj/Yd3KMriMPgSIpHGwjeT0NKZXEYfA2HAMi8WxeRplgfR0t/SlnYWm33WnSfctNS4hD4s2woTn8EdTpqWlwXDo8Pw9uaxgtc6ydpO8leY0nf4Tgn1n7HZt6CXoYivNtl5CkqCRSsTIgqMgscIfZkrdgIXf0LPqTj8f79CncramcmxwFuM14Oyof7yvbUuwvQ85V7b9SvJWRgKSgEJQCnWhJvGTGQvKImVuNl0cZ9JtM05pI++dnV/wCKjXu1Hs/uXKNrrbZm6UtPheHM4uhooI2/5cYF+knauFW0tTzvcjpQtsLYsHo5XFzPgFo6Xj5WZ83DlcXNe5Ol4+Vjm7DlcXM+ATpeHlY5uyOWQ8ye4J0vDysnm74kctjBuIbHsUPTEfKyebviYpa2RwzWgNG8a1SraUq1NkOqvc2RoRW1nkJvrXNb8TekQSsMmRF1DZJF1jkkUqAe7Cifnez4rtaH/wB/l9ytc+BzTLGIwZTYgwjQXh46c5oPxXubd5pI81XWKrKQlbjUISgFJQk2vg7wVmJYm+sqGB0FJYtBGh0mzu19yq3VTUjhb2WbanrSy9yOiVUxkeWg+gD3rxd9dOrLUj2V7ndpU8LJgXPNwIAQEFQBSsSSCoySLdYkkEqCRSsWSQVGSRSsckkErHJJa4K35qRxGt1l6TQkP8U5cX/fqUbt9ZI0bhOpeKxOlqwDmzxFhPS0+TvBess5Zi0cO8jiSZpZKuFQQlCRSUB1Tg4jbFko+Vv0pJZHE9I0fBcfSM2lJ8F9jp2a6q9S2C8SdkEBCAglY5JIJUZJFJWOSRSVGQRdY5MiCVGQQSsckikqGyRSViSLdQSbBh8RhpI2nWRc9q9po6lyVtGL37/32nKrS1qjZV5ZYO7F8FkjhF6mI8ZD0kax2i47l06FTk558CpXp8pDBxx24gg7Qdi6xyhCUApKgHWODz1OZ+OX3lcXSnZn6fY6tn2V6lovGnXIuscgglQSKSsSRSVDZJBKxySQSoySQSsckikqMkikrFskUlY5JIKjJJnoYDUVLW29Fpu7qVywtncV1HwW1+n8mmtU1IZNiAsvbHKJQGnZVZEQ4pM6sw57aeqdpe1w9CQ7+g9KtUblw2S2oq1rZT2x2M0moyNyhheW/Jz5PvRyMIPjdW1cUmt5UdvUT3GA5JZQ/wCEz/7meanl6fmI5Cp5To+RdDVYdksKeugdDMHSEsda4BOjUuRpKSlCbXD7HRtItRSkj13XjcnWIJWOTLApKjIIJWOSR2QSyNzmRlwO0LfC1r1Y60I5Ri6kYvDZPJKjmneCy5hdeR+xHLU+JBpKnmXLHmF15H7E8tT4imkqeZd4KOj7v/m/YnlqfEg0dVzLu8KOj7vyP2J5enxI5FVcw7vCjo678j9hy9PiQaKq5h3go6Ou/wDm/b8k8vT4jx4bUvNnNDBvcVtpaIupvrR1fX8IxldU0tm0uKSmZTR5rNJ2uO1eltLSFtDVj82UKlR1HlmdWzWCAEAIAQGKp+ryfhKr3XcT9GZQ7SKa68lk6JBKxySKSsckkEqMkmaGslhjDGhlhvCu2+katCmoRSx/fiap0IzeWOcTn9mPuPmt3TNxwXv+THmsOJHypP7MfcfNY9NXHBfs/wAk81hxZHyrP7MfcfNR01ccF+z/ACOaQ4szUeITT1TI3hgBvqHQrVlpStXrxpySw8/T1Nda3jCDki1XoCmCAEAIAQAgBACAEBiqvq8n4Sq93+nn6Myh2kUl1486RCgkhY5JFJUEkEqCRCQsWyT2wYZJLHnvfmX1C1yuvb6HqVYKc3q58N5VncqLwlk81XTSUzgH6WnU4bVQvLOpaySltT3M30qsai2GTC/r8fb7ituiv1kPn9GY3PdM2BeyOWCAEAIAQAgBACAEAkzc+J7RtBC1Voa9OUV4pkxeGmUB0Eg69q8W9jwzqIgrAyIuoApKxbJwKSoJwLexBKjOHklo2eORr4w5pu0jRZe9p1IVIKcdzONJNPDK7Gnt4qNn2s6/YuLpypHk4w8c5LVonls8uEMLqzO2MFyqGhqblc63BfXYb7qWKeC+XrTmggBACAEAIAQAgBACArq+iLiZYRp2t3riaR0c5vlaW/xRao1sdWRVuuDY6OgrzssptNbUXltFJWOQLdY5MiCoySQoBkinliFo5HNG4Fb6V1Wo7KcmjCVOEt6JiimqpfQBe463E6llRoVrup1Vl+L/ACyJThSW0vaKlbTRBo0k6XO3r11laRtaeqtr8WcyrUdSWWelXDWCAEAIAQAgBACAEAIAQGGanimHzjAenaq1a1o11/kjkzjUlDcyprqSOnF4y7XqJXm9I2VO3WtBv5l2lWlLeeE7lyWWkQhJI0kdJUwWs0n4sxk8It6bD6fNz3BzzucdC9Rb6JtlHWkm/X+MFGpcT3IsI2tYM1oAA2BdeEIwWrFYRVbbeWOsyAQAgBACAEB//9k=;fontSize=6;strokeWidth=0.5;" vertex="1" parent="xtmQm8H3WPaShv8IGNw_-104">
          <mxGeometry x="19.9114224137931" y="11.023622047244096" width="25.059698275862065" height="24.892241379310338" as="geometry" />
        </mxCell>
        <mxCell id="xtmQm8H3WPaShv8IGNw_-105" value="" style="group;fontSize=6;strokeWidth=0.5;" vertex="1" connectable="0" parent="xtmQm8H3WPaShv8IGNw_-153">
          <mxGeometry x="232.32758620689646" y="31.49606299212599" width="66.07349137931035" height="70.86614173228335" as="geometry" />
        </mxCell>
        <mxCell id="xtmQm8H3WPaShv8IGNw_-56" value="" style="sketch=0;outlineConnect=0;fontColor=#232F3E;gradientColor=none;fillColor=#ED7100;strokeColor=none;dashed=0;verticalLabelPosition=bottom;verticalAlign=top;align=center;html=1;fontSize=6;fontStyle=0;aspect=fixed;pointerEvents=1;shape=mxgraph.aws4.container_1;strokeWidth=0.5;" vertex="1" parent="xtmQm8H3WPaShv8IGNw_-105">
          <mxGeometry width="63.07015086206895" height="40.732758620689644" as="geometry" />
        </mxCell>
        <mxCell id="xtmQm8H3WPaShv8IGNw_-64" value="" style="shape=image;verticalLabelPosition=bottom;labelBackgroundColor=default;verticalAlign=top;aspect=fixed;imageAspect=0;image=data:image/png,iVBORw0KGgoAAAANSUhEUgAAAJoAAACUCAMAAABcK8BVAAAAZlBMVEX///8BljkAljkAlDTt9e8wn07Q5tYAkSoAjR0gmT+s1bc4oVSayaIAjBbE4MsAkzDj8efz+fUxm0a83MRVrGtQp2GHwJNgr3J5uoa22b+ezapLpFsAigrc7uKk0LB/uohssXePxZxM3o9CAAAGd0lEQVR4nO2ci3aiMBCGTaJOEHEAL6iAxfd/yU1sq5ILhms4Z/uzp2t3G5x+mWQmIeNi8ac//en/UJydEt82GLU8AXCynaFxt5BTQhjke9+WKNqHESNSlBXZ2rc1b4ozRELlJb8AOc+lV5enAil5EwV+nYVxtxAesJ7U5MWP/l1uv+LsadjLNOFyB78uF39xJBYB3v316vLOkdI3ZoTWXgLcPBm3ETMZtTF7DAdPLrfOgamgFGriQsjKiQ0rhZM1EntNJHBfTmhYcg3ABEqnJi4C6WUyy3YrTpyQ/YBjUT7NRBIfkVlAGanJC1k2fq/Gp8jNySZ3uduKN4CyUpOTDM/HdLl9ELEma5pMo4QVo7lcXIE1KrkJ8TxGry6lk30A1UxN/jVGunT9FJUch4OIXcO63C4EY+rTltp37BowXSrPERuA2JMc8Hs8iGHLO4I99WlPTXxDgQ2RLm3SQZxMAUd42Nfl1kdgxBmUK7WHy2GvdGlgJ1PIYXTq6nJOqU9navKCdNPJsD3ysYA9xaJg19qyUjpZW1BtqYlLuFy7Xo2rgnWwpoNplGLx1cK4bQo27xcJhBBpNziobGNtQnl4czRsuQJr6oMQhHkeBuC+NhATLK7yfAVobcF47jYDf9mRRYfLOk6SeH05R+CIjPFsVyZJuT9Edqz87gQtZ7Zfjr0teJcngi7UGHk2ujDryhWdsC1XzOYx9YEuFskOzPCt0cXagK1cckxpmvGXi9T5cZnBJ2oUru8t7o/9LkMLd9NMwlD/2eMnbmxV66g4HYMaBcMIj0P79Pf4Aud6gwxHoKZ62rdKbnHMH3El9blagl8/XwuMafMGmqiRSNnE2gjTjNTCPr5mNm2xsc9WxGyakZqzae7UFouKE3dqt97U2piWVIYd8Fl0qGhA7EPBb4eKYUrYTKmJFTS3JQS+qcnpaq7U7ImUf2qLxQHmSm2RhMa9tzlQW6wDNlNqcpjOldpjmOrUlHSlPzUX0/RkfsvV9xzBNJcO3eg305Nek2njd+g21Zsekc6B2jY6a21jNen1RA34Vmu8RjIHakC5/oz4Uo/0vqiJXEifUE4wB2pibUr0O1bvkd4bNbE41Z9zimg6B2qE8kq7QZy+Ir0/auKKrtoddjgHavKxjr7h8BqmXqlRBvqjidNPpPcU3n9NoyzQt4m/vv/Tb4cKwVG7SfKzLei3Q8UfyLS7xCGbAzVhmx5Ny2IW1MT0pj9CvMAcqEl/06PpNaJzoEZYqg/TCmZBjUCoLRaSDP2sqOrUqLajLG0LCi/rUIUaodFJu1epJpteqIkXhmG6Uf7JDzXpb3pCrjigJ2ryseenN5g4vL/92Md38Nahokv1aKqZ5qVD5VD4+miaJ2rGpFcxzRc1QnjTyQ2f1AQA0nBWyCs1SrHhbfxSE8P0YH3G75eajPR6NH0zzSc1Een1dfPLNJ/UxAWWYeovUD2/YWh55uy7Q4UwNQ6FUTqUEqWP7k3URJceTbZdx6BGQckKq+YD4aaEXJ7zGIEaUd4q/t1QtlCjpmEap5YW/XyN8loAOn0860RRs+1kO3/WjxrF/K355XlMwUpNhAWlyvaiPTQdhprcEXoO0k3DKYV30LUzyzc7aLeDO8kBbTgw+D7ku66QmUAp1GQLDO/lA91yL/e1bC0gczqRuOf2I5dQBNmRFu6VN5RBAUEeBkXDwWiKtuih2QZgxSHmeWTEAkqn9n0xZE3lCgzcDw4nd+Z6SHMAQWpLBoxaZwWz4XD8xrFFuxPDD+0O5nLZYU1DXnU42p/cULrciKKEd640PAcwIjUKqdNBYbO+XW4cZBid+xXf7HL7gfA+1IYoWUquxHomvLv4qlN9hqrlGXFYahAMVne+zhpiV1uJqNTTyWpKdvheT9KHGoN06FLMR3lQb2J0ICerq6wi7EutR+lUs9YHcEkgrWLQJSq5Kdkg706Np+1rptroLmNXB9NEVHIt++mssmqR4z7dH4uBSkKbtTs6ldi+XoqoNJ6T1fWoM2yxOuhfC9rGuC/isA6lP1FJf/o9qtaVU+moSGNb59f9tWuon/t9yWCiz6RQ9TF28XCEqOSm+Az2dGnqzz9RVWaW2CXWvdX0TlbXDrkhXWL84+HnKXRLtWLRUVKfLirPtdg1VVRyk3A5/K3cR/TuZHXt08en8FAShf4/Q0yVmOUYmyD16aL4hDgjJ6srmcVn1f3pT3+aQv8AiP5wajGaiZIAAAAASUVORK5CYII=;fontSize=6;strokeWidth=0.5;" vertex="1" parent="xtmQm8H3WPaShv8IGNw_-105">
          <mxGeometry x="18.97499999999999" y="9.448818897637796" width="28.254956896551718" height="27.155172413793093" as="geometry" />
        </mxCell>
        <mxCell id="xtmQm8H3WPaShv8IGNw_-142" value="&lt;span style=&quot;color: rgb(128, 128, 128); font-family: Verdana;&quot;&gt;NGINX&lt;/span&gt;" style="text;html=1;align=center;verticalAlign=middle;whiteSpace=wrap;rounded=0;labelBackgroundColor=none;fontSize=6;strokeWidth=0.5;" vertex="1" parent="xtmQm8H3WPaShv8IGNw_-105">
          <mxGeometry x="13.755387931034534" y="40.72811023622036" width="35.56034482758619" height="15.748031496062994" as="geometry" />
        </mxCell>
        <mxCell id="xtmQm8H3WPaShv8IGNw_-106" value="" style="group;fontSize=6;strokeWidth=0.5;" vertex="1" connectable="0" parent="xtmQm8H3WPaShv8IGNw_-153">
          <mxGeometry x="400.6465517241379" y="296.06299212598424" width="71.84012931034484" height="69.68055118110232" as="geometry" />
        </mxCell>
        <mxCell id="xtmQm8H3WPaShv8IGNw_-57" value="" style="sketch=0;outlineConnect=0;fontColor=#232F3E;gradientColor=none;fillColor=#ED7100;strokeColor=none;dashed=0;verticalLabelPosition=bottom;verticalAlign=top;align=center;html=1;fontSize=6;fontStyle=0;aspect=fixed;pointerEvents=1;shape=mxgraph.aws4.container_1;strokeWidth=0.5;" vertex="1" parent="xtmQm8H3WPaShv8IGNw_-106">
          <mxGeometry width="63.07015086206895" height="40.732758620689644" as="geometry" />
        </mxCell>
        <mxCell id="xtmQm8H3WPaShv8IGNw_-40" value="" style="shape=image;verticalLabelPosition=bottom;labelBackgroundColor=default;verticalAlign=top;aspect=fixed;imageAspect=0;image=data:image/png,iVBORw0KGgoAAAANSUhEUgAAAOEAAADhCAMAAAAJbSJIAAAAZlBMVEUxeMb///8qdcUmdsV4otZmlNDp7/gZcMMab8NpltHW4fEkcsRdkdBQh8ywxeX2+fyjvOE8f8lvnNTC1OyowuSNsNyXtt/x9vu1y+jf6fXH2O5TjM5/ptmCqdnp7/fN3PC6zeg3fcgYhiCaAAAGrklEQVR4nO2diZKiOhRAQ0ATDMiOII3a//+TL9A6Lo9AMCEsdU9NTU1X2ciZGwJZ7gVZ7wTn0I3QWoncMAk+jNDbT0lMKbPnPk8FbEZonAgNC5/iuU9RA5j6Radh6dE1R+8VTKvy/4bFJuL3ANPjp2FG5z4pzdDs3fBna4Jc8efVcHMRbLhHsTU8blGQKx4fhiWZ+1wmgpZ3w2pLvegruPozLLbZRhto0Rr6Ww0hD6LfGCbbDSEPYsIN4+2GkAcxtlCw5RDyIAZo0420aaYoZHOfxKSwELlbGTJ1Y7tovVMWcmzdDwAAAAAAAAAAAAAAAAAAAAAAAAAAAAAAAAAAAAAAAAAAAAAAAAAAAAAAAAAAAAAAAAAAAAAAYAFgDmtp/rWtQnqYEUpx5Dl1neV5ltWO60U2pZSwaUSxVvq/y2bEjuI0eRZ3fnK53nI3son+EuTuTie++It47KrsvO+Qe2F/zjxMdMayrXuqkUJUAhdTP+wKXZdl4Wp0bIqC6uTYbYhpfBhzmJO+UrpGDDFzBhrn//BWZUi9UfFbnaFN0i+OsyJDFo1toCszJPF3x1mNIfv58jhrMSTOt8dZiSH2vj7OOgxxdPr6OOswJNfvj7MKQ1YrHGcVhvjzZU1jWIMhCWU+L/pfWIMh6w/hPsljr/I51c7Jb4ePT6/AkGU9n9rnESEMY7uZFuB/Mf6Tn51fLHUanvZCLt3nd7oIf+P0r+49FY8nLg7tqI6PGSXx7XF/0WfIrxchlHafYUzFv/M4MRwJG+nNFlb/xxTVpXbDHnD3KToS346Fz2sD74lhbHcwZ2h/bygcFB4GX1CB6W6/BkPRZRjJNACSLt8QC+bVznLvGDH1ng4Fw1/BQ3e2rHeMKBhGgka6sFf9fG8ofJDYvuFmWqnQULKnMcUE16H1u6hmqmIoemhb1iupFAyRcB64XpKigiETr6Q5C1JUeWq7CQ2tfDmKKjHsGwAnxp7KhlAwtHsng4OfhbySWaWnYf1LTuVO62L9tygZDq0aXt0FxFHFUGKK6xB3zdcYRcUQUYk5/X1tz9tYlQzl9rGcQn/OxqpkiEgio2gFt2o+RzXDngnFD667uRzVDBGTXwE+OBPt2htA0fD+PnQ5SmeOOKoaSvWnzzjuzD+vKhsiPGo3VPJr+v6owRCPW+nODN8e1Q25Ys8wqoOr2VkODYb8WsxHKQaeaIfqFGgxRNQTrEMKqA0q6jFEGBWjFA3OAWgy5GF0JTdA/xEaU9RmiDCrx+w9yUw1VH2G/BGO5CP2gLmGbow6DflYA2XSbfXyq1lFgF5DHkccyz4A3MxciroNmzX6KJVrrJX21Jku9Bs2fQ6rZRrr8I4GHUxhiJpOxz0PKxrZqzCRYbPZwh+c4jByJU5m2KZBDcQxMNGdTmjYOA486Oj5mn4mNWxGVr3DjpuBB5uJDXmf4/cMO8r1xxANzAEYuBCnN+xVNHDTN2DIFYUN1UBXY8KwJ7Emn36AYcQQUdGNMdyKIRYl8AlyinVixlC4u0iYF64PpTXgEdPGgiX/dNGGLPWlryKR4bJ7GlIGruzgQJTEVy/b8ND0hXLL4W7311i7Rd8P2736pdTaLhUNFSN1gyHUsxGKaLC3YKI7/kWHwgAa8i2CdKBSCRbt6reuBuZM9WSUHH0iPldSCafeDHSl2nJmDnVEuwrr2AT17A0zMZ+oLysoOOTVe5mkppZS1Td3WpqY2Neb9xRcj7UXsTaJj0W77Na/rGiikU6S2cVNTzLLUMHS57x7DOVIjaw+zWgYLD47T9XQwDNpw3yGV0OLwLMZnmQyTXUwm6GhHNn5DE2t4s9lGMTmtgzNYnjxDG5QnMPwbLSWqXnDi+HENpW8p2rcrsuWUy4umTENKvOlNvHDcdX2LjkyufHy7ywVDNtyLF4hu/EySNw5UoQEhj/SfQGX9LNkPzBaCsqjgyV36uuef3M7GfUtXJL5cVYcyi7PyyHJY1+6RHKEXM3Dxm+qIXceho/sbRRVrpPlYXosjmma187O/0WsKaYkfRwXGVhxU8FuS3gT0vxp63iP/H0WomUlu2uHnlGwccMALa10iF5wbKGF1WTQDE24oeVvN4i2bzWGA7XC1gwtWkNLXzHzhdHmFTeGe+NPr4ag5d3QOm6znf7lo7aGVrZFRfpXSQTdn/23p0jvdcHvhtuLIn3UgnkYWsUiCofoAj9zwv8ZWvuKGll/MwCm1XM25GnIwzhrvQltYOq/pme+GlpWEtPO/QGrwWaExu/bid4NLSs4h+OmHBZF5IbJ58zHf1xmWQh9BSxpAAAAAElFTkSuQmCC;fontSize=6;strokeWidth=0.5;" vertex="1" parent="xtmQm8H3WPaShv8IGNw_-106">
          <mxGeometry x="20.075000000000014" y="11.124409448818897" width="24.745150862068964" height="24.745150862068964" as="geometry" />
        </mxCell>
        <mxCell id="xtmQm8H3WPaShv8IGNw_-107" value="" style="group;fontSize=6;strokeWidth=0.5;" vertex="1" connectable="0" parent="xtmQm8H3WPaShv8IGNw_-153">
          <mxGeometry x="462.2844827586206" y="56.69291338582677" width="71.1206896551724" height="59.05094488188978" as="geometry" />
        </mxCell>
        <mxCell id="xtmQm8H3WPaShv8IGNw_-75" value="" style="sketch=0;outlineConnect=0;fontColor=#232F3E;gradientColor=none;fillColor=#ED7100;strokeColor=none;dashed=0;verticalLabelPosition=bottom;verticalAlign=top;align=center;html=1;fontSize=6;fontStyle=0;aspect=fixed;pointerEvents=1;shape=mxgraph.aws4.container_1;strokeWidth=0.5;" vertex="1" parent="xtmQm8H3WPaShv8IGNw_-107">
          <mxGeometry width="63.07015086206895" height="40.732758620689644" as="geometry" />
        </mxCell>
        <mxCell id="xtmQm8H3WPaShv8IGNw_-76" value="" style="shape=image;verticalLabelPosition=bottom;labelBackgroundColor=default;verticalAlign=top;aspect=fixed;imageAspect=0;image=data:image/png,iVBORw0KGgoAAAANSUhEUgAAAMwAAADACAMAAAB/Pny7AAAA81BMVEX///9N0OH19fX/zIDu7u5CQkLr+ftn1eU/zuD7/v5H0OP/y3359vb/+Pet4Oj/yniz6fH0/P1m0NnU8vft8/Try4r//Pn/z4nd9fjO7PAy0Oj/472q5u+a4exMxtZN2OpCOzpEYWWC3en/37L/8+NDUFJBLyzH7vQ5OTnWzZv/7tn/1pz/9+3h8PJLushJpLBFdX1HiZNhYWFVVVWBgYGxsbEsLCwjIyMAAABbjpCQzsbF0azEr35bU0k1OT9/z83DoGonMTygzrzbtneojGJuYU9AJR+Xl5fJyckTExPf39+64OHr4sbizZbNzqOwzbPD2stuJVtuAAALHElEQVR4nO2djV/aOBjHKQhN02KLIBRopxalClSnm3PnbmOnu9O5t/v//5pL0rdQ+oKzeWQ7fp975XJpvnmSJ0+SJq1UNtpoo402ylfDbLuGZdlMlmUZbts0W89dqser4Vq2I8uyJGEJMUlU5BfZsS3310FSXJtSSBQAS7ww9n8lVI7V/gWA2o6EcAJiWSQFkmRjrXlaVtigVhJCsrumPErDfgyJbyGEbFN57pIvSTFt6bEovnmwvW7dp2HQrvJzojjPZx2lYZqLI4brPLqFLeBIViPMqkXzbgDBNVyDDSFkvAjrU7F+roVxNMhxWU5tK8jccBt5pShFLcuRgmGQ+CK7TX8znaeyUBzZalXathzmLUmOJbgr+aNIXJ+sBPLTUSQ69DgUJf53JDltoSxL5ca2Ef+G42otUpgyESIkEskCacwUG0TlwdROrul5faPQSSPJNvqeZ7qWnORJ0JiiWFpOdhkxkg2t2WxqRORvXk43Qtgx45QasWw2DnJE9Rs3uwoxRdGqkRhOahlJ1/CazTilRnFyjOOKYVHszMrGpIAcCiuk5sqp1K6WTNn07EwaZIsZccy4lZ2enZ292IsfaVUTBWSF7C/XOHb6aSmrFpfmBcn8NIJxxPSadvS4s6PxeP9lRIOMpFmCMppLtnHM9JRNI6qovfN/xuOjs+h/EePQ3PB5Z/X9er0+PohaQrLhRD0nYRss95vpKTUtasN7pyTz/XpIg8R0mgjmJWWp7x/tBQ2hk8FCypjwGW52yk7ciM/HJPeXYmHClvDigMGMTxkMltJbTlDhDm8aJ8uENKkZeT/6gP2DF2EbBoDZfxkYxsosHy2ix3lA5GWzEFlR0rMxByO4mdFmUN/3H4al/BI2Y9NgJ6PDhNy8acbnYptZ5M2oacbngWHs7B7DYPpRfaOs3h/AdOJx7Oyf0DCivFkj7KJ7L86PjqJWEJRlK6uQsWXClFlJ3XgcOw/9PnIETWu4sUAKWLBEB0Ht4e7i1ev7dNOEVYD8Vnb/+tWry600a2r9OACKBmRB/Z8zDdenZdplti6ujuvHx5epMGG/RhaFuTx+Uz++ukgzjuYtB+XCDEOnM8n4hA0ylbsr6quP6w9pMGGnoV1Ge7g4ZknvKikwnaXKwiInNEtxM+v/FVbAev3qXimAIYZhKY8v0izTWY5kBcXMTIqbaAkMRglg3lyuDpPSa5ZgkOyKXaRJrFr6zeyVX8TPaS5gEea+HsCkYCeaGUK28PWZVptfIkMOcQCV+7fMMKnduhk6XOQSmIfXb3wbpvUZj4dBDsg6p9KIZx+YeTPl7u3Vm88Xaf2/2gzbDrIJjPJw8fnN1du09ki9GedfwNY4Xa4G2WSrsnV5d582QSMwYQmxTF2zotzfXT6k2IWNM5xhRHZ9XorBtbMgziQ/pxWQdIQ4nPEDH1LjaXap8pEmHSyBLNPivI4/amaLm0KSCWleysUxEwxmYfksCs7SS6jF/QDLOdOZKh+asR4GtM3Rlvin5kw0FwxTYJqkYxa2YJaEWRjbkJEzffQWljTymqRmLOYqLihblJGIOtpZFa5VFxfEsJ3u8agJ24t5IhkGpmUlo46MhqZVt6WEtjNotE4yYoaCScaDhCbNNprGWPaIwr8SmlQn0FxiAYNZntbI5jKNVrUwJhCn5wdHRAfnpwQH47TFz+byaiEUTCNlDiUZyTI2mXfaO6uP9/3gcn9cP9tj3i8BrlWNlC0DMJilJ9MdjT5pV4xIoy2pY7FwlC3kRGJLLghZnSARSU7+1k/d03hGGLYlaHidTqdK/vT6/nbTnr+QG2mf2YZuNfWjpIacvtH2rDBsZ092bNt2ZP9tH9Jj/lhgITR/sJeB6H8PkmbuGT4zjBRtavr/LF2/+/P9B57lw/s/310HSzBpW5p8zQANmjkwPNf8e09XP77/K8L58Nf7j6re+z5f5U0OqEFzJZjBza6u1mq1209/E4oP5I/6359uyQ+qvnsz+LVgBjc1ikJ1e/vxE9HH29vgB7W2As0aNTO8E7GkSK0VtzSoqHkFmMFuDguh2S00zfrADK7zUKiui2jWCOakCObk14HB+a2MtrOiTgM1bS6EwTvFMDsFNBsYETCSVAxTlMP6wAy+F8F8L3QAawOD5xyMHomDKRw1kQWzCLhKBPBD93FUXe9NR8PJZDia9kIcVf9RHAEArWiuEpvh655vjNFsK9Js5Jupd10cN68TDJmD7VzfzL9sJfTl+uZ6B68wB1grGIqDB9tJmO0BXgVl7WBoiZZhVn1reAOzgdnAbGA2MIJhPO83gHECiO2Ayss5TbDuMIFpqp7jeNqjDEP+z7WDwWi743l9ByHH9LzO9upn7NZoCsAVSnLYngXdIXjMYa71mZzxwvFhocccfVxPmJ8UHMzPni5dQ5ivRctEZQjPv0KwjArXvMqB2R0CsOhQMLpwmpFevBpZCszOriqaZqSvsLRaFkxNLM1QX2WduDQYVRVH0x2qKihMTa0Nu6JY2EYlEAz+xh4miCZgAYIJd98E0QQswDCURgCLqq66UVQOTLgtIoAmYgGDeRc9UJ2Uy9LVox0XKJgf8W6OXu5E7Wu8U6R+K7y8qBSYG26/qlzTTMFh8JyDGZULw+3rnQCg0FGzJwpmxG1IFr5dUT5Muf5swjWzwp3icoQ4mMNSYbq9iEb9FwYmfjNKn5a87DSp+TS6PrQesWL0FJivwe603ivXMJRm6u8UD3PuBSlVyBj6O9bTksdMqtlkOBoNZxVl5fXiJ8JYlRl94mRWPgtRt0sD2BYMi4Ts6JHiBAUjyUIxfJlQMBIADJAzI+0MAAao/xMYgAVaIBR6GYpwFgWsyyCh984xNeBgRF2fEcuFg7GFwwAFMxTGEQ4D5swgRk0wFEn8qKlAzP8DYdG753DBDOk0os8DwTkzAiPsEs1AYJGZBHCPBpxnBhg1HUAHQOaaYgXxQkMk0SEAxKsmkUSHAJAsokMA5XeCaYDCCI5ngGHExjMmLIzYeKZdXIANTIbErgJsYDYwG5j/MQzwoCl2qgkbmwkeZ2CnAILDmYoDySJ6FRByQUP45KwNuaAhetoMtj0rQVzZCugBxO8DJu+dFCcMsHf+O202Ae42i15qrgD6M4j3AJRyPmtWzCJ6cZapDwQDcltb3hfCSmRxYE6duqvd6fE0YfGvNDAt3aQrQGA3aad+Vq9sARmGyBD90jnUOW0q0e9pCvzAYYpSrjkuVeLfAeLVFhk9Q0RlC8r5hOOTWaBuno9liPIBsB0mohHSb4R+qzWHRoSDfiaWSuVL+afPhH5yKk+z6cm85OMng/mJmFf/i9Tt6eq3Fa73W114cP1N7z0HTbdHT1L3bsoLoTH6QfJUn4GGsdCjOidSSU1tsHPCToPC08x60SEq/WbFSwvzRHL4Ed6zCd3SZvxZR/1k/kQnTVBIb4kP6U4haRZYqHG+z6VHXfiTkDw/4W9zremANF3+2KZflYeGk/EdiSKjIEm2+9NEhvpI7IkmTpPko6eHZDLdt7M/JpEleh+VQUKxwyUaAafmUpU0THj2UDHdx/BgRtL2I+TDXiJPKNPMFquRdz4tyiPlfCMj4qCtyzXjWD9Bo0+fBSbpSFuNACgNyf9yiCQ7FgFZXH9ZpAFzaAswqYNCixE5sowWJcuOzTBaKesVCzRwHoBzAPkDnKIorUaj3W6bjUZLoV8FzMuWpxF/UVP01Mg05Q7Wh3FYATjQTHrsfhBVnZZ7hvpwGuRb/tnsHE2mvZpa643KfubMz7fkOipSdzIcDQUMbN1Dmi/Y8L/RRhtttI76D32CIv1N6stTAAAAAElFTkSuQmCC;fontSize=6;strokeWidth=0.5;" vertex="1" parent="xtmQm8H3WPaShv8IGNw_-107">
          <mxGeometry x="19.181249999999967" y="9.763779527559056" width="26.449137931034475" height="24.892241379310338" as="geometry" />
        </mxCell>
        <mxCell id="xtmQm8H3WPaShv8IGNw_-148" value="&lt;span style=&quot;color: rgb(128, 128, 128); font-family: Verdana;&quot;&gt;NATS AUTH CALLOUT&lt;/span&gt;" style="text;html=1;align=center;verticalAlign=middle;whiteSpace=wrap;rounded=0;fontSize=6;strokeWidth=0.5;" vertex="1" parent="xtmQm8H3WPaShv8IGNw_-107">
          <mxGeometry y="43.302913385826784" width="71.1206896551724" height="15.748031496062996" as="geometry" />
        </mxCell>
        <mxCell id="xtmQm8H3WPaShv8IGNw_-109" value="" style="sketch=0;outlineConnect=0;fontColor=#232F3E;gradientColor=none;fillColor=#7AA116;strokeColor=none;dashed=0;verticalLabelPosition=bottom;verticalAlign=top;align=center;html=1;fontSize=6;fontStyle=0;aspect=fixed;pointerEvents=1;shape=mxgraph.aws4.elastic_block_store_volume_gp3;strokeWidth=0.5;" vertex="1" parent="xtmQm8H3WPaShv8IGNw_-153">
          <mxGeometry x="82.37275862068962" y="344.5596850393702" width="31.006681034482753" height="37.79094827586206" as="geometry" />
        </mxCell>
        <mxCell id="xtmQm8H3WPaShv8IGNw_-119" value="" style="edgeStyle=orthogonalEdgeStyle;rounded=0;orthogonalLoop=1;jettySize=auto;html=1;curved=1;strokeColor=#9FA8B4;fontSize=6;strokeWidth=0.5;startSize=3;endSize=3;" edge="1" parent="xtmQm8H3WPaShv8IGNw_-153" source="xtmQm8H3WPaShv8IGNw_-56" target="xtmQm8H3WPaShv8IGNw_-30">
          <mxGeometry relative="1" as="geometry">
            <mxPoint x="206.9754310344826" y="63.62204724409448" as="targetPoint" />
          </mxGeometry>
        </mxCell>
        <mxCell id="xtmQm8H3WPaShv8IGNw_-122" value="" style="edgeStyle=orthogonalEdgeStyle;rounded=0;orthogonalLoop=1;jettySize=auto;html=1;entryX=0.5;entryY=0;entryDx=0;entryDy=0;curved=1;strokeColor=#9FA8B4;fontSize=6;strokeWidth=0.5;startSize=3;endSize=3;" edge="1" parent="xtmQm8H3WPaShv8IGNw_-153" source="xtmQm8H3WPaShv8IGNw_-56" target="xtmQm8H3WPaShv8IGNw_-114">
          <mxGeometry relative="1" as="geometry">
            <mxPoint x="323.75086206896526" y="63.62204724409448" as="targetPoint" />
          </mxGeometry>
        </mxCell>
        <mxCell id="xtmQm8H3WPaShv8IGNw_-123" value="" style="edgeStyle=orthogonalEdgeStyle;rounded=0;orthogonalLoop=1;jettySize=auto;html=1;curved=1;strokeColor=#9FA8B4;exitX=0.5;exitY=1;exitDx=0;exitDy=0;fontSize=6;strokeWidth=0.5;startSize=3;endSize=3;" edge="1" parent="xtmQm8H3WPaShv8IGNw_-153" source="xtmQm8H3WPaShv8IGNw_-55" target="xtmQm8H3WPaShv8IGNw_-68">
          <mxGeometry relative="1" as="geometry">
            <mxPoint x="234.69827586206898" y="224.88188976377955" as="sourcePoint" />
            <mxPoint x="261.7241379310345" y="274.6456692913386" as="targetPoint" />
          </mxGeometry>
        </mxCell>
        <mxCell id="xtmQm8H3WPaShv8IGNw_-124" value="" style="edgeStyle=orthogonalEdgeStyle;rounded=0;orthogonalLoop=1;jettySize=auto;html=1;curved=1;strokeColor=#9FA8B4;startArrow=classic;startFill=1;fontSize=6;strokeWidth=0.5;" edge="1" parent="xtmQm8H3WPaShv8IGNw_-153" source="xtmQm8H3WPaShv8IGNw_-59" target="xtmQm8H3WPaShv8IGNw_-54">
          <mxGeometry relative="1" as="geometry">
            <mxPoint x="260.7758620689655" y="236.22047244094492" as="sourcePoint" />
            <mxPoint x="285.43103448275855" y="154.33070866141733" as="targetPoint" />
            <Array as="points">
              <mxPoint x="292.5431034482758" y="150.86614173228352" />
              <mxPoint x="292.5431034482758" y="144.88188976377955" />
            </Array>
          </mxGeometry>
        </mxCell>
        <mxCell id="xtmQm8H3WPaShv8IGNw_-126" value="" style="edgeStyle=orthogonalEdgeStyle;rounded=0;orthogonalLoop=1;jettySize=auto;html=1;strokeColor=#9FA8B4;fontSize=6;strokeWidth=0.5;" edge="1" parent="xtmQm8H3WPaShv8IGNw_-153" source="xtmQm8H3WPaShv8IGNw_-68" target="xtmQm8H3WPaShv8IGNw_-66">
          <mxGeometry relative="1" as="geometry">
            <mxPoint x="386.11659482758614" y="248.5039370078739" as="targetPoint" />
          </mxGeometry>
        </mxCell>
        <mxCell id="xtmQm8H3WPaShv8IGNw_-128" value="" style="edgeStyle=orthogonalEdgeStyle;rounded=0;orthogonalLoop=1;jettySize=auto;html=1;curved=1;strokeColor=#9FA8B4;fontSize=6;strokeWidth=0.5;startSize=3;endSize=3;" edge="1" parent="xtmQm8H3WPaShv8IGNw_-153" source="xtmQm8H3WPaShv8IGNw_-66" target="xtmQm8H3WPaShv8IGNw_-58">
          <mxGeometry relative="1" as="geometry">
            <Array as="points">
              <mxPoint x="432.8879310344827" y="283.4645669291339" />
              <mxPoint x="334.2672413793103" y="283.4645669291339" />
            </Array>
          </mxGeometry>
        </mxCell>
        <mxCell id="xtmQm8H3WPaShv8IGNw_-133" value="" style="edgeStyle=orthogonalEdgeStyle;rounded=0;orthogonalLoop=1;jettySize=auto;html=1;strokeColor=#9FA8B4;endArrow=open;endFill=0;entryX=1;entryY=0.25;entryDx=0;entryDy=0;curved=1;fontSize=6;strokeWidth=0.5;startSize=3;endSize=3;" edge="1" parent="xtmQm8H3WPaShv8IGNw_-153" source="xtmQm8H3WPaShv8IGNw_-68" target="xtmQm8H3WPaShv8IGNw_-112">
          <mxGeometry relative="1" as="geometry">
            <mxPoint x="348.64547413793093" y="324.4094488188976" as="sourcePoint" />
            <mxPoint x="215.73275862068965" y="324.4094488188976" as="targetPoint" />
          </mxGeometry>
        </mxCell>
        <mxCell id="xtmQm8H3WPaShv8IGNw_-132" value="" style="edgeStyle=orthogonalEdgeStyle;rounded=0;orthogonalLoop=1;jettySize=auto;html=1;strokeColor=#9FA8B4;endArrow=open;endFill=0;entryX=1.001;entryY=0.426;entryDx=0;entryDy=0;entryPerimeter=0;curved=1;fontSize=6;strokeWidth=0.5;startSize=3;endSize=3;" edge="1" parent="xtmQm8H3WPaShv8IGNw_-153" source="xtmQm8H3WPaShv8IGNw_-58" target="xtmQm8H3WPaShv8IGNw_-112">
          <mxGeometry relative="1" as="geometry">
            <mxPoint x="217.79762931034477" y="324.4094488188976" as="sourcePoint" />
            <mxPoint x="203.8793103448275" y="324.4094488188976" as="targetPoint" />
            <Array as="points">
              <mxPoint x="252.47844827586206" y="318.1102362204725" />
              <mxPoint x="252.47844827586206" y="324.0944881889763" />
            </Array>
          </mxGeometry>
        </mxCell>
        <mxCell id="xtmQm8H3WPaShv8IGNw_-134" value="" style="edgeStyle=orthogonalEdgeStyle;rounded=0;orthogonalLoop=1;jettySize=auto;html=1;curved=1;strokeColor=#9FA8B4;entryX=1.005;entryY=0.375;entryDx=0;entryDy=0;entryPerimeter=0;endArrow=open;endFill=0;fontSize=6;strokeWidth=0.5;startSize=3;endSize=3;" edge="1" parent="xtmQm8H3WPaShv8IGNw_-153" target="xtmQm8H3WPaShv8IGNw_-112">
          <mxGeometry relative="1" as="geometry">
            <mxPoint x="423.4051724137929" y="276.2204724409449" as="sourcePoint" />
            <mxPoint x="324.7844827586206" y="296.06299212598424" as="targetPoint" />
            <Array as="points">
              <mxPoint x="423.4051724137929" y="280.3149606299213" />
              <mxPoint x="258.4051724137931" y="280.3149606299213" />
              <mxPoint x="258.4051724137931" y="319.68503937007875" />
            </Array>
          </mxGeometry>
        </mxCell>
        <mxCell id="xtmQm8H3WPaShv8IGNw_-135" value="" style="edgeStyle=orthogonalEdgeStyle;rounded=0;orthogonalLoop=1;jettySize=auto;html=1;strokeColor=#9FA8B4;endArrow=open;endFill=0;curved=1;fontSize=6;strokeWidth=0.5;startSize=3;endSize=3;" edge="1" parent="xtmQm8H3WPaShv8IGNw_-153" source="xtmQm8H3WPaShv8IGNw_-73" target="xtmQm8H3WPaShv8IGNw_-50">
          <mxGeometry relative="1" as="geometry">
            <mxPoint x="218.103448275862" y="365.6692913385827" as="sourcePoint" />
            <mxPoint x="315.30172413793105" y="305.51181102362204" as="targetPoint" />
            <Array as="points">
              <mxPoint x="123.2758620689655" y="324.4094488188976" />
              <mxPoint x="123.2758620689655" y="234.0157480314961" />
            </Array>
          </mxGeometry>
        </mxCell>
        <mxCell id="xtmQm8H3WPaShv8IGNw_-136" value="" style="edgeStyle=orthogonalEdgeStyle;rounded=0;orthogonalLoop=1;jettySize=auto;html=1;curved=1;strokeColor=#9FA8B4;fontSize=6;strokeWidth=0.5;startSize=3;endSize=3;" edge="1" parent="xtmQm8H3WPaShv8IGNw_-153" source="xtmQm8H3WPaShv8IGNw_-56" target="xtmQm8H3WPaShv8IGNw_-54">
          <mxGeometry relative="1" as="geometry">
            <mxPoint x="268.83620689655163" y="62.99212598425198" as="sourcePoint" />
            <mxPoint x="208.62068965517236" y="123.46456692913387" as="targetPoint" />
          </mxGeometry>
        </mxCell>
        <mxCell id="xtmQm8H3WPaShv8IGNw_-137" value="" style="edgeStyle=orthogonalEdgeStyle;rounded=0;orthogonalLoop=1;jettySize=auto;html=1;curved=1;strokeColor=#9FA8B4;startArrow=classic;startFill=1;fontSize=6;strokeWidth=0.5;startSize=3;endSize=3;" edge="1" parent="xtmQm8H3WPaShv8IGNw_-153" source="xtmQm8H3WPaShv8IGNw_-75" target="xtmQm8H3WPaShv8IGNw_-60">
          <mxGeometry relative="1" as="geometry">
            <mxPoint x="469.32780172413777" y="91.02362204724407" as="sourcePoint" />
            <mxPoint x="447.7545258620689" y="85.03937007874018" as="targetPoint" />
            <Array as="points">
              <mxPoint x="458.49137931034477" y="91.02362204724407" />
              <mxPoint x="458.49137931034477" y="85.03937007874018" />
            </Array>
          </mxGeometry>
        </mxCell>
        <mxCell id="xtmQm8H3WPaShv8IGNw_-138" value="" style="edgeStyle=orthogonalEdgeStyle;rounded=0;orthogonalLoop=1;jettySize=auto;html=1;strokeColor=#9FA8B4;endArrow=open;endFill=0;curved=1;fontSize=6;strokeWidth=0.5;startArrow=open;startFill=0;startSize=3;endSize=3;" edge="1" parent="xtmQm8H3WPaShv8IGNw_-153" source="xtmQm8H3WPaShv8IGNw_-60" target="xtmQm8H3WPaShv8IGNw_-66">
          <mxGeometry relative="1" as="geometry">
            <mxPoint x="372.19827586206895" y="248.81889763779526" as="sourcePoint" />
            <mxPoint x="275" y="308.9763779527559" as="targetPoint" />
          </mxGeometry>
        </mxCell>
        <mxCell id="xtmQm8H3WPaShv8IGNw_-140" value="" style="edgeStyle=orthogonalEdgeStyle;rounded=0;orthogonalLoop=1;jettySize=auto;html=1;strokeColor=#9FA8B4;curved=1;fontSize=6;strokeWidth=0.5;startSize=3;endSize=3;" edge="1" parent="xtmQm8H3WPaShv8IGNw_-153" source="xtmQm8H3WPaShv8IGNw_-66" target="xtmQm8H3WPaShv8IGNw_-57">
          <mxGeometry relative="1" as="geometry">
            <mxPoint x="432.8879310344827" y="276.53543307086613" as="sourcePoint" />
            <mxPoint x="433.5991379310344" y="296.3779527559055" as="targetPoint" />
            <Array as="points" />
          </mxGeometry>
        </mxCell>
        <mxCell id="xtmQm8H3WPaShv8IGNw_-141" value="&lt;span style=&quot;color: rgb(128, 128, 128); font-family: Verdana;&quot;&gt;FLUENT-BIT&lt;/span&gt;" style="text;html=1;align=center;verticalAlign=middle;whiteSpace=wrap;rounded=0;fontSize=6;strokeWidth=0.5;" vertex="1" parent="xtmQm8H3WPaShv8IGNw_-153">
          <mxGeometry x="143.34" y="344.56" width="44.91" height="15.75" as="geometry" />
        </mxCell>
        <mxCell id="xtmQm8H3WPaShv8IGNw_-139" value="" style="edgeStyle=orthogonalEdgeStyle;rounded=0;orthogonalLoop=1;jettySize=auto;html=1;strokeColor=#9FA8B4;curved=1;startArrow=none;startFill=0;fontSize=6;strokeWidth=0.5;startSize=3;endSize=3;" edge="1" parent="xtmQm8H3WPaShv8IGNw_-153" source="xtmQm8H3WPaShv8IGNw_-50" target="xtmQm8H3WPaShv8IGNw_-30">
          <mxGeometry relative="1" as="geometry">
            <mxPoint x="166.8965517241379" y="205.98425196850397" as="sourcePoint" />
            <mxPoint x="166.8965517241379" y="180.15748031496065" as="targetPoint" />
            <Array as="points">
              <mxPoint x="165.7112068965517" y="196.8503937007874" />
              <mxPoint x="189.65517241379305" y="196.8503937007874" />
              <mxPoint x="189.65517241379305" y="186.77165354330708" />
              <mxPoint x="165.7112068965517" y="186.77165354330708" />
            </Array>
          </mxGeometry>
        </mxCell>
        <mxCell id="xtmQm8H3WPaShv8IGNw_-165" value="&lt;div style=&quot;line-height: 100%;&quot;&gt;&lt;font face=&quot;Verdana&quot; style=&quot;font-size: 8px; line-height: 100%;&quot;&gt;WORKER&amp;nbsp;&lt;/font&gt;&lt;div&gt;&lt;font face=&quot;Verdana&quot; style=&quot;font-size: 8px; line-height: 100%;&quot;&gt;NODES&lt;/font&gt;&lt;/div&gt;&lt;/div&gt;" style="text;html=1;align=center;verticalAlign=middle;whiteSpace=wrap;rounded=0;fontColor=light-dark(#808080,#EDEDED);" vertex="1" parent="xtmQm8H3WPaShv8IGNw_-153">
          <mxGeometry x="57.72" y="9.449999999999996" width="72.67" height="30" as="geometry" />
        </mxCell>
        <mxCell id="xtmQm8H3WPaShv8IGNw_-167" value="" style="sketch=0;points=[[0,0,0],[0.25,0,0],[0.5,0,0],[0.75,0,0],[1,0,0],[0,1,0],[0.25,1,0],[0.5,1,0],[0.75,1,0],[1,1,0],[0,0.25,0],[0,0.5,0],[0,0.75,0],[1,0.25,0],[1,0.5,0],[1,0.75,0]];outlineConnect=0;fontColor=#232F3E;fillColor=#ED7100;strokeColor=#ffffff;dashed=0;verticalLabelPosition=bottom;verticalAlign=top;align=center;html=1;fontSize=6;fontStyle=0;aspect=fixed;shape=mxgraph.aws4.resourceIcon;resIcon=mxgraph.aws4.ec2;strokeWidth=0.5;" vertex="1" parent="xtmQm8H3WPaShv8IGNw_-153">
          <mxGeometry x="57.97000000000003" y="217.6099999999999" width="36.20689655172414" height="36.20689655172414" as="geometry" />
        </mxCell>
        <mxCell id="xtmQm8H3WPaShv8IGNw_-144" value="&lt;span style=&quot;color: rgb(128, 128, 128); font-family: Verdana;&quot;&gt;MERMAID&lt;/span&gt;" style="text;html=1;align=center;verticalAlign=middle;whiteSpace=wrap;rounded=0;fontSize=6;strokeWidth=0.5;" vertex="1" parent="xtmQm8H3WPaShv8IGNw_-153">
          <mxGeometry x="292.4648275862069" y="340.99551181102356" width="80.60344827586205" height="15.748031496062994" as="geometry" />
        </mxCell>
        <mxCell id="xtmQm8H3WPaShv8IGNw_-145" value="&lt;span style=&quot;color: rgb(128, 128, 128); font-family: Verdana;&quot;&gt;MCP CONNECT&lt;/span&gt;" style="text;html=1;align=center;verticalAlign=middle;whiteSpace=wrap;rounded=0;fontSize=6;strokeWidth=0.5;" vertex="1" parent="xtmQm8H3WPaShv8IGNw_-153">
          <mxGeometry x="391.8832327586207" y="340.99551181102356" width="80.60344827586205" height="15.748031496062994" as="geometry" />
        </mxCell>
        <mxCell id="xtmQm8H3WPaShv8IGNw_-159" value="" style="edgeStyle=orthogonalEdgeStyle;rounded=0;orthogonalLoop=1;jettySize=auto;html=1;entryX=0.75;entryY=0;entryDx=0;entryDy=0;entryPerimeter=0;strokeColor=#9FA8B4;endArrow=open;endFill=0;exitX=0.5;exitY=1;exitDx=0;exitDy=0;exitPerimeter=0;curved=1;" edge="1" parent="1" source="xtmQm8H3WPaShv8IGNw_-3" target="xtmQm8H3WPaShv8IGNw_-20">
          <mxGeometry relative="1" as="geometry">
            <mxPoint x="597" y="189" as="sourcePoint" />
            <mxPoint x="587" y="295" as="targetPoint" />
          </mxGeometry>
        </mxCell>
        <mxCell id="xtmQm8H3WPaShv8IGNw_-160" value="" style="edgeStyle=orthogonalEdgeStyle;rounded=0;orthogonalLoop=1;jettySize=auto;html=1;strokeColor=#9FA8B4;endArrow=classicThin;endFill=1;curved=1;" edge="1" parent="1" source="xtmQm8H3WPaShv8IGNw_-20" target="xtmQm8H3WPaShv8IGNw_-21">
          <mxGeometry relative="1" as="geometry" />
        </mxCell>
        <mxCell id="xtmQm8H3WPaShv8IGNw_-161" value="" style="edgeStyle=orthogonalEdgeStyle;rounded=0;orthogonalLoop=1;jettySize=auto;html=1;strokeColor=#9FA8B4;endArrow=classicThin;endFill=1;curved=1;" edge="1" parent="1" source="xtmQm8H3WPaShv8IGNw_-21" target="xtmQm8H3WPaShv8IGNw_-56">
          <mxGeometry relative="1" as="geometry">
            <mxPoint x="600" y="319" as="sourcePoint" />
            <mxPoint x="577" y="371" as="targetPoint" />
          </mxGeometry>
        </mxCell>
        <mxCell id="xtmQm8H3WPaShv8IGNw_-162" value="" style="edgeStyle=orthogonalEdgeStyle;rounded=0;orthogonalLoop=1;jettySize=auto;html=1;strokeColor=#9FA8B4;endArrow=open;endFill=0;exitX=0.5;exitY=1;exitDx=0;exitDy=0;exitPerimeter=0;curved=1;" edge="1" parent="1" source="xtmQm8H3WPaShv8IGNw_-20" target="xtmQm8H3WPaShv8IGNw_-22">
          <mxGeometry relative="1" as="geometry">
            <mxPoint x="597" y="229" as="sourcePoint" />
            <mxPoint x="607" y="315" as="targetPoint" />
          </mxGeometry>
        </mxCell>
        <mxCell id="xtmQm8H3WPaShv8IGNw_-163" value="" style="edgeStyle=orthogonalEdgeStyle;rounded=0;orthogonalLoop=1;jettySize=auto;html=1;strokeColor=#9FA8B4;endArrow=open;endFill=0;curved=1;" edge="1" parent="1" source="xtmQm8H3WPaShv8IGNw_-22" target="xtmQm8H3WPaShv8IGNw_-60">
          <mxGeometry relative="1" as="geometry">
            <mxPoint x="627" y="329" as="sourcePoint" />
            <mxPoint x="674" y="381" as="targetPoint" />
            <Array as="points">
              <mxPoint x="639" y="409" />
              <mxPoint x="750" y="409" />
            </Array>
          </mxGeometry>
        </mxCell>
        <mxCell id="xtmQm8H3WPaShv8IGNw_-169" value="&lt;span style=&quot;font-style: normal; font-variant-ligatures: normal; font-variant-caps: normal; font-weight: 400; letter-spacing: normal; orphans: 2; text-align: start; text-indent: 0px; text-transform: none; widows: 2; word-spacing: 0px; -webkit-text-stroke-width: 0px; white-space: normal; text-decoration-thickness: initial; text-decoration-style: initial; text-decoration-color: initial; float: none; display: inline !important;&quot;&gt;AI/Run™ for AWS Architecture&amp;nbsp;&lt;/span&gt;" style="text;whiteSpace=wrap;html=1;labelBackgroundColor=default;fontSize=29;fontColor=#4D4D4D;fontFamily=Verdana;" vertex="1" parent="1">
          <mxGeometry x="337" y="31" width="540" height="41" as="geometry" />
        </mxCell>
        <mxCell id="xtmQm8H3WPaShv8IGNw_-178" value="&lt;span style=&quot;font-style: normal; font-variant-ligatures: normal; font-variant-caps: normal; font-weight: 400; letter-spacing: normal; orphans: 2; text-align: start; text-indent: 0px; text-transform: none; widows: 2; word-spacing: 0px; -webkit-text-stroke-width: 0px; white-space: normal; text-decoration-thickness: initial; text-decoration-style: initial; text-decoration-color: initial; float: none; display: inline !important;&quot;&gt;AWS Services&lt;/span&gt;" style="text;whiteSpace=wrap;html=1;labelBackgroundColor=none;fontSize=16;fontColor=#4D4D4D;fontFamily=Verdana;" vertex="1" parent="1">
          <mxGeometry x="50" y="1030" width="227" height="41" as="geometry" />
        </mxCell>
        <mxCell id="xtmQm8H3WPaShv8IGNw_-179" value="AI/Run™ for AWS Platform Components" style="text;whiteSpace=wrap;html=1;labelBackgroundColor=none;fontSize=16;fontColor=#4D4D4D;fontFamily=Verdana;" vertex="1" parent="1">
          <mxGeometry x="570" y="1030" width="520" height="48" as="geometry" />
        </mxCell>
        <mxCell id="xtmQm8H3WPaShv8IGNw_-181" value="" style="sketch=0;points=[[0,0,0],[0.25,0,0],[0.5,0,0],[0.75,0,0],[1,0,0],[0,1,0],[0.25,1,0],[0.5,1,0],[0.75,1,0],[1,1,0],[0,0.25,0],[0,0.5,0],[0,0.75,0],[1,0.25,0],[1,0.5,0],[1,0.75,0]];outlineConnect=0;fontColor=#808080;fillColor=#8C4FFF;strokeColor=#ffffff;dashed=0;verticalLabelPosition=bottom;verticalAlign=top;align=center;html=1;fontSize=4;fontStyle=0;aspect=fixed;shape=mxgraph.aws4.resourceIcon;resIcon=mxgraph.aws4.route_53;" vertex="1" parent="1">
          <mxGeometry x="20" y="1110" width="26" height="26" as="geometry" />
        </mxCell>
        <mxCell id="xtmQm8H3WPaShv8IGNw_-182" value="" style="sketch=0;points=[[0,0,0],[0.25,0,0],[0.5,0,0],[0.75,0,0],[1,0,0],[0,1,0],[0.25,1,0],[0.5,1,0],[0.75,1,0],[1,1,0],[0,0.25,0],[0,0.5,0],[0,0.75,0],[1,0.25,0],[1,0.5,0],[1,0.75,0]];outlineConnect=0;fontColor=#808080;fillColor=#DD344C;strokeColor=#ffffff;dashed=0;verticalLabelPosition=bottom;verticalAlign=top;align=center;html=1;fontSize=4;fontStyle=0;aspect=fixed;shape=mxgraph.aws4.resourceIcon;resIcon=mxgraph.aws4.identity_and_access_management;" vertex="1" parent="1">
          <mxGeometry x="19.5" y="1080" width="25" height="25" as="geometry" />
        </mxCell>
        <mxCell id="xtmQm8H3WPaShv8IGNw_-183" value="" style="sketch=0;points=[[0,0,0],[0.25,0,0],[0.5,0,0],[0.75,0,0],[1,0,0],[0,1,0],[0.25,1,0],[0.5,1,0],[0.75,1,0],[1,1,0],[0,0.25,0],[0,0.5,0],[0,0.75,0],[1,0.25,0],[1,0.5,0],[1,0.75,0]];outlineConnect=0;fontColor=#808080;fillColor=#DD344C;strokeColor=#ffffff;dashed=0;verticalLabelPosition=bottom;verticalAlign=top;align=center;html=1;fontSize=4;fontStyle=0;aspect=fixed;shape=mxgraph.aws4.resourceIcon;resIcon=mxgraph.aws4.certificate_manager_3;" vertex="1" parent="1">
          <mxGeometry x="20" y="1140" width="26" height="26" as="geometry" />
        </mxCell>
        <mxCell id="xtmQm8H3WPaShv8IGNw_-184" value="" style="sketch=0;points=[[0,0,0],[0.25,0,0],[0.5,0,0],[0.75,0,0],[1,0,0],[0,1,0],[0.25,1,0],[0.5,1,0],[0.75,1,0],[1,1,0],[0,0.25,0],[0,0.5,0],[0,0.75,0],[1,0.25,0],[1,0.5,0],[1,0.75,0]];outlineConnect=0;fontColor=#808080;fillColor=#7AA116;strokeColor=#ffffff;dashed=0;verticalLabelPosition=bottom;verticalAlign=top;align=center;html=1;fontSize=4;fontStyle=0;aspect=fixed;shape=mxgraph.aws4.resourceIcon;resIcon=mxgraph.aws4.s3;" vertex="1" parent="1">
          <mxGeometry x="20" y="1312" width="20" height="20" as="geometry" />
        </mxCell>
        <mxCell id="xtmQm8H3WPaShv8IGNw_-185" value="" style="sketch=0;points=[[0,0,0],[0.25,0,0],[0.5,0,0],[0.75,0,0],[1,0,0],[0,1,0],[0.25,1,0],[0.5,1,0],[0.75,1,0],[1,1,0],[0,0.25,0],[0,0.5,0],[0,0.75,0],[1,0.25,0],[1,0.5,0],[1,0.75,0]];outlineConnect=0;fontColor=#808080;fillColor=#DD344C;strokeColor=#ffffff;dashed=0;verticalLabelPosition=bottom;verticalAlign=top;align=center;html=1;fontSize=4;fontStyle=0;aspect=fixed;shape=mxgraph.aws4.resourceIcon;resIcon=mxgraph.aws4.key_management_service;" vertex="1" parent="1">
          <mxGeometry x="20" y="1342" width="20" height="20" as="geometry" />
        </mxCell>
        <mxCell id="xtmQm8H3WPaShv8IGNw_-187" value="" style="sketch=0;points=[[0,0,0],[0.25,0,0],[0.5,0,0],[0.75,0,0],[1,0,0],[0,1,0],[0.25,1,0],[0.5,1,0],[0.75,1,0],[1,1,0],[0,0.25,0],[0,0.5,0],[0,0.75,0],[1,0.25,0],[1,0.5,0],[1,0.75,0]];points=[[0,0,0],[0.25,0,0],[0.5,0,0],[0.75,0,0],[1,0,0],[0,1,0],[0.25,1,0],[0.5,1,0],[0.75,1,0],[1,1,0],[0,0.25,0],[0,0.5,0],[0,0.75,0],[1,0.25,0],[1,0.5,0],[1,0.75,0]];outlineConnect=0;fontColor=#808080;fillColor=#E7157B;strokeColor=#ffffff;dashed=0;verticalLabelPosition=bottom;verticalAlign=top;align=center;html=1;fontSize=4;fontStyle=0;aspect=fixed;shape=mxgraph.aws4.resourceIcon;resIcon=mxgraph.aws4.cloudwatch_2;" vertex="1" parent="1">
          <mxGeometry x="20" y="1552" width="20" height="20" as="geometry" />
        </mxCell>
        <mxCell id="xtmQm8H3WPaShv8IGNw_-188" value="" style="sketch=0;points=[[0,0,0],[0.25,0,0],[0.5,0,0],[0.75,0,0],[1,0,0],[0,1,0],[0.25,1,0],[0.5,1,0],[0.75,1,0],[1,1,0],[0,0.25,0],[0,0.5,0],[0,0.75,0],[1,0.25,0],[1,0.5,0],[1,0.75,0]];outlineConnect=0;fontColor=#808080;fillColor=#C925D1;strokeColor=#ffffff;dashed=0;verticalLabelPosition=bottom;verticalAlign=top;align=center;html=1;fontSize=4;fontStyle=0;aspect=fixed;shape=mxgraph.aws4.resourceIcon;resIcon=mxgraph.aws4.rds;" vertex="1" parent="1">
          <mxGeometry x="20" y="1522" width="20" height="20" as="geometry" />
        </mxCell>
        <mxCell id="xtmQm8H3WPaShv8IGNw_-189" value="" style="sketch=0;points=[[0,0,0],[0.25,0,0],[0.5,0,0],[0.75,0,0],[1,0,0],[0,1,0],[0.25,1,0],[0.5,1,0],[0.75,1,0],[1,1,0],[0,0.25,0],[0,0.5,0],[0,0.75,0],[1,0.25,0],[1,0.5,0],[1,0.75,0]];outlineConnect=0;fontColor=#808080;fillColor=#01A88D;strokeColor=#ffffff;dashed=0;verticalLabelPosition=bottom;verticalAlign=top;align=center;html=1;fontSize=4;fontStyle=0;aspect=fixed;shape=mxgraph.aws4.resourceIcon;resIcon=mxgraph.aws4.bedrock;" vertex="1" parent="1">
          <mxGeometry x="20" y="1582" width="20" height="20" as="geometry" />
        </mxCell>
        <mxCell id="xtmQm8H3WPaShv8IGNw_-192" value="" style="sketch=0;outlineConnect=0;fontColor=#808080;gradientColor=none;fillColor=#8C4FFF;strokeColor=none;dashed=0;verticalLabelPosition=bottom;verticalAlign=top;align=center;html=1;fontSize=4;fontStyle=0;pointerEvents=1;shape=mxgraph.aws4.network_load_balancer;" vertex="1" parent="1">
          <mxGeometry x="20" y="1280" width="27" height="27" as="geometry" />
        </mxCell>
        <mxCell id="xtmQm8H3WPaShv8IGNw_-193" value="" style="sketch=0;outlineConnect=0;fontColor=#808080;gradientColor=none;fillColor=#8C4FFF;strokeColor=none;dashed=0;verticalLabelPosition=bottom;verticalAlign=top;align=center;html=1;fontSize=4;fontStyle=0;aspect=fixed;pointerEvents=1;shape=mxgraph.aws4.application_load_balancer;" vertex="1" parent="1">
          <mxGeometry x="20" y="1250" width="27" height="27" as="geometry" />
        </mxCell>
        <mxCell id="xtmQm8H3WPaShv8IGNw_-195" value="" style="sketch=0;points=[[0,0,0],[0.25,0,0],[0.5,0,0],[0.75,0,0],[1,0,0],[0,1,0],[0.25,1,0],[0.5,1,0],[0.75,1,0],[1,1,0],[0,0.25,0],[0,0.5,0],[0,0.75,0],[1,0.25,0],[1,0.5,0],[1,0.75,0]];outlineConnect=0;fontColor=#232F3E;fillColor=#ED7100;strokeColor=#ffffff;dashed=0;verticalLabelPosition=bottom;verticalAlign=top;align=center;html=1;fontSize=12;fontStyle=0;aspect=fixed;shape=mxgraph.aws4.resourceIcon;resIcon=mxgraph.aws4.ecr;" vertex="1" parent="1">
          <mxGeometry x="20" y="1372" width="20" height="20" as="geometry" />
        </mxCell>
        <mxCell id="xtmQm8H3WPaShv8IGNw_-196" value="" style="sketch=0;outlineConnect=0;fontColor=#232F3E;gradientColor=none;fillColor=#8C4FFF;strokeColor=none;dashed=0;verticalLabelPosition=bottom;verticalAlign=top;align=center;html=1;fontSize=12;fontStyle=0;aspect=fixed;pointerEvents=1;shape=mxgraph.aws4.nat_gateway;" vertex="1" parent="1">
          <mxGeometry x="20" y="1210" width="28" height="28" as="geometry" />
        </mxCell>
        <mxCell id="xtmQm8H3WPaShv8IGNw_-197" value="" style="sketch=0;points=[[0,0,0],[0.25,0,0],[0.5,0,0],[0.75,0,0],[1,0,0],[0,1,0],[0.25,1,0],[0.5,1,0],[0.75,1,0],[1,1,0],[0,0.25,0],[0,0.5,0],[0,0.75,0],[1,0.25,0],[1,0.5,0],[1,0.75,0]];outlineConnect=0;fontColor=#232F3E;fillColor=#ED7100;strokeColor=#ffffff;dashed=0;verticalLabelPosition=bottom;verticalAlign=top;align=center;html=1;fontSize=6;fontStyle=0;aspect=fixed;shape=mxgraph.aws4.resourceIcon;resIcon=mxgraph.aws4.auto_scaling2;strokeWidth=0.5;" vertex="1" parent="1">
          <mxGeometry x="20" y="1432" width="20" height="20" as="geometry" />
        </mxCell>
        <mxCell id="xtmQm8H3WPaShv8IGNw_-198" value="" style="sketch=0;points=[[0,0,0],[0.25,0,0],[0.5,0,0],[0.75,0,0],[1,0,0],[0,1,0],[0.25,1,0],[0.5,1,0],[0.75,1,0],[1,1,0],[0,0.25,0],[0,0.5,0],[0,0.75,0],[1,0.25,0],[1,0.5,0],[1,0.75,0]];outlineConnect=0;fontColor=#232F3E;fillColor=#ED7100;strokeColor=#ffffff;dashed=0;verticalLabelPosition=bottom;verticalAlign=top;align=center;html=1;fontSize=12;fontStyle=0;aspect=fixed;shape=mxgraph.aws4.resourceIcon;resIcon=mxgraph.aws4.eks;" vertex="1" parent="1">
          <mxGeometry x="20" y="1402" width="20" height="20" as="geometry" />
        </mxCell>
        <mxCell id="xtmQm8H3WPaShv8IGNw_-199" value="" style="sketch=0;points=[[0,0,0],[0.25,0,0],[0.5,0,0],[0.75,0,0],[1,0,0],[0,1,0],[0.25,1,0],[0.5,1,0],[0.75,1,0],[1,1,0],[0,0.25,0],[0,0.5,0],[0,0.75,0],[1,0.25,0],[1,0.5,0],[1,0.75,0]];outlineConnect=0;fontColor=#232F3E;fillColor=#ED7100;strokeColor=#ffffff;dashed=0;verticalLabelPosition=bottom;verticalAlign=top;align=center;html=1;fontSize=12;fontStyle=0;aspect=fixed;shape=mxgraph.aws4.resourceIcon;resIcon=mxgraph.aws4.ec2;" vertex="1" parent="1">
          <mxGeometry x="20" y="1462" width="20" height="20" as="geometry" />
        </mxCell>
        <mxCell id="xtmQm8H3WPaShv8IGNw_-200" value="" style="sketch=0;outlineConnect=0;fontColor=#232F3E;gradientColor=none;fillColor=#7AA116;strokeColor=none;dashed=0;verticalLabelPosition=bottom;verticalAlign=top;align=center;html=1;fontSize=6;fontStyle=0;aspect=fixed;pointerEvents=1;shape=mxgraph.aws4.elastic_block_store_volume_gp3;strokeWidth=0.5;" vertex="1" parent="1">
          <mxGeometry x="20" y="1492" width="16.41" height="20" as="geometry" />
        </mxCell>
        <mxCell id="xtmQm8H3WPaShv8IGNw_-201" value="" style="shape=image;verticalLabelPosition=bottom;labelBackgroundColor=default;verticalAlign=top;aspect=fixed;imageAspect=0;image=data:image/png,iVBORw0KGgoAAAANSUhEUgAAAMwAAADACAMAAAB/Pny7AAAA81BMVEX///9N0OH19fX/zIDu7u5CQkLr+ftn1eU/zuD7/v5H0OP/y3359vb/+Pet4Oj/yniz6fH0/P1m0NnU8vft8/Try4r//Pn/z4nd9fjO7PAy0Oj/472q5u+a4exMxtZN2OpCOzpEYWWC3en/37L/8+NDUFJBLyzH7vQ5OTnWzZv/7tn/1pz/9+3h8PJLushJpLBFdX1HiZNhYWFVVVWBgYGxsbEsLCwjIyMAAABbjpCQzsbF0azEr35bU0k1OT9/z83DoGonMTygzrzbtneojGJuYU9AJR+Xl5fJyckTExPf39+64OHr4sbizZbNzqOwzbPD2stuJVtuAAALHElEQVR4nO2djV/aOBjHKQhN02KLIBRopxalClSnm3PnbmOnu9O5t/v//5pL0rdQ+oKzeWQ7fp975XJpvnmSJ0+SJq1UNtpoo402ylfDbLuGZdlMlmUZbts0W89dqser4Vq2I8uyJGEJMUlU5BfZsS3310FSXJtSSBQAS7ww9n8lVI7V/gWA2o6EcAJiWSQFkmRjrXlaVtigVhJCsrumPErDfgyJbyGEbFN57pIvSTFt6bEovnmwvW7dp2HQrvJzojjPZx2lYZqLI4brPLqFLeBIViPMqkXzbgDBNVyDDSFkvAjrU7F+roVxNMhxWU5tK8jccBt5pShFLcuRgmGQ+CK7TX8znaeyUBzZalXathzmLUmOJbgr+aNIXJ+sBPLTUSQ69DgUJf53JDltoSxL5ca2Ef+G42otUpgyESIkEskCacwUG0TlwdROrul5faPQSSPJNvqeZ7qWnORJ0JiiWFpOdhkxkg2t2WxqRORvXk43Qtgx45QasWw2DnJE9Rs3uwoxRdGqkRhOahlJ1/CazTilRnFyjOOKYVHszMrGpIAcCiuk5sqp1K6WTNn07EwaZIsZccy4lZ2enZ292IsfaVUTBWSF7C/XOHb6aSmrFpfmBcn8NIJxxPSadvS4s6PxeP9lRIOMpFmCMppLtnHM9JRNI6qovfN/xuOjs+h/EePQ3PB5Z/X9er0+PohaQrLhRD0nYRss95vpKTUtasN7pyTz/XpIg8R0mgjmJWWp7x/tBQ2hk8FCypjwGW52yk7ciM/HJPeXYmHClvDigMGMTxkMltJbTlDhDm8aJ8uENKkZeT/6gP2DF2EbBoDZfxkYxsosHy2ix3lA5GWzEFlR0rMxByO4mdFmUN/3H4al/BI2Y9NgJ6PDhNy8acbnYptZ5M2oacbngWHs7B7DYPpRfaOs3h/AdOJx7Oyf0DCivFkj7KJ7L86PjqJWEJRlK6uQsWXClFlJ3XgcOw/9PnIETWu4sUAKWLBEB0Ht4e7i1ev7dNOEVYD8Vnb/+tWry600a2r9OACKBmRB/Z8zDdenZdplti6ujuvHx5epMGG/RhaFuTx+Uz++ukgzjuYtB+XCDEOnM8n4hA0ylbsr6quP6w9pMGGnoV1Ge7g4ZknvKikwnaXKwiInNEtxM+v/FVbAev3qXimAIYZhKY8v0izTWY5kBcXMTIqbaAkMRglg3lyuDpPSa5ZgkOyKXaRJrFr6zeyVX8TPaS5gEea+HsCkYCeaGUK28PWZVptfIkMOcQCV+7fMMKnduhk6XOQSmIfXb3wbpvUZj4dBDsg6p9KIZx+YeTPl7u3Vm88Xaf2/2gzbDrIJjPJw8fnN1du09ki9GedfwNY4Xa4G2WSrsnV5d582QSMwYQmxTF2zotzfXT6k2IWNM5xhRHZ9XorBtbMgziQ/pxWQdIQ4nPEDH1LjaXap8pEmHSyBLNPivI4/amaLm0KSCWleysUxEwxmYfksCs7SS6jF/QDLOdOZKh+asR4GtM3Rlvin5kw0FwxTYJqkYxa2YJaEWRjbkJEzffQWljTymqRmLOYqLihblJGIOtpZFa5VFxfEsJ3u8agJ24t5IhkGpmUlo46MhqZVt6WEtjNotE4yYoaCScaDhCbNNprGWPaIwr8SmlQn0FxiAYNZntbI5jKNVrUwJhCn5wdHRAfnpwQH47TFz+byaiEUTCNlDiUZyTI2mXfaO6uP9/3gcn9cP9tj3i8BrlWNlC0DMJilJ9MdjT5pV4xIoy2pY7FwlC3kRGJLLghZnSARSU7+1k/d03hGGLYlaHidTqdK/vT6/nbTnr+QG2mf2YZuNfWjpIacvtH2rDBsZ092bNt2ZP9tH9Jj/lhgITR/sJeB6H8PkmbuGT4zjBRtavr/LF2/+/P9B57lw/s/310HSzBpW5p8zQANmjkwPNf8e09XP77/K8L58Nf7j6re+z5f5U0OqEFzJZjBza6u1mq1209/E4oP5I/6359uyQ+qvnsz+LVgBjc1ikJ1e/vxE9HH29vgB7W2As0aNTO8E7GkSK0VtzSoqHkFmMFuDguh2S00zfrADK7zUKiui2jWCOakCObk14HB+a2MtrOiTgM1bS6EwTvFMDsFNBsYETCSVAxTlMP6wAy+F8F8L3QAawOD5xyMHomDKRw1kQWzCLhKBPBD93FUXe9NR8PJZDia9kIcVf9RHAEArWiuEpvh655vjNFsK9Js5Jupd10cN68TDJmD7VzfzL9sJfTl+uZ6B68wB1grGIqDB9tJmO0BXgVl7WBoiZZhVn1reAOzgdnAbGA2MIJhPO83gHECiO2Ayss5TbDuMIFpqp7jeNqjDEP+z7WDwWi743l9ByHH9LzO9upn7NZoCsAVSnLYngXdIXjMYa71mZzxwvFhocccfVxPmJ8UHMzPni5dQ5ivRctEZQjPv0KwjArXvMqB2R0CsOhQMLpwmpFevBpZCszOriqaZqSvsLRaFkxNLM1QX2WduDQYVRVH0x2qKihMTa0Nu6JY2EYlEAz+xh4miCZgAYIJd98E0QQswDCURgCLqq66UVQOTLgtIoAmYgGDeRc9UJ2Uy9LVox0XKJgf8W6OXu5E7Wu8U6R+K7y8qBSYG26/qlzTTMFh8JyDGZULw+3rnQCg0FGzJwpmxG1IFr5dUT5Muf5swjWzwp3icoQ4mMNSYbq9iEb9FwYmfjNKn5a87DSp+TS6PrQesWL0FJivwe603ivXMJRm6u8UD3PuBSlVyBj6O9bTksdMqtlkOBoNZxVl5fXiJ8JYlRl94mRWPgtRt0sD2BYMi4Ts6JHiBAUjyUIxfJlQMBIADJAzI+0MAAao/xMYgAVaIBR6GYpwFgWsyyCh984xNeBgRF2fEcuFg7GFwwAFMxTGEQ4D5swgRk0wFEn8qKlAzP8DYdG753DBDOk0os8DwTkzAiPsEs1AYJGZBHCPBpxnBhg1HUAHQOaaYgXxQkMk0SEAxKsmkUSHAJAsokMA5XeCaYDCCI5ngGHExjMmLIzYeKZdXIANTIbErgJsYDYwG5j/MQzwoCl2qgkbmwkeZ2CnAILDmYoDySJ6FRByQUP45KwNuaAhetoMtj0rQVzZCugBxO8DJu+dFCcMsHf+O202Ae42i15qrgD6M4j3AJRyPmtWzCJ6cZapDwQDcltb3hfCSmRxYE6duqvd6fE0YfGvNDAt3aQrQGA3aad+Vq9sARmGyBD90jnUOW0q0e9pCvzAYYpSrjkuVeLfAeLVFhk9Q0RlC8r5hOOTWaBuno9liPIBsB0mohHSb4R+qzWHRoSDfiaWSuVL+afPhH5yKk+z6cm85OMng/mJmFf/i9Tt6eq3Fa73W114cP1N7z0HTbdHT1L3bsoLoTH6QfJUn4GGsdCjOidSSU1tsHPCToPC08x60SEq/WbFSwvzRHL4Ed6zCd3SZvxZR/1k/kQnTVBIb4kP6U4haRZYqHG+z6VHXfiTkDw/4W9zremANF3+2KZflYeGk/EdiSKjIEm2+9NEhvpI7IkmTpPko6eHZDLdt7M/JpEleh+VQUKxwyUaAafmUpU0THj2UDHdx/BgRtL2I+TDXiJPKNPMFquRdz4tyiPlfCMj4qCtyzXjWD9Bo0+fBSbpSFuNACgNyf9yiCQ7FgFZXH9ZpAFzaAswqYNCixE5sowWJcuOzTBaKesVCzRwHoBzAPkDnKIorUaj3W6bjUZLoV8FzMuWpxF/UVP01Mg05Q7Wh3FYATjQTHrsfhBVnZZ7hvpwGuRb/tnsHE2mvZpa643KfubMz7fkOipSdzIcDQUMbN1Dmi/Y8L/RRhtttI76D32CIv1N6stTAAAAAElFTkSuQmCC;" vertex="1" parent="1">
          <mxGeometry x="540" y="1200" width="21.25" height="20" as="geometry" />
        </mxCell>
        <mxCell id="xtmQm8H3WPaShv8IGNw_-202" value="" style="shape=image;verticalLabelPosition=bottom;labelBackgroundColor=default;verticalAlign=top;aspect=fixed;imageAspect=0;image=data:image/jpeg,/9j/4AAQSkZJRgABAQAAAQABAAD/2wCEAAkGBwgHBgkIBwgKCgkLDRYPDQwMDRsUFRAWIB0iIiAdHx8kKDQsJCYxJx8fLT0tMTU3Ojo6Iys/RD84QzQ5OjcBCgoKDQwNGg8PGjclHyU3Nzc3Nzc3Nzc3Nzc3Nzc3Nzc3Nzc3Nzc3Nzc3Nzc3Nzc3Nzc3Nzc3Nzc3Nzc3Nzc3N//AABEIAL8AywMBIgACEQEDEQH/xAAcAAEAAQUBAQAAAAAAAAAAAAAAAgEDBQYHBAj/xABAEAABAwMBBgEICAQFBQAAAAABAAIDBAURMQYSIUFRYXETIjJCUoHB0QcUI2KRobHwFVOC4TNDcqLxFiREstL/xAAaAQEAAwEBAQAAAAAAAAAAAAAAAwQFAgEG/8QALhEAAgIBBAAEBAUFAAAAAAAAAAECAxEEEiExBRMyQRQiUWGBkaHh8FJxscHR/9oADAMBAAIRAxEAPwDe7N9Iluqy2K5RvoZTq/O/Gf6tR7wFuUEsc0TZIntkjcMtcw5BHivnhe+1XevtE3lKCqfD7Tc5Y7xbotSzQxfMHgox1TXqO+ItDsP0h01QWw3iMUsn85uTGfdq38/ct4p5Y5oWywva+Nwy1zSCCOxCz7Kp1vEkWoWxn6WXERFGSBERAEREAREQBERAEREAREQBERAEREAREQBERAfOikFQaDrzUgvozGZUfqsrZL7cLLLvUUx3M5fC7ix/u691i+aqF44qSwzjLXKOvbO7ZUF3DYZcU1Wf8t7vNcfuu5rZmr5+aOY1C27ZzbSroCyCuJqaUcM5y9o7E6+BWddofev8i1VrdvFn5/8ATqiLyW24U1xpm1FHKJI3dNQehHIr1rPaaeGaKaaygiIvD0IiIAiIgCIiAIiIAiIgCIiAIiIAiIgPniWKSnnkgmaWSxOLHsPqkHiFRb59KFh8lKy9U7RuPwyo7O9V3hy/BaE0nnqt6m1WRUkZFsHCWCYUgqBSUpCyoUhrlRCkEI2ZC1XWqtlSJqSUxO0JGhHQjmF0nZ7aumue7T1IFPWEcG581/gevb9VygK/BIGHBOAeahuohaue/qK7rKHmHX0O6s0PipLn+ze1slNuUt1e58OjZzxLfHqO/Lvy3yB7JYw+Jwcx3EOacgrHtpnU8SNnT6mu+OYP8C4iIoiwEREAREQBERAEXiulyo7XTmor6hsMY5nU9gNSfBaLc/pJdvFtqomkcpKk6/0j5qWumdnpRzKcY9nR0XI/+v7652Q+mHYQ8P1yr8H0g3pjh5RlHJ2Mbgf/AGU3wVpC9TBHVUWi0H0iQPIFfQyxct+J4ePwOPyytio9o7PWY8jcIN4+pI7cd+BwoZ0Ww7idxurl0zMIoMc1zctII6gqy6tpWkh1TCCNQZAoiTKFwpYK6klpalgfFKwtc09CuGXy1zWe6TUE+SYzlj/badHfvnld8Wq7f7P/AMZtvlqZm9W0oLowNXjm35d/FWtLd5csPplfU1b45XaORNdyVwDCsaaDHZXGvxwWwmZTZdCkFEKQXpwySqCqBSQ4Zfp5Q1wacZzkEjmtk2ev09nk8nuukpHHzos6Hq35c1qvhqvbSv3xuv1C8lCM1tkivJyql5lbwzslvrIK6mbPTSB8bufMdj3XpXKbPdai1VHlqZ2Wk+fGTweP3z/uujWq6U90pvLU5I9ph9JpWNqNNKp59jc0WuhqFtfEv50ZBFQKqrGgEREAWK2jvVPYrc6rqMuPoxxtODI/kB81kpHNa0ueQGgZJK4ptpfnX68OfGT9TgyyAciObvEn8sKfT0+bL7HE5YR4Ltdqy81rqqtm33eozGGRjo0LyN0Ci3TTB5qbVsxSXCKcmXGjU8uqsR3ClfOYWT/aDhjr71ec0uaQNSDx6LW6S0VorGNMYaxjwfKHTA6KO2ycGtqyRxjGSe5m1jpz5q4AoBe62W+puVYyno4y+V2uNGjqeWFO2ksspNNvCPMGg6gZ8FkorNc5I2vioKksIyCISuhbP7KUVpa2WUCoqx/muHBp+6OS2DKoWeIJPEEWa/DdyzN4JqLs5GFJFlmucq+kTZv6jVG7UjcUtQ77YN0jkPPwd16+K0vkvoKsp4aunkp6mNskUrS1zHaELie01ilsFydTvLnQuBdBIT6bOmeo0IWnpb9y2PtGVq6Nr3rpmLY4t4clfYQ7iF5+ZyqjhxGqup4M9yweoKQXnZKR6Y96vtc1wy05XSeRlMmpxu3HBw1CgFIaocNZ4ZlGkFocNDxC9durqi31LailcQ8ajk4dCOixtE/ea5nsr1N0XrSawzPe6uXDw0dLst4gutOHx+bM0faRHVvzCygXKKSpmpJ2T07yyRp9IaeC6BYrzFdIccGVDR58efzHZZGp0rr+aPR9HoPEVetlnq/yZhRdr/ZBx8FrW2e1UFgpfJRbslfI37OM6MHtu7fqeCqxg5vCNRtJZZhvpL2kEEBs1I7Mszf+4IPosPq+J/TxXMhqrk8sk80k08jpJXuLnvdqSeqgFtU1KuO1FaTzyTaptUQptUqK8mTCmFEaq40dTwPBdFaZfpoJamaOCBjnyyODWNaNT+/iuubNWOGyUAibh1Q/BmkHrO6eAWvfR1ZQyI3advnvy2nHRvN3v0/Hqt6bpwWVrL9z2R6Rd0lKS3vsDRVRFRLwREQBYraOy099t7qSo812sUo1jdyI+I5hZVF6m08o8lFSWGfP9woam21stJWs3JozhwGh6EdsKwux7Z7Nx36j34t1lfCPsXu0P3T2P5H3rj80MtPM+CeN0csbi1zHagrXouVsfuYGpodMvsQVRw4jVUQKYptl1s7m8HDKutnYdeC8yqEy0c72jJ0UrDMAH53gR8fgsmMcjla5D/jMXvavd5Tvn8xltOJwB3Uoqz6rKyWCctlYcgt5fvosSFVeOeeMFbzWnlG0Xfb+sjoGtoqVrJy3Ek7jkNPZvz4eK59PPNUzPnqZHSzSHee9xySe6zOMjiOH6rxVFBnL4iAfZPBR1whDpG9o/F1NKN75+pj+akEcxzHYe0g91UKY2G01lEwrjVbarrBk4AyV0QTZJoWY2dtD7xcoqcf4Wd6R3stGvyWPigPAv4Y446rq2x1o/hltEkzd2onw5+fVHJv76qtqL/Lhx2VKZLU3eXDpdv8A0Z6njZDCyKJoaxgDWgcgFcVG6KqxjfQREQBERAEREBF374rU9tdlG3mI1dG0Nr2DTQTDoe/Q+48NNuUTrhdQm4SyjiyuNkdsj58kY+KR8cjXNe04c1wwWnphRC6ztjsjHeGuq6ECOvaOI0EwHInr0P8AyOVTRSwSvinjdHKw4exwwQe4WtVdGxcHzup08qZYfRBVCoqhSlNlyEfas8V7gvJSNy8nsvYF4UdQ/mKhVRF4VQiIvDwFrXDDt3+pWHUkJPokeDuCvovSWu+2v0SaLLaSIcRvH35V1rGs4NaAOyqpwxPnlZDE0uke4Na0akngjZ1K+63iUmzPbG2j+JXHy0rM01OQ52dHO5D4ldNbovBYbcy122Ombgv9KRw9Z51P76LIrJus3yz7H2nh2k+FoUX2+X/PsERFEXwiIgCIiAIiIAiIgKLXtqdlqW+xb4AhrWjzJsZ9zhzH6LYkXUZOLyjiyuNkdsllHBblbau11TqWuiMco045DhyIPMLx4x+i7vd7XR3amNNXwCWM6HQtPUHkVy7aPZZ1jqmFlQyWCTO4DwkGOo5+K0atTGfEuGYGr0MqczjyjD07dxnjxV8KI7jCkFYZ85N5fJUoiLwiCIiAIiIBy4Yz3W6bA2jekNzmb5rcshzzPN3wHvWtWS2S3a4MpYiWtPnSP9lvM+PzXXKWCOmp44IGhkUbQ1rRyCq6qzatqN7wXReZPz5dLr+/7FxuiqiLPPrAiIgCIiAIiIAiIgCIiAIityvbG1z5HBrGjJJOgQFq4VcNDSyVNQ7djYMk8z2Hdcqu1wmuda+pn4E8Gt9lvILJ7TXt12qQ2LhSxnzAfX+8VgXZ45RMydXfve1dItuGSoaK4VAqzXZKPRk20V2dooioVFWo2t9lKWiXsyaK2SolSqWSJ6XHuXSQNVRhfNIyGCMySPcGtaBkk8v38lZ4ZOfwXRtiNnPqMbblXMxVvH2bHaxA/E/ovLLFXHLLWk8P86zavxMtsvZGWWgDHHeqZMOmf36DsFmxojdFVZUpOTyz7GuuNcVCK4QREXJ2EREAREQBERAEREARFaqJo4InSzPayNoySTjCAlI5rGlzyA0DJJ5LQtp9oHXBxp6QltK3U/zT8lTaK/yXEmCmDmUoPEHgZPHt2WAcoXZl4Rn6i/PyxLRVtyulWypImfItlRKk5RKniRSIlRKkVEqzEhkRKgccSdMKYBc5rACS44aBxJPQLfdldkhTuZX3ZgMuscBGQw9XdT06eOMSSsUFlntOnnfLbEs7F7LEeTuVzjw4YdDAR6P3nDr0C3tuiM0UlQsm5vLPo9PRCiG2IREXBOEREAREQBERAEREARRkc1jS55AaBkknRa3dtpWsBitwDnaGVw4DwHNcTsjBfMeSko9mXutzp7cwOndlxHmxj0nLRrvdai5yh0x3YgfNibo3+6888r5pHSSvL3k8XOPEqyVTlc5v7FK21y49i07r1Voq65Wiu4FSRAq0VdKtFWIkMi25RKmUiiknmbHDG+SQ6MaCSfcFYiQstFei326ruc4goonPcfSI0aOpOi2azbETzES3Vwhj/ktIL3eJ5LeaCjpqCnEFHC2GIH0Wj8+6kdqj0WqdBOzmfC/Uw2zmzFNaAJpS2asxxkI4N7NHxWwt0VUUEpOTyzYrrjXHbFYQREXh2EREAREQBERAEREBCR7Y2lz3BoHrHksNXbQQRAtpQZ3jno1RrbJU1BJ+umQ8hIDwWOl2erW6eSeez/7KhddqOowx+py8mPr6+prnAzvyBoxvBo9y8LtTnVZV9kuI4/Vf97fmrJs1yP8A4v8Avb81TULG8yTK8kzFnRW3LLCxXR/o0p8fKM+auM2Yuch4siZ/qk+SnhXL6ELhJ+xgCrbltcWxtS4/b1cUf+hpd8l7oNjqFrgaiWeXtkNB/Dj+atQrkc/D2S9jQXEDjleyjstyryDS0j3NPrvG638T8F0ils9uozmno4mu9otyfxK97Tw4Kwo4O46L+pmlW/YfjvXKpJH8uH/6PH8AFtNBbqO3sLKOnZECOJaOJ8TzXtRdFquiFfpRQKqIhKEREAREQBERAEREAREQBERAf//Z;" vertex="1" parent="1">
          <mxGeometry x="540" y="1290" width="21.25" height="20" as="geometry" />
        </mxCell>
        <mxCell id="xtmQm8H3WPaShv8IGNw_-204" value="" style="shape=image;verticalLabelPosition=bottom;labelBackgroundColor=default;verticalAlign=top;aspect=fixed;imageAspect=0;image=data:image/png,iVBORw0KGgoAAAANSUhEUgAAAOEAAADhCAMAAAAJbSJIAAAAYFBMVEX///9i2vxV2PxU2Pz5/v+87v1k2/xq3Pzc9v7n+f503vz///6i6P3j+P7U9P6w6/1/4PzE8P2Y5f2n6f30/P+H4vzL8v237f3J8f70/P7t+/6Q5P3R8/6W5P2T5fyE4vyHXrlhAAAOSklEQVR4nO1d6ZaqOBCWsNMICNKKOvb7v+WApCoL2VzxnpPvx51pwZiiKrUnbDYeHh4eHh4eHh4eHh4eHh4eHh4eHh4eHh4eHh4eHh4eHh4eKyC6HNq6betd/vAQw+VQnvtrGVcvnNerkF3JiP+K8Z8wOe/2949QlUVISDBh/E93ev0cn0HezFNri4BOsb+PDXmZzCMACGnfNNeHEId0XkDhNMX04Pz93yYMFiDp4+L+atT4+DkKJzbEPy5fr1KypO82wPbdM3dEzCYoUDix4Wj9dtZo6JvwHYsxYxI2ahqZDYWZD/uzQj4Zig/RYAYSRUhRnhtCJJVRGr4byw9kRHFmSieMP0aGHkxGd/MHp10b8ESSNNN89SQKKAmL7jcfxgtZARfC6FN06AFzSQfuw2PBzz2sld/cifSlNbfqSnqNdO+dvQNgmskgfp713PxJs1QZ0Vl4CH+S/TzTC8kb5+6Ghs7wsrgiKknZAdimwhNYCHIEl5YDfxYnqgr/VBcvHBWhKG4xT1+q8n/gjv4d074DB+pIanw05gsE5Mx93vI2Qq0vgYlriykV0lR3PWcqhxSwVCNOD5FG56S39AadJv4Q6DwNXnLHqElm658nnITqDV5FxcPdvX0HcjqLX+0dP5uMETTyY/ybY2BhcsuoJJ8Nt7wfl3m24WC6KWKGI9xtdmwJhmZjR52ldT03qkls2qBDqghnBQ2cv6Gk971sto/gOs+hsd33u4wf7OEf1dPhqgHGn1XRUPDaZSawt3qc9LGsq0znpULUfqeAQfBUg9AUcVBQlUTsMeYbkdpUPgfeD3WKikBR756c5FNI7plDwyi06JgZJ3LH83sTonso5IMlp0nvv8DkR3eslIp3RZ2kdPi3KMzEfEzo8JWvoDBwldJcMhYucd83SCl1vO26IEqRMvwfazL0GzQN6FLrHFCNkqpEGm2+yvYbrIWjxb9i6mw0E+iHa4NKiuobLD7ljcVBwUh/1i+Yv7G4s+C1rVpq6+epmnMp6HbTrGIEOWRLeYlmatatXtBMgzGEy4FAzH6j3jEvYMr68IFa5OtAUxTEcMtITiIL5QmUTWiKG+jjWzc+pJ6YKfeOajTlbtqC/ScGBjUOAvJ2VNalgsaBCAHvxUHbUNYrU7EfQx5aTBZmZWQfBvSroTRFv7putRvStrppbhdaBnGFpahz37bf4LRBCKwzFxHmLvpNNJzyfMsBHTmNb0PX+NqFC1oiEtyTW/F+v62OMYt501vxUwBeK3JlMpKm2sKV+xXociIcH07ZoS2SgMjFYD1IkBRNe6hyQSXTLFewco20EjyrfFc2iTtlEp0kJMW5rmb78QMSvnYpH2K4elPVf0H4GG0inSRt4yzaDF+hSjeoaoJHOacjs6C6dt3ocEJrnuvzxK7dNbS/i8KFGnX4yu+amuZUFw6THQlK0uLvfG3LrqvrQ113Zdme+6ZIbxetX+936xA57BqtYuHn3QyG0lu0ZwV9PW8JaT9v9qteM59J5ZeHqse/jaXFDQbRo3f2W1+LIFSPS4Luk5Y/igtVN9rIhKbcbSeRYv6oVRXukdm3ofNLp7Y6o7R+ipFDqXzMSR9vcb1gr5u1ssiy/ZwDmnP+Hk9k+gnTcWo14sm7pgdkoUt1s1eMcNKsgaR+s9YZSlk8iSLCxem5RT4DMJFLSqICkikl702f1tIPjmsjHmoizw9tpIOMTgByOI5TMU+jy0JmSOpUm3sEUrfyqFfiaUrQPYIuMqoZ58AHVh2GmcDWySmNdo1EZPj3ntK+0Kk1MhObJalrih0FMF/3zklIOGK8D6lSmu7OO7mT/w2BfyYwMCw4P4OGqiCmWCi8oyMNGqcSOipVPoT9SCW2S5PGZmfvxYEfn/wJaU5JTDHaUC6XSK0LE4HtkaovUbJSL072X7mxw15O48L0bssOLcVSzRyvRZokadPJA/wwo3gTdRBSyfwNnVBHdugAcUXE9cIqml2xi3BiQIQ3Stogb9FTIWFykFkpKJtGPcRIY8s/6tcFx1wHZaLynKCCPZlsbNCW0oedpCrkgSALPvUHgeJRGZucf9rXFxHIPChd+jbFpcF8EYFJ+2WYJY8FRrRh1RC1bd9xY7yGxD82Od3iBgZdsduOL2v+LKv4t1vEJCs2dmf4wDS/NjA2vqSVn/mYvVZBo43HSpqQIYvkpjY6oLiO4If+oKbxn3ZOrLk6fN6/YVUiU6EXYgm0FAK3lYFCsNCViTiIyRxcmFw9XV2EuYfxxrARbSctM6FeFC/WIHJAmN5Rus80rS3e9WwvP9opc2QmyaGYIDOkYsQOZ2FbmMUxw6X9rOUHibGtaDHlJjzXg4FC0eIdQ+0lCT9ck5VjAKNBZbBMArbC5ISYQt6wZ2AUf6u1gR0rkE8lcGbWJNZ0kqhNBBZqonUKsSrBNUs7CB/sOX7Ke6NC6tDQy2m3cKu5oGKi6L1hTdHaTrS5Q8AMgO5Ah8z6D5ucqN1qM4Xi0KiTncoV8JN3UCSD7ttyCvRYZkV0zUuZKJFCSRhh0omLmTsr5eAuUAodJGbDbbUUPzYXNuQgEjjuZOXAf30ip0G1hBMPUUtIgleapVTDQydXhT68p5qmlHNWgylTUc+bzOFiaFy0TgrS4qE7gXZXOujSLdHM2qxLxW6qiLti/8lFku8RQJLJbg95hSIw8R57yG/ItCtTyAQ8FUHBY7J2XkU8HY/6NAM/iJUzmEd+rkrs6jeIq+2svyRRKKhBQSnZtjttX+OX4iqyCY10HsYjscXPnmivLYENnE9v/MIEtpHETKJCMGf6+FBkoWQ5jUYA98KRp7eY5hjjmxY0TA5/V3iwbjE+qqRUdZXHzyZjgzxfbcPTdUw7BuU8TSIsjkFDoPj4oVmxOVqtAM7pVulwOgTHBJaETXQiDw5zi8wUvTF1rk1U0FidqWCDuC7w486beNHZJ2yjss70QyFly0RN9PROy2OEwqtyjEk1tsZfu7A61MvOBeHyk4kqezdwYqU7lERyT0kgpXv5nDfoLZXHv+e3Sr/u4BN+1GYpO1BImcw3mn65Rz2/soI4CQ6ylyTULUDXLFcFH20+F9xL4Mv34VmmUSik4BwWajzalUUSJOlftyx+wEqey6wQFsliGvNV9pcW9H/EhCgRaQRLTfUnZoXvMcVQoJtpOnGlHkS04wvBJH11S18u1FZIw9WAj2K1D9In9/j8cg2YukjchpOTWOgOz2/oOhHrY1yvGag+WFqsj8t1aAi9UPCgvwNUSXaW2qTe03KylUpkJClvkiJv+mHtNK7pBfBq0cTkvDbddpKtCc9v2woVSy0RQVjUWcZp0hmobBxrChgHMQ0E2nSbjeRJD7Z463a9etG/gwxj2gerGG7qDnv3OCfnQOTxUXDevaU0qscfCRTg9R6rIrn0hOC65TS0rq8teHdf24RI7v2akZQxmyGGiw5yiuUt9FCi7NArfuFD9N1w1PWXFmV8Uz6srmqVKQw8bkIwVIc2VXcLf6b3ErFtlYy8rZvieshYj7DtqeOd9aXuNcQFn+yfRURHuaFOIBPRa7qg5kEizlnSd7WTZKVDd0+xnkie3CRt+nNbll1d14fD+E/Xle21b267o+zfD65r7uYe9EkYFa2PbLhYe9MMxHL3TPourH0iHfgv7VGnAh8jKyyuEG68Mgp8BLPbfTMK+0tXPL/Da1LGXTWw/YdrHw1JazcYrOW/s86/n9Dbd5pul1HdC5UQt+rl20CTFvL5rKcq7treVLGQaEuatosrYRRw/dY9rw0Sxppgl52clPCadNotyofr1UllMiHQX3mrM6386lLrfNIm2p/ybVaNyLb5KcK8vDbnCVp63e3qc+Cv13egLpa5z0J7Rb5j3X2yczuE/oxH1hQtueCYZtZnc1rrHZ/A/JwNW0ew/Uw8xgQTxInea8Uo+HXTfQDzYgoNd7B9DCfFh6bjWzBwXHOfLKRKTfewnQxoDH6dwkdISz7XmvckzMaCAs0i3Ib1VHOTByTcVj0oKjMbixmsfDgnHLfS3zpgb/uah31RQbL027A9s5OPiRV44dQhFeBba8ZPR4s5pGDr7rrZs0ydzR2D6GJNkz/Hv/aHzNKfJXsdhjXwe0mL7JM4OFKo6N9zOP0SaooOTWdvw+x3uqS2W4lEF8ZAGm5Nt41S6KLspPeRuPDlH6NQ6Kpx6/P5IgrvPinZ7Qy2vy+g0FnTjPjleOimO+CRrPmuGWotXAxWLOw5cdo4CEXENa3FHOK79LVIhzGQxiFgAIu/pk9DvTYrR6J+YQ9Ta4IJ/dI1j9mlHqctCj+lMn2BQ8jwFbEFHGZmvovfWEhYuGhbX7/fEB/CYdBGieOX4ChxbA+e5Q0Q9VdkMRqrLhBfXTUJXMV9YBJAMBbrZqI6WwgsbuyiLwtiH5jecwHfXNPxZvzQ9FwITUbKFz4Ra1vuuieW47sD1LMQtxfwNuXKvRayVa9G7KF/9Skmd4J6x6oC0U4om4ai48Ptwlh0096A6aon91M8Db57VsBOakaThTHj39ylOBgJs/5rV7kjrnuZ+/QgdsCpzmMQ/BySSnxkZ0ivLKSsKZMVwYbqLDfbqfkgdDmQoOYsOyNwXU06gfVa9r/T2cFlI3cthIo3WNLvCm86nlqqjtNJu6eYSfj6LOQ7azXFbZO230n3EhKO4LTQ2n0KN6jcasbAq7nbdbiqWuQQa58iPCNX8A1YoDhzSUameik34Dte6iy/B4jRV7iV4C+6g15XP2IXkalaokjjHtdVyperJ19D4O0MLrnLvb1veot2TqLz5tZCXoIeHdVhUFb3zy6qygS6UEhIypVPm1chq9trfy0P1eN7BU6XQ9n25/LwRfLp4eHh4eHh4eHh4eHh4eHh4eHh4eHh4eHh4eHh4eHh4eGM/wEHDIMncXBp4wAAAABJRU5ErkJggg==;" vertex="1" parent="1">
          <mxGeometry x="540" y="1320" width="30" height="30" as="geometry" />
        </mxCell>
        <mxCell id="xtmQm8H3WPaShv8IGNw_-205" value="" style="shape=image;verticalLabelPosition=bottom;labelBackgroundColor=default;verticalAlign=top;aspect=fixed;imageAspect=0;image=data:image/png,/9j/4AAQSkZJRgABAQAAAQABAAD/2wCEAAkGBwgHBgkIBwgKCgkLDRYPDQwMDRsUFRAWIB0iIiAdHx8kKDQsJCYxJx8fLT0tMTU3Ojo6Iys/RD84QzQ5OjcBCgoKDQwNGg8PGjclHyU3Nzc3Nzc3Nzc3Nzc3Nzc3Nzc3Nzc3Nzc3Nzc3Nzc3Nzc3Nzc3Nzc3Nzc3Nzc3Nzc3N//AABEIAJQAlQMBEQACEQEDEQH/xAAbAAACAgMBAAAAAAAAAAAAAAAAAgEFAwYHBP/EAEYQAAEDAgEGCgUKAgsAAAAAAAEAAgMEEQUGEiExQVEHExRTYXGBkaHRIjZSscEVIzI0QmJyg5OzdLIWJDNEVWOCkqLC8f/EABoBAQACAwEAAAAAAAAAAAAAAAABBAIDBQb/xAA1EQACAQMABQoFBAMBAAAAAAAAAQIDBBEFEiExURMUFSIyM0FScaFhgbHB0TSR4fAjQlMk/9oADAMBAAIRAxEAPwDuKAEAIAQAgKLKDKWjwb0HgzVJFxCw6hvJ2LdSoSqehoq3EafqaZXZbYvUEinfHSs3RsDj3nyV6NpTW/aUpXVR7thT1GM4nPfjcQqnfmke5bVSgtyNTqze9nhkmlkPzksjz95xKzwluMMsxZxb9EkHoQGRlfWRf2VXUM/DK4fFY6sXvRlrS4nup8qccpSDFiUxA+zJZ4/5ArB0KT8DZGvUW5m2YBwgxzSNgxqNsJOgVEd8z/UNnX7lUq2mNsC1SusvEze2uDmgtIIOohUy4MgBACAEAIAQAgBACAxVUzaemlnf9GJheeoC6lLLSIk8LJxWrqZKupkqZnF0sri53Wdi7UYqKwjiNuTyzc8HyFjlpGS4pNK2WRocI47DMvvO0qlUu2niCL1O0TWZMoMqsnZMCljcyQy00psx5FiDuPYt9Cuqq+JXr0HSfwNfLlvNIhKAQoSKUApKgHReDDG5J45cIqH34lufTk68y+lvYbW6+hULumk1NF+1qNpxZ0BUy4CAEAIAQAgBACAEBXZRG2AYl/CyfylbKPeR9TXW7uXocca8seHAXLTe29dhrKOOnh5Oz4ViNPidHHVUrw5rhpA1tO0HcVxZwcJYZ2YTU46yNP4TMTp3wU+HRPa+YScbJbTmAAgDrN/BW7ODTcmVLyaaUUc/JV8oiEoBChIpKgCkoSbDwdvLcr6INP0myA9IzHH4BaLnumb7bvUdmXLOmCAEAIAQAgBACAEBW5Ser+Jfwsn8pWyj3kfU11u7l6HGXLsnGBkskRJikfGToOY4i/csWk95OWjETpJ361IEJQCkoSKSgEJUAQoSbDweeuFB+Z+25aLnumb7fvUdpXLOmCAEAIAQAgIJsgK+sx3CqJ+ZU10LHjW0OuR2BbI0py3I1yrQjsbPH/S/Ah/fh+m7yWfN6vAw5zS4mOoyqydqIXwzVjHxyNLXtMbrOB1jUit6qeUiHcUmsNlTyjITm6b9J/kturcmvNsRyjIPbHTfpP8AJMXIzbEcoyC5um/Rf5Ji5GbYU1OQHN036L/JNW5Gbb4GmZUPwx+LvOCBgo8xtgxpAvbToKt0ddQ6+8qVXDW6m4piVsNYpKEiEoDYeDv1yw/8z9tyr3PdM323eo7M+oijdmvdYrh1LujTlqzlhnWVOUtqF5XB7fgsOkLbzfUnkp8BmTxPNmvF9y2U7qjUeIy2kOElvRlVgwBAJLI2KN0j3BrGi7iTYAJv2IhvG05plLlXUYlI+CikdDR6gRodJ0ncOhdOjbKCzLecytcubxHcawdCtFYUlAKSgEJUEiElAIShJBKAQuUAQlCRCUApKA2Lg69caDqk/bcq9z3TN9t3qOs1v1g9QXidI/qH8jv0ewYFRNpBWIPbRVJLuKedP2Su1o68cnyU/kVq1PHWR7l2SuafwiYi6nw+GgjcQ6pJL7ew22jtJHcVbs4ZlrPwKd5NqOqvE52Sukc4UlAISgEKgkQlAKShIpKAQqAIShIpKAQlAKoBsnB1640HVJ+25aLnumb7bvUdYrj/AFg9QXiNJP8A9D+R36PYMF1z8m4UlRkkgOLXAjWDcJGbjJSW9BrKwXcTw9jXDURdexpT5SCmvFZOa1h4OY5fVXHZQyRAm1PG1naRnf8AYLsWkcU88TlXUs1McDWiVZKwhQCFQSKSgEKEilAKSoAhKEiFAIUAqAFAN64KMMfNis+JOaRFTx8W0kaC92u3UB4hVLueIqJbtYZk5cDfqiTPme4arrwl3V5StKS3HepxxFIwkqsbBSViSQsQW2GPz6UD2TZeo0XU17ZLhsKNxHEzkuUkvG49XvO2dw7tHwXqaKxTRwazzUkVhK2moQlQSISgFJQCEoSKTpttOxAQWv8AZd3FY5ROGKWv9h3cUyidoha/2HdynK4jD4CZj/Yd3KMriMPgSIpHGwjeT0NKZXEYfA2HAMi8WxeRplgfR0t/SlnYWm33WnSfctNS4hD4s2woTn8EdTpqWlwXDo8Pw9uaxgtc6ydpO8leY0nf4Tgn1n7HZt6CXoYivNtl5CkqCRSsTIgqMgscIfZkrdgIXf0LPqTj8f79CncramcmxwFuM14Oyof7yvbUuwvQ85V7b9SvJWRgKSgEJQCnWhJvGTGQvKImVuNl0cZ9JtM05pI++dnV/wCKjXu1Hs/uXKNrrbZm6UtPheHM4uhooI2/5cYF+knauFW0tTzvcjpQtsLYsHo5XFzPgFo6Xj5WZ83DlcXNe5Ol4+Vjm7DlcXM+ATpeHlY5uyOWQ8ye4J0vDysnm74kctjBuIbHsUPTEfKyebviYpa2RwzWgNG8a1SraUq1NkOqvc2RoRW1nkJvrXNb8TekQSsMmRF1DZJF1jkkUqAe7Cifnez4rtaH/wB/l9ytc+BzTLGIwZTYgwjQXh46c5oPxXubd5pI81XWKrKQlbjUISgFJQk2vg7wVmJYm+sqGB0FJYtBGh0mzu19yq3VTUjhb2WbanrSy9yOiVUxkeWg+gD3rxd9dOrLUj2V7ndpU8LJgXPNwIAQEFQBSsSSCoySLdYkkEqCRSsWSQVGSRSsckkErHJJa4K35qRxGt1l6TQkP8U5cX/fqUbt9ZI0bhOpeKxOlqwDmzxFhPS0+TvBess5Zi0cO8jiSZpZKuFQQlCRSUB1Tg4jbFko+Vv0pJZHE9I0fBcfSM2lJ8F9jp2a6q9S2C8SdkEBCAglY5JIJUZJFJWOSRSVGQRdY5MiCVGQQSsckikqGyRSViSLdQSbBh8RhpI2nWRc9q9po6lyVtGL37/32nKrS1qjZV5ZYO7F8FkjhF6mI8ZD0kax2i47l06FTk558CpXp8pDBxx24gg7Qdi6xyhCUApKgHWODz1OZ+OX3lcXSnZn6fY6tn2V6lovGnXIuscgglQSKSsSRSVDZJBKxySQSoySQSsckikqMkikrFskUlY5JIKjJJnoYDUVLW29Fpu7qVywtncV1HwW1+n8mmtU1IZNiAsvbHKJQGnZVZEQ4pM6sw57aeqdpe1w9CQ7+g9KtUblw2S2oq1rZT2x2M0moyNyhheW/Jz5PvRyMIPjdW1cUmt5UdvUT3GA5JZQ/wCEz/7meanl6fmI5Cp5To+RdDVYdksKeugdDMHSEsda4BOjUuRpKSlCbXD7HRtItRSkj13XjcnWIJWOTLApKjIIJWOSR2QSyNzmRlwO0LfC1r1Y60I5Ri6kYvDZPJKjmneCy5hdeR+xHLU+JBpKnmXLHmF15H7E8tT4imkqeZd4KOj7v/m/YnlqfEg0dVzLu8KOj7vyP2J5enxI5FVcw7vCjo678j9hy9PiQaKq5h3go6Ou/wDm/b8k8vT4jx4bUvNnNDBvcVtpaIupvrR1fX8IxldU0tm0uKSmZTR5rNJ2uO1eltLSFtDVj82UKlR1HlmdWzWCAEAIAQGKp+ryfhKr3XcT9GZQ7SKa68lk6JBKxySKSsckkEqMkmaGslhjDGhlhvCu2+katCmoRSx/fiap0IzeWOcTn9mPuPmt3TNxwXv+THmsOJHypP7MfcfNY9NXHBfs/wAk81hxZHyrP7MfcfNR01ccF+z/ACOaQ4szUeITT1TI3hgBvqHQrVlpStXrxpySw8/T1Nda3jCDki1XoCmCAEAIAQAgBACAEBiqvq8n4Sq93+nn6Myh2kUl1486RCgkhY5JFJUEkEqCRCQsWyT2wYZJLHnvfmX1C1yuvb6HqVYKc3q58N5VncqLwlk81XTSUzgH6WnU4bVQvLOpaySltT3M30qsai2GTC/r8fb7ituiv1kPn9GY3PdM2BeyOWCAEAIAQAgBACAEAkzc+J7RtBC1Voa9OUV4pkxeGmUB0Eg69q8W9jwzqIgrAyIuoApKxbJwKSoJwLexBKjOHklo2eORr4w5pu0jRZe9p1IVIKcdzONJNPDK7Gnt4qNn2s6/YuLpypHk4w8c5LVonls8uEMLqzO2MFyqGhqblc63BfXYb7qWKeC+XrTmggBACAEAIAQAgBACArq+iLiZYRp2t3riaR0c5vlaW/xRao1sdWRVuuDY6OgrzssptNbUXltFJWOQLdY5MiCoySQoBkinliFo5HNG4Fb6V1Wo7KcmjCVOEt6JiimqpfQBe463E6llRoVrup1Vl+L/ACyJThSW0vaKlbTRBo0k6XO3r11laRtaeqtr8WcyrUdSWWelXDWCAEAIAQAgBACAEAIAQGGanimHzjAenaq1a1o11/kjkzjUlDcyprqSOnF4y7XqJXm9I2VO3WtBv5l2lWlLeeE7lyWWkQhJI0kdJUwWs0n4sxk8It6bD6fNz3BzzucdC9Rb6JtlHWkm/X+MFGpcT3IsI2tYM1oAA2BdeEIwWrFYRVbbeWOsyAQAgBACAEB//9k=;" vertex="1" parent="1">
          <mxGeometry x="540" y="1360" width="20.13" height="20" as="geometry" />
        </mxCell>
        <mxCell id="xtmQm8H3WPaShv8IGNw_-206" value="" style="shape=image;verticalLabelPosition=bottom;labelBackgroundColor=default;verticalAlign=top;aspect=fixed;imageAspect=0;image=data:image/png,iVBORw0KGgoAAAANSUhEUgAAAJoAAACUCAMAAABcK8BVAAAAZlBMVEX///8BljkAljkAlDTt9e8wn07Q5tYAkSoAjR0gmT+s1bc4oVSayaIAjBbE4MsAkzDj8efz+fUxm0a83MRVrGtQp2GHwJNgr3J5uoa22b+ezapLpFsAigrc7uKk0LB/uohssXePxZxM3o9CAAAGd0lEQVR4nO2ci3aiMBCGTaJOEHEAL6iAxfd/yU1sq5ILhms4Z/uzp2t3G5x+mWQmIeNi8ac//en/UJydEt82GLU8AXCynaFxt5BTQhjke9+WKNqHESNSlBXZ2rc1b4ozRELlJb8AOc+lV5enAil5EwV+nYVxtxAesJ7U5MWP/l1uv+LsadjLNOFyB78uF39xJBYB3v316vLOkdI3ZoTWXgLcPBm3ETMZtTF7DAdPLrfOgamgFGriQsjKiQ0rhZM1EntNJHBfTmhYcg3ABEqnJi4C6WUyy3YrTpyQ/YBjUT7NRBIfkVlAGanJC1k2fq/Gp8jNySZ3uduKN4CyUpOTDM/HdLl9ELEma5pMo4QVo7lcXIE1KrkJ8TxGry6lk30A1UxN/jVGunT9FJUch4OIXcO63C4EY+rTltp37BowXSrPERuA2JMc8Hs8iGHLO4I99WlPTXxDgQ2RLm3SQZxMAUd42Nfl1kdgxBmUK7WHy2GvdGlgJ1PIYXTq6nJOqU9navKCdNPJsD3ysYA9xaJg19qyUjpZW1BtqYlLuFy7Xo2rgnWwpoNplGLx1cK4bQo27xcJhBBpNziobGNtQnl4czRsuQJr6oMQhHkeBuC+NhATLK7yfAVobcF47jYDf9mRRYfLOk6SeH05R+CIjPFsVyZJuT9Edqz87gQtZ7Zfjr0teJcngi7UGHk2ujDryhWdsC1XzOYx9YEuFskOzPCt0cXagK1cckxpmvGXi9T5cZnBJ2oUru8t7o/9LkMLd9NMwlD/2eMnbmxV66g4HYMaBcMIj0P79Pf4Aud6gwxHoKZ62rdKbnHMH3El9blagl8/XwuMafMGmqiRSNnE2gjTjNTCPr5mNm2xsc9WxGyakZqzae7UFouKE3dqt97U2piWVIYd8Fl0qGhA7EPBb4eKYUrYTKmJFTS3JQS+qcnpaq7U7ImUf2qLxQHmSm2RhMa9tzlQW6wDNlNqcpjOldpjmOrUlHSlPzUX0/RkfsvV9xzBNJcO3eg305Nek2njd+g21Zsekc6B2jY6a21jNen1RA34Vmu8RjIHakC5/oz4Uo/0vqiJXEifUE4wB2pibUr0O1bvkd4bNbE41Z9zimg6B2qE8kq7QZy+Ir0/auKKrtoddjgHavKxjr7h8BqmXqlRBvqjidNPpPcU3n9NoyzQt4m/vv/Tb4cKwVG7SfKzLei3Q8UfyLS7xCGbAzVhmx5Ny2IW1MT0pj9CvMAcqEl/06PpNaJzoEZYqg/TCmZBjUCoLRaSDP2sqOrUqLajLG0LCi/rUIUaodFJu1epJpteqIkXhmG6Uf7JDzXpb3pCrjigJ2ryseenN5g4vL/92Md38Nahokv1aKqZ5qVD5VD4+miaJ2rGpFcxzRc1QnjTyQ2f1AQA0nBWyCs1SrHhbfxSE8P0YH3G75eajPR6NH0zzSc1Een1dfPLNJ/UxAWWYeovUD2/YWh55uy7Q4UwNQ6FUTqUEqWP7k3URJceTbZdx6BGQckKq+YD4aaEXJ7zGIEaUd4q/t1QtlCjpmEap5YW/XyN8loAOn0860RRs+1kO3/WjxrF/K355XlMwUpNhAWlyvaiPTQdhprcEXoO0k3DKYV30LUzyzc7aLeDO8kBbTgw+D7ku66QmUAp1GQLDO/lA91yL/e1bC0gczqRuOf2I5dQBNmRFu6VN5RBAUEeBkXDwWiKtuih2QZgxSHmeWTEAkqn9n0xZE3lCgzcDw4nd+Z6SHMAQWpLBoxaZwWz4XD8xrFFuxPDD+0O5nLZYU1DXnU42p/cULrciKKEd640PAcwIjUKqdNBYbO+XW4cZBid+xXf7HL7gfA+1IYoWUquxHomvLv4qlN9hqrlGXFYahAMVne+zhpiV1uJqNTTyWpKdvheT9KHGoN06FLMR3lQb2J0ICerq6wi7EutR+lUs9YHcEkgrWLQJSq5Kdkg706Np+1rptroLmNXB9NEVHIt++mssmqR4z7dH4uBSkKbtTs6ldi+XoqoNJ6T1fWoM2yxOuhfC9rGuC/isA6lP1FJf/o9qtaVU+moSGNb59f9tWuon/t9yWCiz6RQ9TF28XCEqOSm+Az2dGnqzz9RVWaW2CXWvdX0TlbXDrkhXWL84+HnKXRLtWLRUVKfLirPtdg1VVRyk3A5/K3cR/TuZHXt08en8FAShf4/Q0yVmOUYmyD16aL4hDgjJ6srmcVn1f3pT3+aQv8AiP5wajGaiZIAAAAASUVORK5CYII=;" vertex="1" parent="1">
          <mxGeometry x="540" y="1080" width="20.81" height="20" as="geometry" />
        </mxCell>
        <mxCell id="xtmQm8H3WPaShv8IGNw_-207" value="" style="shape=image;verticalLabelPosition=bottom;labelBackgroundColor=default;verticalAlign=top;aspect=fixed;imageAspect=0;image=data:image/png,iVBORw0KGgoAAAANSUhEUgAAAOEAAADhCAMAAAAJbSJIAAABJlBMVEX///82v7H1vRUXZlYrR5HqR4yUxz/1uwD0uAAAW0kXuqsAV0Qvvq/1vAjpM4PpN4XqQYkdPo319/YAMIgAYE+PxTIlQ4980MaNxCz3ylz64ar63Z3879L40nn//fr4zmoUOYsGNIljcqczTJQ5dGYALoePqqOc2tJOxLfP2dbM6+eM1czY7+zm9fOu4Nr86sX2wS/52ZH2x0z41YT+9+nsYJj1t8351eL98PTudqX99OD75rnzob99ibRDWJqIkrrq6/LR1OO5vtW2x8Jxfa6ht7Fsy8DIzN5fin/U57mx1Xvr9N6+3JOkzmDw9+ady1Hxj7T3xdfvgKrzqMT2v9Pxkrb74uvrVJJSZKCts859nZWbo8RrkohCeWywwr3I4aXe7cm214QQ02PPAAAJiUlEQVR4nO2caVvaShSAWSxLDKIgiBuCXUSpiIrWLipqxWr19mpvW7vb//8nbpJJyMJMMklOGOhz3i/3Pk+W8vacOWdmkjQWQxAEQRAEQRAEQRAEQRAEQRAEQRAEQRAEQRBENJ2thd2VnXa7vTO/vL2wVBX9e2DpLKykM5l0Op3TUP4nk2kvb/0tlp3FtiKXcJJTLOdfi/5xACzNZ9K5AT3DMpPe7oj+heFY2skMRs9GOrM7xsnamc8ww2d1XBT9Q4Oy6BW/vmN7SfRvDUJnJ8Pnl1DH47bon+ufLXZ9oYZxZ9xG4yJ/AHXFxCvRv9kXu34F1Uwdp8G47F9QYYwUA0RwJBU/7//7cm9v7+7N7YH9gO8x2Cc9QhOcg0/TU/lpQn5q7z/Loa3AgolcYlQq6sHd1PQjC9P5R/vGsQ5nm6cHcUeklsm+3U8jv6fnattXH3QyGjO4u6kBP1Xxo3YwRI4SxRFoi3t5muCj/Avt6GKYJFXItQXrKYKDGaoxRbJ0JaRhIrMgWPATPYIK5HhIP4W02Hp6Sx2Dajm90453Qg5D1VDsOoORooohKTRL4Q0TGZGCH5k5ClRotCCK7BjMEIIVmoQ6sxEneMsM4aMv5Ixw/V5H4Az8jj0MSaGpAgxDJU2XhRmykxSw0KiKogQPWK2iX2gWAIZhQmCavmAPQ73QLMMYCqum/7EN9RkNSKFRqqmoRdQ+03D6JTkDZhiKG4guhqTQvIIyzAjazmBnaf5WO+E1zDBUDLfEGLIrjV5odqEM04KWUOxuMU1O2IEpNALXF188Cg1UCMXNaj5RtqA0wzfaYbBCk0ivCDI8+PgyP5WnbLQBFxpxhiqf9+++OC2hC41YQ5WD20+qZV8TutCIN1Q5ePFmLz+lWULPaISunxy80AZmnhQagF2ovuFIPfVWBiYpNFtgw1BMxz85rB0dn3ZdztgGNBz+rO3kvj4zUZ6p1ctvv3YZ58yDFZrhP73orhbLEzrlWr22+v2kMHgWmF8iN+wt01MlfjbKM/X60fFF134a0PJXfalvyCE8LE5QUFK2+Pjw1GIJtEmTSLeH/ORitUYTJJCBeaKfCbRJM+wtjPsZtqCRsmVyKsSWfiIz7OnMqpegSv1CO7cKYGi+4bY+HMFjlxS1hPGInB2+I5rPR88nk+dDELygFhlKEMlQDLupnzP3Z75NJpPZ5FnUggWeFNWCeE8uCLcjbOkS77JJlew7St+F5JDX0AhiqMl3um3sIRaezCYJs9lIh2P3Ka/gRPktuSTE80PzFdPNpCGoMBnlaFwte6sZFLvaJcEfPpldYn0yaWXyWWSC3Tq/4MTMIbko6Do/s2v8sWd2wSijeMw9Ci1BDPhOlK1LOJmMqqT6yFE1iN/JVYHm35YukR0QVBSjqagnfpJUoUYuW0rwfGRhY7BLOHkSieF3X0mqGOpBjL1u+3OkdQkH2UiGop9KqlCun/Qv9f4YyCpI7xJDyFN/ISzPdK0Xv1rhdbR0CXqGasx+gxf01Ssmyo+7jus7u1yOLl3CnqfwQfTXDY8oP6C6mPP8cMa1S9iCCD8S/ZTS2r1x1UbLdpMFj8Lq0SWswJfTE66VIRF8a1zUkiTZ7rjlUnS8u4SFyU1xhvVj45o1KR6Py3LTlrLqV6RUwXTCs0tEmqbcWVo0+mCsqQqqjtKc7S+8s0xz5OoSFsMf0Ia8laZ4alzR0wU1x96G9WbV7YFvnfm6hBVowxhflhYvjPMbctyCLDVsjs6iw9slTOD7xRHHnKZcMyYyBbugihS3Fx3rbM78cuQZp2AE0xqOLYxyuaufvBkfEFRrjrxmLzpGYfXRJcwYgu9nnHqmqdnnn1P8qEVHm83l0v23K727RISGnrs0M2afl1iGWtF5br2tMpvz1SUiNIzduw/E2qpxYkti+tGKTrXfJWZ9CEZh6J6m9UPjvDV3QVrR0eDtEjpRLKDcSk19oM+74yw6/F2iH8MIDL+yg/j0q3HSHJeglqxNa9Hh7hJ94AVd9qKemhMZdo2hOJpFx2OxNAj8rE3llD5zMzcsKH3ew9EoOgXfhr+iMKQ/PTQ3LKh93gNpjlz7zE8dTUa2oxgrDyaquWGx6d9PVSSjseDTMJoNRWUNNdD2LRMZ3hpjR+6Ry899KUazn6jifEbK3eddgqiXG3+G0T1IvLBF0bphEVAwHm+QO5z76Piz0T2AUhf75lh0bFgEDaJeT0cjhArdI6PzmxsW3H3eLYi/+FdOUb+08J281lYM1OddgviEN0d/Riyov7pXZ2xYBIHc54wziFH1Qhsnb4v9iUyAPu8Mor7U4AtiZE9IGWzKoQWVvyJyr3WeuVuk7ypQCNjnHRhB/DGZ9VoGR/imApUNEEFF0bjh+vmPpKI5MhEM0eftyGuWu3bPvj2hW0b8xtAgYfq8A8lRHwvrz35mnSmb/TmMKmphE07QTFOb5fm7WTOYsxGtCV2AGoQqDdYfsvlLG5iz2QgeinrSCt8nDOSmdkfGG92Fs2/vhtwECU1AQ9IuLktXl+9FqDCYgzPUF4nXpVKpUrn5/X5E/qG2kBNumyEpkjcpDdXy+mEELBtggsbcu5Tqo1im/lz+87cYymTH7Z9KyoaSsimhAxPQkExpHkqpAbSBKUoSzlBfA19TDDXLK0GGcJVG3zS9oQsqioIMAbsFuSEjhKlURVDFWYMy1HeFnYXGYvggxhBs1mYUGqZh6VKMIcz6Pt4vNL+ZWSrKsABmSArNFUtQmCFYu9AXh0xBcYZQiwuyOGQXGmGVBmoJrC8O2YVGWLeIxYAMyeKQXWhSKVGCQLMafXF4xS6l18IMYdJULzQf2EkqcHkBIagXmip7GH4QJwgycdMXh+9Hbs6mAdH0+7tQLMMbgYIgLVGfs/1hGYprFRoFAEOyC8UqNBVR8xkDgIcz2n1YhaYirlMYhJ2c6otDRqEZAcHQayh9cXhJNRSeohrhnrHJsn6bh9JAqal8ELxfahBq7ib13zGtXtscS5XUSARQI4yg9Y3v6uVNpVLSqFSuHkTpUAj+qFRqOm5VfX/5+/r690g9gVIJWm2M92fHgGCKYyQYTHGsBIO85C2ted91tOj5CqMsbXjfctTw0/qlBvinysPgeYPTUR6/DDVouXyYZ/HrjWUAdZpejs4vEMePwprs4wvLMWWjJ9EkZVlqtIb87l10bDQbiqVMXiBW/ytJ8V5rnIcfhcLz1tpcr6HQm2u2Nv4yOwRBEARBEARBEARBEARBEARBEARBEARBEAQZS/4HuFQ6u6GR7IgAAAAASUVORK5CYII=;" vertex="1" parent="1">
          <mxGeometry x="540" y="1260" width="30" height="30" as="geometry" />
        </mxCell>
        <mxCell id="xtmQm8H3WPaShv8IGNw_-208" value="" style="shape=image;verticalLabelPosition=bottom;labelBackgroundColor=default;verticalAlign=top;aspect=fixed;imageAspect=0;image=data:image/png,iVBORw0KGgoAAAANSUhEUgAAAOEAAADhCAMAAAAJbSJIAAAA5FBMVEX////pR4s+vrA1NTU3pZXrY5npQ4ldxbn19fUXFxfoMYH+9fhYsKI2o5M+wLLpQYg1Jyo3rJsano3xSI8kuaroNYMnNDDzSJA1LzA1MzP86O8uNDIbMyw1Ky31+vmL1Mv40N/0rcfvg6ybQmY5lYc3Pj2k3NU8t6jo9vRnyb3qVZLvibDzqMT3ytsoGB4/NjlNPUNXOkVhPUtuPFB7QFeJP1ypQ2y5RXTKR33bSYawRHDVSILGR3t5vrKi0Mg5g3jO5uI5bWU4VVG529U5d204X1k3SUY5mYs5iX2Y2NAWAwgaOjVkEELHAAAFcklEQVR4nO3ai1rbRhCGYZAVxzEQjEtsXAxpS49JW8I5hBycHtP2/u+n0lgWa6E9endmnGe+K+B9VvwSEhsbkiRJkiRJkiRJkiRJkiRJkiRJkiRJkvRZt/XiEUXfIAr7Xfx2u3jAQriJX//Lz1zY/woRSCHsf40JJBDuvkQF4gt3H+EC0YXdTWQguhB1RimEuDNKIESeUXwh9oyiC9FnFFuIP6PYQvwZRRYSzCiu8BnBjKIKSWYUU0gzo4hCohlFFBLNKJ6QakbRhGQziiXcRXx1SCIknFEcIeWM4ggpZxRFSDqjGELaGUUQEs9oeiH1jEIphV3MT0zaUgrJZxRKKKSfUSidkMGMQsmEHGYUSiVkMaNQIiGPGYUSCXnMKJRGyGRGoSTCZz9Ts5RSCNnMKJRAyGdGofhCRjMKxRcymlEourD/CzWpUWwhqxmFIgt5zSgUV8hsRqGoQm4zCkUVcptRKKaQ3YxCEYX8ZhSKJ2Q4o1A0IccZhWIJWc4oFEvIckahrf54PP6iLhjIckah3q+nRa/Ozi8ur06ub17fbo4DoExnFOo96ZQdlo1Go+l0enp+df321utAuc4oVAnVSup0dH51czt2U7KdUahFWDkL5uHF9Z39LLvdLWqFKa2wYk4PL98UZ2kS8p1RyCyslGcnd3ok4xmF7MI58lSH5DyjkJOwbDR9dXL70Mh6RiFnIZzkxU1jd3jPKOQhLJHTzsmmYmQ+o5CfEK7Wy7vxmswo5C0sD/L87XgtZhQKEJbGs9LIfkahIGFlZD+jUKAQjD9S//BOBQs7k53hu2PqH9+hYOHg2zzfGb6n/vnthQoHH/byomE+oxbYChQefQRgaeR+qYYJD35bAMtL9XdqhLEg4eS7XG24Ta0wFSQ82FkSFsc4o3boCxGWM9qI8agGCKsZbRC3uQ6Ov/B+RtfjSvUWqjO6Fleqr7Axo2uwqb7C5owuX6k5w4dxT2HLjKrCvYwf0U/YOqMqMNufUYuaeQk1M1qXFe1ze4bzEepndH6E2VMgfk9tWs5DaJrREvgDAAviP9SopTyER3+bgdmi/efUKjV3oW1Gn2Y8ic7CwR/GGc0VIC+iq/DgT/uM8iQ6Cg/+cplRlchmbtyErjOqErncNNyElhndewjkc+t3Eg4++QPZPMC5CI98ZlQlsngMdxAe+c2oGrWuzC6cWGa0ZWXqHlPzNhyEk47xAI1AFrdFqzBkRhUi/aDahGEzqhDJ18YiNM9orp1RJd5Cy9Pojt2XZT9xFtqeRo0rw+VX0SScdEyvDh2B5L+KJuFqM3of7V3RIBx8Mr86dAUS/5mhF0aYURbXqVYYY0ZZXKc6YZQZZXGdaoSRZvSeSPf9VCMcRJrROrr7frsw2ozeH+KMldD2BcYfmNE9n7YJo85ofYhUY9MiXOWPehORkTDujNZConfED4UeX2A8iTR3jAdCy4fssJWZR/PSpil0+ZAdfIgkj6cNofVD9kqRHOKyMOALjNchUvwmLguN/w+kfsheo0NcEiabUcpDVIW2/wdaGZhlBA82ijDljNZRCt3+H2jFCF4t1sLEM7oI/31GLbTNaBwgwV1/IUw+o4vQbxiVMOHTaCP0P6LmQpQZrYTYWwNClBldhP1OqhQizWgV9nNNKbTMaLyVmQuRn2sKIdqMViHfEntP8Ga0CvmW2PsXb0YXQtzLtPdfkleHxnDXtDdEByLf9I9NwvgrMxfOuAgTAZGfTY1nmAiI+3ewQbjiq0NDqPcLvTDNysyFmE/fWmFCIO4vok6YbGXm0QsTAzH/vtCdYVIg6h2xXZhuRish4tfS43y7pcepY/D/35IkSZIkSZIkSZIkSZIkSZIkSZIkSZKUtP8BuMXSRGIsjk0AAAAASUVORK5CYII=;" vertex="1" parent="1">
          <mxGeometry x="540" y="1230" width="20" height="20" as="geometry" />
        </mxCell>
        <mxCell id="xtmQm8H3WPaShv8IGNw_-209" value="" style="shape=image;verticalLabelPosition=bottom;labelBackgroundColor=default;verticalAlign=top;aspect=fixed;imageAspect=0;image=data:image/png,iVBORw0KGgoAAAANSUhEUgAAAOEAAADhCAMAAAAJbSJIAAAAZlBMVEUxeMb///8qdcUmdsV4otZmlNDp7/gZcMMab8NpltHW4fEkcsRdkdBQh8ywxeX2+fyjvOE8f8lvnNTC1OyowuSNsNyXtt/x9vu1y+jf6fXH2O5TjM5/ptmCqdnp7/fN3PC6zeg3fcgYhiCaAAAGrklEQVR4nO2diZKiOhRAQ0ATDMiOII3a//+TL9A6Lo9AMCEsdU9NTU1X2ciZGwJZ7gVZ7wTn0I3QWoncMAk+jNDbT0lMKbPnPk8FbEZonAgNC5/iuU9RA5j6Radh6dE1R+8VTKvy/4bFJuL3ANPjp2FG5z4pzdDs3fBna4Jc8efVcHMRbLhHsTU8blGQKx4fhiWZ+1wmgpZ3w2pLvegruPozLLbZRhto0Rr6Ww0hD6LfGCbbDSEPYsIN4+2GkAcxtlCw5RDyIAZo0420aaYoZHOfxKSwELlbGTJ1Y7tovVMWcmzdDwAAAAAAAAAAAAAAAAAAAAAAAAAAAAAAAAAAAAAAAAAAAAAAAAAAAAAAAAAAAAAAAAAAAAAAYAFgDmtp/rWtQnqYEUpx5Dl1neV5ltWO60U2pZSwaUSxVvq/y2bEjuI0eRZ3fnK53nI3son+EuTuTie++It47KrsvO+Qe2F/zjxMdMayrXuqkUJUAhdTP+wKXZdl4Wp0bIqC6uTYbYhpfBhzmJO+UrpGDDFzBhrn//BWZUi9UfFbnaFN0i+OsyJDFo1toCszJPF3x1mNIfv58jhrMSTOt8dZiSH2vj7OOgxxdPr6OOswJNfvj7MKQ1YrHGcVhvjzZU1jWIMhCWU+L/pfWIMh6w/hPsljr/I51c7Jb4ePT6/AkGU9n9rnESEMY7uZFuB/Mf6Tn51fLHUanvZCLt3nd7oIf+P0r+49FY8nLg7tqI6PGSXx7XF/0WfIrxchlHafYUzFv/M4MRwJG+nNFlb/xxTVpXbDHnD3KToS346Fz2sD74lhbHcwZ2h/bygcFB4GX1CB6W6/BkPRZRjJNACSLt8QC+bVznLvGDH1ng4Fw1/BQ3e2rHeMKBhGgka6sFf9fG8ofJDYvuFmWqnQULKnMcUE16H1u6hmqmIoemhb1iupFAyRcB64XpKigiETr6Q5C1JUeWq7CQ2tfDmKKjHsGwAnxp7KhlAwtHsng4OfhbySWaWnYf1LTuVO62L9tygZDq0aXt0FxFHFUGKK6xB3zdcYRcUQUYk5/X1tz9tYlQzl9rGcQn/OxqpkiEgio2gFt2o+RzXDngnFD667uRzVDBGTXwE+OBPt2htA0fD+PnQ5SmeOOKoaSvWnzzjuzD+vKhsiPGo3VPJr+v6owRCPW+nODN8e1Q25Ys8wqoOr2VkODYb8WsxHKQaeaIfqFGgxRNQTrEMKqA0q6jFEGBWjFA3OAWgy5GF0JTdA/xEaU9RmiDCrx+w9yUw1VH2G/BGO5CP2gLmGbow6DflYA2XSbfXyq1lFgF5DHkccyz4A3MxciroNmzX6KJVrrJX21Jku9Bs2fQ6rZRrr8I4GHUxhiJpOxz0PKxrZqzCRYbPZwh+c4jByJU5m2KZBDcQxMNGdTmjYOA486Oj5mn4mNWxGVr3DjpuBB5uJDXmf4/cMO8r1xxANzAEYuBCnN+xVNHDTN2DIFYUN1UBXY8KwJ7Emn36AYcQQUdGNMdyKIRYl8AlyinVixlC4u0iYF64PpTXgEdPGgiX/dNGGLPWlryKR4bJ7GlIGruzgQJTEVy/b8ND0hXLL4W7311i7Rd8P2736pdTaLhUNFSN1gyHUsxGKaLC3YKI7/kWHwgAa8i2CdKBSCRbt6reuBuZM9WSUHH0iPldSCafeDHSl2nJmDnVEuwrr2AT17A0zMZ+oLysoOOTVe5mkppZS1Td3WpqY2Neb9xRcj7UXsTaJj0W77Na/rGiikU6S2cVNTzLLUMHS57x7DOVIjaw+zWgYLD47T9XQwDNpw3yGV0OLwLMZnmQyTXUwm6GhHNn5DE2t4s9lGMTmtgzNYnjxDG5QnMPwbLSWqXnDi+HENpW8p2rcrsuWUy4umTENKvOlNvHDcdX2LjkyufHy7ywVDNtyLF4hu/EySNw5UoQEhj/SfQGX9LNkPzBaCsqjgyV36uuef3M7GfUtXJL5cVYcyi7PyyHJY1+6RHKEXM3Dxm+qIXceho/sbRRVrpPlYXosjmma187O/0WsKaYkfRwXGVhxU8FuS3gT0vxp63iP/H0WomUlu2uHnlGwccMALa10iF5wbKGF1WTQDE24oeVvN4i2bzWGA7XC1gwtWkNLXzHzhdHmFTeGe+NPr4ag5d3QOm6znf7lo7aGVrZFRfpXSQTdn/23p0jvdcHvhtuLIn3UgnkYWsUiCofoAj9zwv8ZWvuKGll/MwCm1XM25GnIwzhrvQltYOq/pme+GlpWEtPO/QGrwWaExu/bid4NLSs4h+OmHBZF5IbJ58zHf1xmWQh9BSxpAAAAAElFTkSuQmCC;fontSize=7;strokeWidth=0;" vertex="1" parent="1">
          <mxGeometry x="540" y="1420" width="20" height="20" as="geometry" />
        </mxCell>
        <mxCell id="xtmQm8H3WPaShv8IGNw_-210" value="" style="shape=image;verticalLabelPosition=bottom;labelBackgroundColor=default;verticalAlign=top;aspect=fixed;imageAspect=0;image=data:image/png,iVBORw0KGgoAAAANSUhEUgAAAOEAAADhCAMAAAAJbSJIAAABIFBMVEX///83XJM0pXSNxj8nquE0WpLU3OiLxTt6x+uBw6Urom8bqOAfrOIxp3YUSYmbzlUyV5Zol26QyTtMbJ00pW+gz2X1+u6z4fREY5ZLmch5vnOXy0oup7Cm0W0mUY0+suTR7fiSzbLs9PZdso64xtnx+eeFwizo9Ni4387f8e7A35jj9Pve78uY1fCfsMrV6rvF4aNcvOej0uRQsIa02YXP5rJ1j7J6x+1+xcppu9+l2PHZ6+1RtODu9O6/5fbC4OcAoeCAx8Cl0MOQxrUJnGTV6+FwuZ1Yn8u10+aOuNSczaxxu2ap1aSNx4llgKoGQYaGmrvF0Np5noWht7VAZY/P288+iIMXhHlWlZbm6PKTrqKKrIygu6AObYNTp1Ow132E7xD2AAAFJElEQVR4nO3dfXPTRhAH4L3KQgGF4AYsB1w7IcQyCTa2i5NAU5MALVDewjsttOT7fwsOaIgV6+5WGtmj3dnfv/Gd7plbyytHIwNImGR3YU7ZvX12XnmYEC6G88ovl87NKedPCSvziRb+NKeIUIQiFKEIRShCEYpQhCIUoQhFKEIRilCEIhShCEUoQhGKUIQiFKEIRShCskL8zRYFCs33WRQvDFd7dVyG9pmyCM9du27KrRkI1wCXG6vWqTIJr5oOsn4NsYuzEsKalchBCOMFy2QshAB3zLMxEULPeErlIoS6ichGCL8Zzjd8hFBPn5KRENZS5+QkhHpaobISphYqL2Fae8NMCHu/n56XmxD2Tu8iOyGMd5Mz8xMCJPtwjkJI7CJLIfQqJ7PzFGoiaeHduwjiAWVhPawjiMeFSlO4iiJSFoaLxj+eZP8gpCushIuIXdz/VqhEhRVUoa59bVKpCnG7uK6PQlZYCcMegjgM6Qr1LvbGbuLCAV2hfs2CUwgwpCyshHduuIn3UP8ZK6lQv8pNHJ9FE0sorIRDxC5iVldaIe4a5CplIapQ4f4fhIW4Qn2AIpZUiCvUP28hllhWoW5vMMTz7jWWVljYLpZXqDu4X93ETecqSyyshAcYomsXyyzUQRBdhVpyYTh0Ex2FWnKhvtRYdxOtu1h2IepqavOhZanFCu3AXEJUoYLlUqNQ4WVXHp0xHe2xZdRf7kJdf/L0iinPTIPGz41jTvI8MaS14shFo3DDtwx74SbCwGukx9syDWnXDEMmU0sMWfIdsQhb5lGqpRDE/oXAS0tsEaaPmExwISlU9liF1oEv9tzEbpy64ICEUI/cRxBTd5GIUPmHCGJqoVIRKn9lw01MK1QyQuX7NxHE6V2kI1RqCUGcLlRKQqUQxM5pIimhjyI2YrpCXKHCUWLhxISq9RJBHE3uIjWh8ncQxP7EpwY5oWphOrhRg7AQRxz8KFSCQj2N+//EJ4VKUajbm1du4nGhkhSq6uuum/h/oRIV/txou4nfC5WqcDneRhC9gLAwqCGIXW0gK/SCGFGokX4ZWaFe+wBBPKK7h/roAYIITcJCTdyKnMKoT1joeXET8WYkLdRE9y7SFnrxUW4iEaEXLHeYC72gmZNIRpj7vUhHmLdQCQlzFioloV5IDiIpoW5vENfEpIW4Ppy0UC8mK5Gc0ItH3IVevJWpDycotNx3wUXoxcvchZkKlaYwS6ESFXqxh+3DqQp1k4okzkCoVjY2DSlQqFfV7aAyA6FqLRmSCegQ6g4OFzcwu7CgOIQFRoQiFKEIRShCEYpQhCIUoQhFKEIRilCEIhShCEUoQhGKUIQiFKEIRShCEZZX6HqKUv7kEQZFJClUF2eWpBElbNSKSDMhPDO7vMwsDJrtqIjAvLLTyiyc3+KKyU7LZy6EN2995kLYPvSZC+Hm2ypzIbx7X2UuhOhDlbkQor+rzIXwz8cl5kKIPh36vIUQ/ctdqIn/MRdC9OQzc6FubxrO++yJC6Gz7CJSF04/45KdENpNO5G+ENr2XWQg1IUaMxdC+8hCZCEEsBCZCKNRYHozMhEmH8bKUwjbhlMqH+H3pyOyFkInlchJCP20PpyVEPopZ1ReQogaUx+MzITQHk39YgAz4XR7w08Ig+QplaFQE7kLJx7EzlUIg4lPDZ7Cye/gmAonfi2IqxA6x19QsRVCuxYzF0LUjJkLAb51cKyF0def0mEtBNCFylwIWwF3oe7guAuhy14I7IGSbPkC6Fwsd+IauiIAAAAASUVORK5CYII=;" vertex="1" parent="1">
          <mxGeometry x="540" y="1170" width="20" height="20" as="geometry" />
        </mxCell>
        <mxCell id="xtmQm8H3WPaShv8IGNw_-211" value="" style="shape=image;verticalLabelPosition=bottom;labelBackgroundColor=default;verticalAlign=top;aspect=fixed;imageAspect=0;image=data:image/png,iVBORw0KGgoAAAANSUhEUgAAAOAAAADgCAMAAAAt85rTAAAA/1BMVEX///8G7ZRsqP8A7ZEFm2EZV7oA7I5m8rTt/vh+sv/r9P9mpf8A7I2D9L5tqf9opv9Q8Kepyv/E++Ul7pyz99b1+f/O4P+awf/J3f8G34v5//0FqWosacn2//x887vM++kz8KON9MGX9syJuP+l+Njn/fOx99Xc/PBc8rLA+uNv87vX/O3O++dP8KuU9swAlli00f+7+NkFsm/N4P/c6v++1/94r/9YlO0JUbgAR7UiX8CD9sjh8uuD5b+018UAmVQAy3ya0LdOtYvM59sF04SIzrI2pHNsvZk5q3twmNuUqtlHg9/F0uuqvOEzbsRGdsY7d9VYhs1OiuSHntSar9u0SiW5AAAOp0lEQVR4nO1d/X+bNh4OUSrTVk4IkLVjwybM+AUMi9c2zepcu+1u2+12e7u7//9vORxLvAhJgA0C8snz6S91bNAj6fsq6auTkyc84QlPeELPMdVX7vX1OMX1tbvSp3bX7ToedrDyNU0zDEMBeSjxZ/Ff/Fmgdt3Ig2CpXuAaKMYDGzZ2f4K7r8wCT7W6bnIN2GvTXRoIcngVAZERuuZ6GGNp65HvQMgbNR4AhMboetV7sTRDx+BOyVKSIBbL/nK01MBBUChwWSXD+xZCod5LgdTdkDkvd4oEQsVZjiYpRqGz+5RNFCAnWvWMomWODQa9WEeC5TiabzabdawnU9jeOv5sHm2XCmL+TvHnfZqqkaNQrXzQ/8p27u14cX9nxdbEM30FFac2UBxXIgMBLG+mUIMQW3EtdIMaD1m4S82gOinuItfrfqYGkYGodhm+O63fMGvqjg2U5wiVrd5Cm2vAi5y8OYdwO18fLD3r+VbJc4RGtGiywTUR5acVQMr8yElleRsnTxEYXcmipTvZyRlrhYnXyIMX27zOgorehUZdT7KKD8CR2wy9HVR3lJ8aozoaqxHYblb4gDLeNOsp2/pYyb7AmcgdxCDM9DBAfgvq3FqMM9YHAG3V+Cu4sLcZPQCMUXNzk4JvZCluW3sPhUBLlQtQJm32rO5nZgp01i2+KsXcybxTM9v1NWw915szCZ5NRr8BELUfhKuzrLaZtM1wasC0P0ctvwzD2qZ9CkG709TNDJ+2afVVWZhhxii6LRqMScoPSfURvW2God8aw21mes7begkb1jr1m0DYzju8MOW3lO/iq6lvAYw2LOIq4Rf7913EofYssU9Aa17VrNL+k+k05RAkKhw4s4afPU16D2rSPfsEC59YfaCYjT7ZTMYP+o0+uCbscapMm1RzJnF6Y9ezwcceglmqCZobQ52MX3fpgxSztDFNMdyk49eVeslilTanGV8q0Z9A6TiHhxE4SYOaGMNAI49z+jB+O0yTMWwgQrRSfv0Yvx1WyRiGR8drPuyT/BGkcmgc9yAr4WdMm2laQ0gcD+gf5TZGidHpz/zcI0jGcHwEQzNxG5p2/Y7HpgmXhjwCbJtrWGNwEdEOh8Zu1pLM8679MzbcxBwe+IAt4bdstF2NIdGAMDro97qBO2gpK6NcF2pIYpxDfDYVq6kmvIW2EEDSxgNiVCKAPVSgKdbJLKvt0Zio1wqGgBhqVHcYFqRrjM62q9iLClsZ1CSVUnMIr/HvkEwPxvKCINBnkR9qOzjGqLx3PWIN660jEBcGNJvaYeL+b76joBQPO7z229mAUe7hm2QI69gKon/BSMIWzo+fvuNuTwTlKs4e4baGNayZiy2oIcFCWN9/ffYdj2Dc7tIsEInIQY10NHFhDvMQ6sH+4ezs7JvP+RSvy9pNNKlSeQhJlxzq49XC/dcxwbMv+AxR6R4AbLJBVZcy8dGkLAD+/YHg2dk/uAzhssRPWWCJQtUkikgtPCaSrI4fMUGBIEKnpKt9omcqtXiFHytDw8Q4S/ANl2FZBpQMYaXYVyUzWoaGiZXop5ThmUAQxSG3SaSwglkLiIMuZ43z+68zBL/gCyISbujwsOGGFYaQSKCkVYgfsgRFggiEytTFXyrPk3okT9ggCRF+yhMUCKIimlMWdrphaWBIvigrzXtPM+QLIkCCRk0RlqyS9+EIEmjSzhHdU5NUJIiirVzYeKMS1RHhAZQYxt//TA0hXxCBseUyNPeyBcQr0Iu9l3ZQjuNgWD9+ohgKBJHrjqnYwXSEjt0cd8N18zRE+PgTxZDvmkJuVEQCQ5H6J0Ze+kpEURC5MSJ3mRKviwrjwgWJc9uhIUCBoUgQ2WkGa4JbL3DrsJEXqeO2YP1MM+QKIuBkJ3CeBUZ8VUu22bTFQoiPtDLlCyJgK1OyGM2doyuEu6A9FiJ8/Cc9iFyLCJlnUCJYMgHxDD14OepY3BcY8gUxZKw42yXejI3VUHsbTstwX0MQHQZDvJyCOI9f7b2dKiFHa/i+siCyMoprLGMcPwxns+lI3lIlwv7xCwr8hFsxo+hhT5rt7qgj9gzVlyOJWH5eAI9gMQi29mu2QGMqWbIURffLHAGZ4NJhjSGt7+f7Ocr2xLAfatB+tlm9ZINsgDHVVrKNjWXokuGl/zAkgvY+gQhYB2RUYiSGTBArSma4t+CFuoMiSEwdw+HGfhoqWPlBEcTzkGUJSWax8IdBEcQONxgXvTHsxxVt5LAIYi3jFJJmNtfLGRZBImmFaCPg/WFgBPGmhOJKGjmPMHSCRNQKizX7dBNreWaYBAu6BGsfRi5gYAR9tjWwNa79GBhBHectqI+nfA9gYASJtqRkTeDiDIygh9MWVMSEFxBZgdTACOI1CnoBF3vhrM29QyO49znp3OcYx1HFHwyNIAkJqbDv8RC0IrwGk/90Ang/aI9g7XQNzAMhxBqQvU9GZSbw7ibmumDdpBNpvyGAs4NWAWGMZYxdwm0bRZE7wzBNcxUErAT+HBPMBUweXhhkLR7qI3+HMQ/XGUS7NsSYxf9WehHTHYIYi8XCs217VwaQ8cqjwCRI9lyyktqW/YCm29EaTCbBfaRvyCsw0h42e52RX6tfY4IStmi3DkIwl1h7VATxEsujJYi3g+aPrD4RHBBkErwS4UUWbzE+E+D1mzevCd7FuLm5fNMEwauHNz888uGpMS6r4FUJvsrgeYzb8xinp6cXMV5WxCWjvUTJVCb45nYH/PYa77+ogdPDwCbIMhMiQ//65YGvbx9CgjlDL3LVhkaQ6aqJnO2hEWQ626Jw6VEQFAW8QyWY/1SQshgYQXbKIiHICD8HRpAknag9r4K04cAIctKGgsTv0AiyE7+C1P3ACHJS94LFl4ER5Cy+CJbPBkZQxwTpz/kLoAMjyFkAJUvYjNoDAyPIW8Lmb0IYJEFY2IQw5W4jGRZB7jYSi7sRaFgEV5A3UNytXMMiyN3KRTbjFY+2DosgfzMedzulkOA5DWnkdigSFGyn9Hinr68uBTmhQqrp9rlE3N7QjcVlKlgn0Lhbmk+ubrhj+P5LGr+8kIkruq04KmJVkrbHnE3pMd7xGX64e5bD3b8KL5UI0ab05MwB6/ju63POND2/KDD85UXbNPgQHSvgHgx5wNVXnEE8P//1GcXw2b/bZSEAGSRmMVTe0Z49uAxPz//zgaL4bVcMRWJ2wj2chXF1yWX4nmb44bcWWQhADmdxziDrJcfrbnjm4vz9l5QgPvtvayREKDleV3pA8h1X1ZwWBPH3LpRpyQHJpHIQ94jrZ895quaUFsS7P962Q0KAsiOuJNoXHFJ+y1c1tCDe/S5d1ZQeUibHzAW1ZATK9P2XFEPpqobUU+WXQqhSKOCSQzC2iH/S5uIvqYI4UzjedApSz0lY6uHmlkvxV3qayvRqqpR6qFas4zWPIEMQ/5DHsEqxDuLqMJfRUrx4Wdki3n1oloUA8wrlVk4WYaWCOVfPuWN4mxfEu78aJSEAqRUrLphD3LWyYgGCIPgiJ4h30jRptZJHSdGqsvpk/CD4/DRrL76VZu4rFq0iJUtYqzB58MP885fpGH6QpWRwSqn8XjRSOK68psxnt1xVc0EE8e4XSZYwKRxXXnFyWbnwmMBvI67pt7JEsHrpv5M1FtYKxRtfvOIyJBZRkj9ap3hjUn6zQukxfhCMLaKskGJOym9WKfOLtyNWK+J/wyMYq5o/n91JinsXWG9Uu4dJrVUC9x3Xq7m4+PXuf0e2vCLqlcBNrwCodMjgdSYIzuyzvLh9dXnzm5wZusBhHqp6s1C9MtQvviKkzl/d3Ny8e/N2n3S+khYr1S1DnVxmU7X+WDGDLhUROS5VvRZ8RErBd3dZZHUkd73VKAWfFPOvfxGHdNhkgtYp5p/c2iTjOoYjsSG+Zb2qy51cqHEIiAatW1EzvRKl35PUS65EqVuvcPPIL7UZ2LVEcFn/AOcgLpZSSBsPsWcDuBqMVEw98DpXcgc8bOl69GNhH3m524lFcv09VTQuMdaHl+wlYdYjvWAxew1l91dE00jadsyhRyu55LQnlyinSC855Ze/r4D0mlqlr9fUjo4spfDILxqOdXGYPKo/DJu8KposOPWJYdDkZd+5+9/7oWmS+9Wb8pM3Td9wfxxWzTdnqiSP7KgMfgZu0hijuTjHNJJJ0bVPMyM3KvCunTgMJum20hXUdmFdJ75Vw3HqNBlDyNouLAmLZTJ+jauDRLRj3dyVqgnSNjQofwTrECa953ZR4cmepfy0NgzWIkwLrHUQ5KthqgfaSvVNEl0K0FzK9ZIJrAClL2/v+vhxqsPQVuYgetvMLQZt3miSWNmdnyvvZpFVmNJrWQFMjUQQgXJsKFYRlp92KwTrtl+aeRsAwnsrm4GanTUK80hLw5g5qTxAbdPuG21dQ8nb2rB+LARaai/iPm0zStQz80WB0nLs9jbV2XG3ll7lfPB7RkbmPVL1dhAq2VcvveYnqrUYZbuxHeeFD3vmZArHAmW8aVbd2Po204Wx/8s4s9oy1pPsFUJAWbrNzSDVHSnZwrtw1EUEY+lGthFAcUbN3ArnTZzs6MVU9a7Kt0b5lgCkzLzj2mKrcwNlnynNNrDhRUa+hjNUJvP1wRzX84mBqOdFXV0WSNoUUU0C0PHdaX2O9tSdGBBQ9Lbd52Itb6ZQ7QLA0LRtHb0QRKFmKNRTIHJbMD8HIdKMfON2RcIRQqNV4KmiwbRVdbHy429C+lY3YDh9WrKzNtf0MOJBMELfnZub9UNhbfxt24v/t96Yc9cPHcT8neJv+lb4euU6qNjU3VhCCHdzNlziYuQTfxnGM/Lhc+YvkOOuejI3c1CDJUK8CwQr3jMYdwcK1z3eXbVaOrSyqA6gGM6y99v/bN2dKJAhWCXkIDRGUWcuS03oputDlvbgkUNg5JqHOwgdwLK92Lbt9D8UCdxO5BAKo8Cz+6hVyhF7Adulpu3ksqBkDEfTllu3Y0+sEdjqdPZwHUX2horZ9Ei//AlPeMITniAB/wexRKEcsh4hRwAAAABJRU5ErkJggg==;" vertex="1" parent="1">
          <mxGeometry x="540" y="1140" width="20" height="20" as="geometry" />
        </mxCell>
        <mxCell id="xtmQm8H3WPaShv8IGNw_-213" value="" style="shape=image;verticalLabelPosition=bottom;labelBackgroundColor=default;verticalAlign=top;aspect=fixed;imageAspect=0;image=data:image/jpeg,/9j/4AAQSkZJRgABAQAAAQABAAD/2wCEAAkGBxMSEBMSExIWExUVEhgWGBYXFxUSEhcVFRUWFhcaFhUYHSggGBonGxUXIjEhJSkrLi4uGB8zODMtNygtLisBCgoKDg0OGxAQGy0lICMtLzI3LS0tLS0tLy4vLS0tNy0tLS0tLS0tLS0tLS0tLS0tLS0tLTAtNi0tLS0tLS0tLf/AABEIAOEA4QMBEQACEQEDEQH/xAAcAAEAAQUBAQAAAAAAAAAAAAAABQECAwQGBwj/xABDEAACAQEDBggLCAEEAwAAAAAAAQIDBBExBQYSIUFRExciYXGBkZIHQlNUoaPB0dLT4xQVFiMyseHwYlKCsvEzQ3L/xAAbAQEAAwEBAQEAAAAAAAAAAAAABAUGAwIBB//EADIRAQACAQIFAgQFAwUBAAAAAAABAgMEEQUSEzFBIXFRgbHhFBUykdFCofAiQ1JhwSP/2gAMAwEAAhEDEQA/APcQAAAAAAAAAAAAAAAAAAAAAAAAAAAAAAAAAAAAAAAAAAAAAAAAAAAAAAAAAAAAAAAAAAAAAAAAAAA5rOPPey2KqqVThJz0VJqnFS0U8NJuSV7uw94ETxqWLydo7lP5gDjUsXk7R3KfzAHGpYvJ2juU/mAONSxeTtHcp/MAcali8naO5T+YA41LF5O0dyn8wBxqWLydo7lP5gDjUsXk7R3KfzAHGpYvJ2juU/mAONSxeTtHcp/MAcali8naO5T+YA41LF5O0dyn8wDdyP4RLHaK0KMVVhKbui5xiouWxXxk7m9gHXAAAAAAAAAAAAAAAANDLuVIWWz1K88IRw2uWxLpYHzxlG2zr1qlabvnUk5Pr2dCVy6gNcAAAAAAAAAAAAAFYSaaadzTvT2prWmB79mTl9W2yxqP/wAkeRUX+SWPWtYE+AAAAAAAAAAAAAAB474Vs4uGrqywf5dF8q7xqu3qitXS2BwYAAAAAAAAAAAAAAADpcwM4XY7XFyf5VW6FRbEn+mXU/Q2B7wmBUAAAAAAAAAAAAOfz3y+rFZJTT/MnyKa/wAmsehLWB4FObbbbvbd7e1t4gUAAAAAAAAAAAAAAAAAPaPBdnF9os/ATf5tFJc8qeEX1YPq3gdsAAAAAAAAAAAKN3awPBs/s4Ptlrk4v8qnfCmtl1/Kl0trsSA5sAAAzUKGlzIk4NP1fWeyv12ujT7REbzLN9jW9kn8DX4yrvznJ/xj+6+jk7SdybPsaCJ9Il8njlq+tqxs0qkHFtPFO4rrVmszEr/HkrkrF69pWnl7ACA6Gw5uxnFOU5KW1JK5FlGg9I5p9WevxyeeYpWNobH4Xh5SXYj7+Ar8ZefzvJ/xj+7QyxkLgoacZOST13rWufUcM+l6deaJ3TdFxPr35LxtPhCkNbAACSzcyxKyWmnXj4rukv8AVB6pLs9KQH0NY7TGrTjUg74zipJ8zAzAAAAAAAAAAHEeFLOL7PZ1Qg7qtdNasY08JPmbwXXuA8YAAAKxje7j1Ws2naHjJetKza3aEjThcki6x0ilYrDHZ81s2Sb28rj24pWw0dGN+1kjHXaEPNfmnb4I/L1lwqLol7GVvEMH+5HzaDgOt76e3vH/ALH/AKhiqaYAksiWXSnpvCP/ACJ+gwc9+ee0fVScb1nSxdKve30+7pKNTRd5dWjeGRpbllIpnBMW1aalFxavTVzXMz5MRMbS9UvNLRaveHB5RsjpVJQezB71sZRZcc47TWWz02eM+OLx/ktY5pAAA9P8EecX6rFUe+dJvd48PauvcB6eAAAAAAAAAtqzUU29gHD5ZzRoWutKtWnVc5bFKKiksElovUBo8Xdj31u/H4QHF3Y99bvx+EA/B5Y99bvx+EDk85clWezVVToubkly3KSkk3glclru/csNHi/rlQ8W1O89GvzRJPUbZsNDSle8Ee6V3lzy35apUkILYsFg4eapXapfq5o7WcNTetcUzZN4divk1NIp3id9/hsmuL2yb63fj8JnG/OL2yb63fj8IEVlTIysslThfoNXxb1t773dj/Be6C9ZxbR4YvjeK9dTNrdrdv4+TSJqnbtjqart37HK8eUnDbeNmyeHZilkihaJxVbSWxOLUXe8L709RE1eLnrzR3hacL1XSyclu1vq3uL+yb6vfj8JUNScX9k31e/H4QLXmDZN9Xvx+EDLZMyrPSqRqU51ozg1KLU43pr/AGgdgsqVMOS+r+QH3pP/AB7H7wH3pP8Ax7H7wH3pP/HsfvAfek/8ex+8CaAAAI+21r3orBY87/j+4AaqAAAI7LmUlQoyqPYrorfJ4HTFjm9oq4anPGHHN5eR1qrnKUpO+Um23vbd7LqIiI2hjrWm1ptPeVsVe7j68pmz0tGKXb0kmtdoQMl+a27Ienh2ubGTuDp6bXKnr6I7F7Sj12fqX5Y7Q2fBtF0MXPb9VvomiCuQCPy3YFWpOPjLXHp/kkaXN0sm/hA4jpI1OGa+Y9Y93AyVzuew0UTuwcxMTtKsJ3O8TG5Wdp3SUJXpMjzGybE7xuuD66fJVr4Snr/UtT95S6nF07+naWu4fquvi9e8ek/y3GyOnrQAFrAAAAADpwAGK01dGN+3BdP919QEYgLQAFJMDzPPXK/DV+Di76dPUtzl4z9n/Za6XFyV3nvLMcT1XVycle0fVzhKVjeydR8Z9R1x18uGe+0cqQOyIlM38n8NVV65EdcvYusi6zP0sfp3lZ8K0f4jPG/6a+s/w7oz7cqgAKNgcdnTYNGfCxXJnjzS/kutBn5q8k94+jI8c0fTydava3f3+6CLBQtqx1PF7DnePLvht4bhzSGzk61cHNPY9T6DhnxdSm3lL0WpnT5Yt48+32dOmUjYxMTG8Kh9ALZAAAAAB04ACKtVbSlzLUvb/eYCxAWvH+7P+wDYEBndlf7PQdz/ADKl8Y70tr6r/SSNNi57+vaEHiGp6OL07z2eXNluyi+lTcmkj7Ebzs82mIjeU1CKSSWwlRG0bK+1ptO8roq93LFiZ29SImZ2h3+RrBwNJR8Z65dLM7qc3VvM+G94fpI02GKefPu3yOnAFjkBaBhttmVSEoSwa7HsZ0xZJx3i0OGowVz45x28vP7RRcJyhLU4u5mkpeL1i0eX59mxWxXmlu8LEz05pGjU0lecLRtKbS3NG7IfHpO5EtWlHQeMcOdFXrMPLbnjy0vCdVz06Vu8fT7JQgrgAoBagKgAKaS3gdQBq2+toxuWL9C2sCOQBAVYGOrNJNt3JK9voERu+TMRG8vJ848qO015T8VcmC3RXvx6y6wY+nTZkdbqJz5Zt48Is6oiTyfRuWk8X+x3x18oue+88sNs6I7oM1MnaU+FktUHyeeW/qK7iGflr047z9F/wPRdS/Wt2r29/s65FM1o2BY2BbeBTTAo5Ac9nRYb0qyWtapdGxlnw/PtPTn5M7x3Rc1evXvHf2+LmS3ZVmstW58zPN43h0xX5ZSBxS1jtjpyjKOKd/VtXWJxRkrNZfaam2DJW9e8Ovs9ZTipRwavM/ek0tNZ8Nxhy1y0i9e0sp5dAC1gALZMCwDq5O5XvBARFWppSct+HRsAsAo5XAWSqcwHJ595Y0KaoRfKmr5c0N3W/Qibo8W888+FRxXVclelXvPf2+7gCyZxmstHSlds2nqtd5eb35Y3TBJV7LZqDqTjCOMncjze8UrNp8OuHDbNkjHTvLv7HSVOEYRSuit+L2vAzWTJOS02ny/QdPgrgxxjr2hklWu2en+Dw7KaYFAAAABbOCaaetNXM+xMxO8PNqxas1t2lwuUrG6VSUHhinvi8DR4M0ZaRZgNbpZ02acc9vHs1TsiN6hW5OvYcbV9UqmTevr4adSd7vO0RtCPa3NO6czZt10uCb1PXHp2orOIYN46keO7QcC1vLboW7T29/h83TKRUNUuUgKSAtkwLAAHVVIJpp4NXPoYELW5LcXivTuYGJzYFoADjM/MlXqNoisEozXN4svZ2E/R5f6JUfFtNvtmr7T/AC4tIsFCnsmQVNJPbj0nfk2qi9Xe/wD0ldFbjnu77Qy2Wrwc1NLB+jaeMlOes1l10+WcOSMlfDradRSipLBq8orVms7S2uO9b1i1e0scmeXtRAXqQFQAACkncr3qSBM7PMs4crOvXlJNqC5Mf/lbevEutPj6dNmQ12eNRlm3iPSEZwst77TtvKHyx8ElYINRvbev9jtjjzKLmtG+0Nk6OCZzbsWlPhH+mGHPL+PcQNfn5ackd5+i94Jo5yZetbtX+8/Z1JSNeAWzqXbQMaqXgNJ7wKdb7QOxA0cqUL46axjj0fx7wIoAAAx16MZxlCSvjJNNb0z7EzE7w83rF6zWe0vNa+SXRrzjLCL5L3p4PsL7TWjJWLMRxDHOnvOP/NmUlqxv2WpertqON42lLxW3hnPLolsi2v8A9b6V7UV2tw/1wveD6r16Nvl/CXK5oFEAAqpAXAVA5nPXK3B0+Bi+VUWvmh/OHaTNJi5rc09oVXFNV06dOvefo4Es2aZrJR0pXbFieq13l4yX5a7pgkoDJQpOclFYt3I83tFKzafDpixWy3ile8u4sdmVOEYLYu17WZvLknJebS/QNLp66fFGOvhlcrjmkMcpgY54AWJgZEwKgdiAAgrXQ0JXbHrXRuAwgAAEPnLk/hKemlyoemO1E7Q5+S/LPafqpuM6LrYupX9Vfo44vGMX0ami7z5aN4eqW5Z3SSZwTV0JNNNYp3o+TETG0vVbTS0Wr3h01krqcFJdfMyiy45x2mrZ6bPGfHF4/wAllOaQAACAttNpjThKcncopt9R6rWbTtDxkvFKza3aHleU7bKtVnUljJ9iwS6kXWOkUrFYY7PmnNkm8+Wqe3FMWSjox53rZIpXaELLfmlmPbk6PNqw3J1ZdEfayp4hn3/+cfNqOBaLaPxFvl/KblU3FW0jGwAFswLQCYF+mB2YADXt1n046sVrXu6wIQABRgVA4jL1g4Kq7v0y1x9q6vcaDSZ+rj9e8MLxXR/hs87fpn1j+PkjSUrW5Y6vi9hyvHlIw28No8O7eyRatGei8Jeh7CJq8PPTmjvC04Xqull5LdrfVPMqGpAAADjM+MqXtWeL1LXPp2L29hY6PF/XKh4tqt56Nfn/AA5InKNt5Po3vSeC/c6Y67y5Zr8sbJM7oTYsNmdSoorr5ltOWfLGKk2lK0emtqc0Y4+fs7GCSSS1JK5IzdrTad5foFKVpWK17QqfHoAAWzAtAAAO2AAAIfKVDRlpLCX/AC/uvtA1ADAIDRyxYeGpOPjLXHpRI02bpZN/CDxHSRqcM18x6x7uFau1M0UTuwUxMTtJGVzvExuRO07pOnO9XkeY2TazvG64ProcnWnThrxjqfv7Cl1OLp39O0tdw7VdfF6949JbZHTwDSyxlBUKMqjxWqK3yeCOmLHOS3K4anPGHHN5/wAl5fWquUnKTvcm23zsuoiIjaGOvab2m095Wwje0ltPTzM7JqjTUYpL+sk1jaNlfe3NO68+vLp8h2PQhpP9UtfQthR67P1L8sdobTg2j6GHnt+q30SRBXCoAABZN6/7/dgFAAADtgAADHaKSnFxe399gHGW7OGzUakqVWqoTi7nFxn7Fc0Bg/F1i84j3anwgUWdti84j3anwgV/F1i84j3anwgc7la22erVcqFRT0tcklJXPa9aWJdaDPzV5J7x9GR45ounk61Y9Ld/f7tMsFC2LJVudz2/ueLx5dsN9p2bxySWex2rgpaTd0buV0HDUY4vSYTNBnnDmiY7T6S2/wAV2PziPdn8JSNifiux+cR7s/hA5XOnLKtFRKnK+nFanrSbeL19haaTHFac3xZriueb5eTxVBktVJDJtHxn0I646+UfPf8AphvHZFX0K9KE0601COOtN33bNSIusz9Knp3lZ8K0f4nN/q/TX1n+E8s6LJ5ePdn8Jn25PxRZPLruz+ECv4osnl13Z/CBdTzlssmoxrKTbuSUajbbwSWiBOKyVPJy7rAtlYqnk5djAp9iqeTl2MB9iqeTl2MC/wC7qvk2B1gAAAA888LWb3CUla6a5dJXVEsXT2S/2v0N7gPJAAADJZq7hJSWz0rajpiyTjvFo8OGpwVz4px28uso1FKKksGrzSUvF6xaO0vz7LitivNLd4XHpzSNnqaS5zhaNpTKW5oQudNv0Y8FF65a5c0d3WV+ty7RyR5XvCNLzX61u0dvf7OWKxowDZsdTxewnaPLtPJKm4tpuavVr3jv7N+jT0pJFlEbzsztrcsbpmEbkkthKiNlfM7zvKrYmdvWSImZ2hy2ULVwk29i1LoM7qc3VyTbx4b3h+kjTYYp57z7/ZrEdOAAHofglze4Sq7ZUXIp8mnftqbZdEVq6XzAetgAAAAAAAAAFlWmpRcZK9NNNPBp4gfP+eOQ3Y7XOl4j5dN74PDs1rqAhAAACTyTlFU04yvuxV2u4sNHq4xRNb9lHxbhltTMZMW3N5/7SH3xS3vsZN/MMPxn9lN+R6v4R+8L6OXaUXfe3zXHm+uwzHn9nTFwbVxb1iNvdz1qtDqTlOWLd/8ABTXvN7TaWtw4q4qRSvaGI8ugATPsTtO8PkxExtKZsGUKcVfJvSfNeW+HW4or/q7spquD6i15jHEcvu2vvilvfYzr+YYfjP7I35Hq/hH7w1MpZUjKGjC/Xi7rtRG1WtrenLTyseGcIyYsvUzbenaO/qhyraQAAbmSMnTtNenQgr5Tld0LFt8ySb6gPofJWT4WejCjTV0YRSXPvb529YG2AAAAAAAAAAAOU8Iub32uytxX5tG+cN7XjR60u1IDwwAAAAAAAAAAAAAAAAAAeueCbN3gqTtdRcuqroX4xp7/APc12JAehAAAAAAAAAAAAAA8R8Jmb32a1cLBflV75LdGp48faul7gOPAAAAAAAAAAAAAAAATeZ2QnbbXCldyFy6j3QWK6W9S6eYD6BpU1GKjFXJJJJYJLUgLgAAAAAAAAAAAAAROdORY2yyzovU2r4P/AEzX6WB892mhKnOVOaulCTjJbmncwMYAAAAAAAAAAAAAAHuvg8ze+yWVOS/Nq3TnvX+mPUvS2B1IAAAAAAAAAAAAAAADis6/B5Ttld141nRlJJTWgpxk0rlLFXO65dSAhuKNeeep+oA4o1556n6gDijXnnqfqAOKNeeep+oA4o1556n6gDijXnnqfqAOKNeeep+oA4o1556n6gDijXnnqfqAOKNeeep+oA4o1556n6gDijXnnqfqAbuRfBfTo14ValodZQkpKHBqCclrWk9J3q/XdzAeggAAAAAAAAAAAAAAAAAAAAAAAAAAAAAAAAAAAAAAAAAAAAAAAAAAAAAAAAAAAAAAAAAAAAAAAAAAAAAAAAAAAAAAAAAAAAAAAAAAAAAAAAAAAAAB/9k=;" vertex="1" parent="1">
          <mxGeometry x="540" y="1110" width="20" height="20" as="geometry" />
        </mxCell>
        <mxCell id="xtmQm8H3WPaShv8IGNw_-215" value="" style="shape=image;verticalLabelPosition=bottom;labelBackgroundColor=default;verticalAlign=top;aspect=fixed;imageAspect=0;image=data:image/webp,UklGRrAWAABXRUJQVlA4WAoAAAAwAAAAGwIAGwIAQUxQSLoEAAANoAJt25xWeyJRzDCVgFscBMexXQ3IxHZRQbYyH5IvspWN6mITefaltcU11EFdQZ7pDAqZf2EJWTp933/5ImICkLqlll6vFXN4b59PR0/BYII3a/7ksIH3+1yxVtdbJQDD26vZG8MSRZBh4/Akj6l03wiGWwA9FoWFV8vPOmmDLguuAUdkl+iDPG2Jnswi/RFE2hdoBhkjbVDqo+6IDLnbBrXa8n4nI8YVUOz23XM1A4IGqLYyHuop5xmg3EbgmylmXYJ6Da/rplUICr60tFT62AYRh586qVN6AR23P5Yn6eK1QMovAzNNQlCz4WmpYXgg6ND00+E7aNrLH6RBCKre/64lLwRhh1rCqiOQdlgbJ8nog7hHPT85px9A3t7DRVJkDgR+PhfJOAeN21tnSZCg8tMtEb/THJnBnl/EzfgAQj9/8ONV7YPUvd44ViMQ+6gWpxDkHmrxCUHwoRaX7yD57wfxMEDz+3k/Fh7RwTPjEILsQ21zHgjfMzdValGeMZhs6AWk/1LezEcQ/8fORtrU1/60iRDkH2rRWWCAlhvZJQe47EblgQV6ZkQGDzD8aAIwwUCPpMEFGsMoxmCD42oEFT5QeV7vDozwbmetbU6wfb+OBCuUYg2bF9jOajqYoR6s9MgNHpsrsUbBD4Rcoc8P+r0VWKPkCFIssTmC7SxhjQZPMPwFLk9wrQUFnlB4XcAaLa5guQAEVxASQJErFKdgjnm+kJ/hhC+cXOGQLxzeosEXGkP8J2WJM5RanKGlcwa9zhnqNc5QK3KGYo4z5KD8r/yv/K/8r/yv/K/8r/yv/K/8r/yv/K/8r/yv/K/8r/yv/K/8r/yv/K/8r/yv/K/8r/yv/K/8r/yv/K/8r/yv/K/8r/yv/K/8r/yv/K/8r/yv/K/8r/yv/K/8r/yv/P+flPMcY5hPi4xhOqoxhtFTnTE8BTpjCAYtxjCYlBjDBP9NOWywhSFwe8gWboGrE7ZwBczybGEG7jgtMoXp36RgCvJvrsUU3L8xx9cCS3hdZLkswVrkGyzBX8QcHZshOMuEZAhiGXPs9dlBbxUp2IFchTk2H5lBc7VAZwbBanBsVuBgTSFZgVgH99uM4B5r79wxgp318FxhA8+IsDpmA9UoMGwwgSEi1QMmoEcD32ABPiI2PRZgRoXuJQPoInLXYgBudNBC8tOwyU9t4vuEjXY+El9nMyi/kF4ZG54MDMLzsXHTIzxzc9BCstMQR9MjOhOx9PP7JPdjFg8cfCe5A8RVCwlOQ3y1kNw0xLk2IrYaYj3ueaRmIub+wzmhnSH2F3ObzBwkUGydEtnF7yTgbMsmMec3kinm5wR2hsRePHjkZSLBfm9EXDUkelwLSUtD0rWQsDQkX/u+T1Q/DpCGB3mPpMwZ0tE3Q4LSkJ6aZxCTbyJNzcELKZWRspPyxzYZfeogfTufQiLSkM6adUlAXRdp7XY9g3h8E2lu+kGDcIY60l4fjitE81xFFlaf77YJ5n4HWblzL21icQSyVDj6I6E0A2Rt0ITok0hPIptlD9ImDkcgy4UDwy0QxavlI/t96xWWKBLDVLp4O7pyivzJYYMEhrdXM7w9Z1e3QwClll6vFXPvbvPp6CkYTJC2VlA4INARAADQjACdASocAhwCPm02m0ikI6MhI5MYYIANiWlu6dCZA0yQ1XhH06xf8Ki3P/V/unhfZf+h/Vebd9v1Zze/G/2b9+eqX1Cf5P0h///6//Q9/3/QB5pfqC3t+ndfHf6j/0b+q/rX5I/rP6X2HEBf7N+gvcJ2G/efUI+qbqf9m736kfsT+L9A38g8XLwRftX/A9gD+Zech9Regz6k4DAgSJdFK5aEnu7GPatEnkvJeS8l5LyWk/Bvc+x4gCmfSF+IstpvyZGXTyXkvJeS8l5LyXyHkpj8QCtjZkwMWUcVWUUzZkGZnLOWcs5ZyzlnLOWcsIMMiaoWhJgDcs5ZyzlnLOWcs5Zyzlmuv+QAIL7Yqk5cS4lxLiXEuJcS4lxLiM1wlPBA6B0DoHQOgdA6B0DoHLgbPsk0YYwxhjDGGMMYYwxhjDGGMMYYwxhjDGGMMYYwxhjDGGMMYYwxhjDGGMMYYwxhjDGGLoWAfteI1Hf/qxOdcrYRWlV9nXmGihiZ5No5HjB0DoHQOgdA6Byw/A6mFHdGtjWve8bZCxOFk+Grx48aWSaMMYYwxhjDCz0w2Awan1ktl+1mL3ZlCkYRSztI+xcS4lxLiXEuIso+maRvsXj2sjBHIlxZsViL44b7E2ptTam1Nqa+cP1/2oeLKqE9ZGhMDFOKXmFrA/ZWBGYgownm1STRhjDGGMMXQ7haJvjMNSub0mQqG/rnGsidrapRhPOYALl6/NnHyXkvJeS8lv+NXwdkzHBpkrLHn2mwG5tDmsBXkTl9gSM0OnGPjEnkvJeS8lvqdC1yTz4Qy2KDhCT+91l5SC/Zizmv36RaBjoBBvTlnLOWcs5GQes0VP77hSFaYABwXaM6udR7w4pa2MJ0I7RkL5G76SaMMYYwwx4fr6inDSpFfhMOrF/6opeqRBjdDyAN5JDRkL46LsC37aX9tZJowxhi6HcLRXxcS4lxF5UF59QCrKMhRxFzES9NrJNGGMMLa7A+t5kDGGMMLDaAUQuiOWauJZj6h+wWwcLOWcs5Zrgq1+wYeeIKc0fsheVJwGoYC6/lYrs+8WEGJnYX3/80hgbcwjEaBGBam1NqbSxsCzkLiZTwcL0kSxr6u9Q9sUzA/fQJ3kQVUxRe25Qdm7N2bEAFzAjbQOhRVha6aMJuLeQfq1U2TeMoLMUXtuUF5kOV0LSk8l5Lfs8ppz1GVzTodeUnXjYXRa8pPJD7ncHXf6tRXsg9vgu65jq9ILQLc0CxGpvXEOMMYYwxnpMCdkmjEBqTRhjDGGMMYYwxhjDGGMMYYwxhjDGGMMYYwxhjDGGMMYYwxhjC/stmjDGGMMYYwxhjDGGMMXcxCVayTRhjDGGMMYYwxhjDF3IIWKN6IcJgCqIuJcS4lxLiXEuJcS4IpkyNGOGapMBOgZTSEzVWNRA6B0DoHQOgdA6By4lqjksxbhOkftbdFL3D0WMMYYwxhjDGGMMYYaxcXBfjHL6vQfcMMB/9PY91ZlS/EuJcS4lxLiXEaJ6n9//gQIRgAP768RDwUy3yJzbFOQ+Yspo7cfNEP6PaP1pRmeVib8/ngA54lDiiMQGAAch04I884ekA3aWzKJ54/2jJe1d8Z7GxVcq11XEEFsMQq6aWnRaqbGl7gBYaF+ijREkeZrFJARJqbO9lUs5oqNpIHB67p1TJ8SYHMKZfDl1dBSczAQOzbNqbO//6wT/+iZ//+r5nDLGgAgUlQcshLyA7p+/w8YvIuigDBoWiG02ASKHQT1WyWHlN+o6KYV+VEfYAJRF64u8CvQaoBcoOrjqqBeEPzGui9i99t/FUtSbvvROokAAAAEyMCzubu38NysxK4rim8R9JlIZxEBi5wmVwau6ZSe/vJiov1dxgekzWTurSfFIf+D31j79Cd3upzYnMMwAAIIoH6q8Wtxp8Y753zM8JIFxqSIC91mfCDnnb8FimVmHEcqfPhgzkiRM37fPigKOFAAJoocC934rV8uI4ygTNvNngylpKe4jP/80iJ/gRKrqkqGMs4hytGYWWjuj/mZ2gAD86jhABrRxN8fvsEAlS9hDAiwGKUdCohOwXcQACvlfVnFZ4oAAAAAAAABZXzcXL0gJ76akvzILQNSzf5x8WhgKmReg+VJurI9Ia1f97rh03pclaJGc/qejYdHuqp4sykhbBZDOh3foWI9gSrb5AD2OmCy0JZRG5flWHli4Fgt5WwwSB7TEqLxAJauCoVHGynk4Y2fGPSXthYb73w0AgYSDn+2Ev+/GbnKPEvPjkLz2E0+fgxYtaLg/Bi3jaaf4w7zDCYv+oALhR3OFJuxCGzRjwVheUO0PMnbtfK5WaoqCAX3uUPPBEQWwer5ihKepzncHQzc5lMSE6d+jGZtYPj+AWHW1ugcshI7eyU7RhdPLLsQlgrQsroQmW3X3wiEZZhBTkYcH3V80eBLsTteZ2YUPXLUkfHBhOy/HZDSADGKbbhDFZylV729zLLv+6RIPg9eM6cPde5cUabrWw+FoAkxbWCs+N+PhNOPMlBgu2iR/BUFWxF4kzvgd6sGSo2G0omTq7hwyGKACUWkI6XUVMmrfccq7KopuBSaAvUaOmQbAqRt67VeGZZ5foBV3k8pf0Fqm+tPttSbkuXfAAQZxdAlMXGhiz4aYRWF8IddMFR7xtxWvp+pQZc8fz+Cpvg2cRBtk1btY70L+s+kUeVFbdCq1th1w4jrRnHdJI13gMN3TkbPs9Qa6U3HQtwat/mBqTILWxXyCNczw6gXQwsuuFzZ2Sz/l5bwUzwMgmOFQqtuJZ5qZRpubGTzg2hWvhI8r1vqFnNvHlH45uNJNaXHLNGVLegldnVzmxnuCXv0yuJ4w965iAo1Xn24y0/jeMUXfmVCetVCdTH6qBwWvq218Q8G+npbR2LgbvMzlMJRKKYLIwmWDX+LiY7tWzBeFGYdV6GdEpPwTK8gxRBQ3q3myWlQixVM+7b/GnjDrwKooBb7gd7nvyBW+t63VoZQEXimyegoj2JH4n/DEN4MBneg547ZAubYuChuIbDL6vqRPwGTOhVsJvK1Q3eYJwRLpTZHh3Ply16ch1enqv9IymNvMqrNH46UU/hGLR+3umhuxmzk3YtiXkAW46qq628gvIOQ23w3C1Y3oNkZbdCSs/BEg6Be+pRe7fDT8b6BKehlLDt8AOEsHg91Ldv68aqZrdpHf5O88FVOm63GOoNqN7AUJO/6cYQ6mpQtAcSxyZo6F4NMFW/9e4MTUefzTZm/m5uLNiTiuwB91E3XlPOnvEfOzTi642mn6ZoP0UBB7G5OznLNwfsLTHc+nuD+F9Kk/fySndfkr7tlqFBbA5DH4+Kc/6SUSMUcP7lxMjjQCeCXrHEZHKrUrOGP8xb2EQBV+xjBu4MUPFxdjzVZQ1FOs/NGkdXoaxflbS80v/R2ZE8T6TSjJwSN2i1NSTemd8TNLaJgpXgDG9Yc+t0em43X3ob4X2Xfs8xeWlf+GAPXDuVJ+e4oVipXJaEWQbviujqDCt8bkXGh1hC9yAqfS5FjC/YZBpNBz9ynkO5moBhzKMG/lZb7p+jyNFuhaLASqdPDTin4RbMBJu+ScU1+ZskDUlOzDPQnvypfWiMotGGY1wuNDCPREr7K/DT0JMZoZwdMNiQf4l3/WpkFs52Luw8YUnh1JCFud3A2MTbuulzYWxn6/lc5OO5mU5x9MPCUJ23sS8kvfOxs1IcY/SAUbhKIjCMSxAwvpUnC1zfRke3pGs5FlCaU9Im2wzNzoXxdkixdzBSgKb184AapL2Sj2ynIaJZPncj71p4Lj41Edfn5+fQMiQXSup0mUw3HRkplXSd4ljfvvdTj9mtBWE2jGTbw+uosxbJpLZfn+LXtV8jDj/3mqg66A9m4qs0Rr4cvmDdG148g5szbKMyzy+X+b60Zd1jcJnKEbB3ba+ILOS1oJdXGHBQ7F2DgTyo1h7P4Uj1HhPzcSQFXI83lwuQRa8toziWMV2A9Cb4oX51weh8LmxTv0gcF3HRKUI2ifbI+GXWTw2vnxJk/XoWCZ47d/92hiT27apdB2TB2lcHSzMhqF64mib3+K2YrngSwv0N/253wzzBXb6GK+X3fEJ94zWqT4WIGX+jcHC2/kJ7QudcstD8cfWTKWnZ7anSaVOLL0IYCL1XXDKjjeCfljF7Ra0O8I06KSD8WRrEnRx5PkKweBbcQvIJt/69avrS4RA00twbTThDHQ9MBbvcfQO04fosp7ytTYa+Mvg41tBMcwrReg3JHNJe+CU7MLBhzVzAdwNLFLZFioAZCNg8trxjOrL7yRIb/y6y8g6MR0ZE/gJuMKGONpenMt8Co6+k5PTRD+gDNnHvj/CddYpA19ldRivg9nO9W1loWR4NMuDW4+oxxj4sfUWHsZaeqG2h4OGvUDCtqgHtxtng/ETDy5ag7cRQzyxNiBX5BIhKAWfYkLFp59IguOU3qp/XuKrs1tZ8ELh+PBMNhn4qcmjiU9sd1CZ1Liqjd4AtFGix8oD5aak1XMfv7DWEnVifa5W54wOWS872ghT/fol0vaOamYGEkU7MLFjF+aogEJ9zdvoR76xOqEfzqXkYAIAAcnWlGVPfmyjGNpo0OZ7UgR9DPeCQcUhcixZO566yBLpvjiL8PK4ZWvtmsBgrARPIZLtwC/6eWUCYabL8Lk9uFQhnrL6vPvJnx/PHu8nIAZqtpFLtXv8MxVJOcX6MrXZU91nyRhC13JBnYHAzqNaZiTjygY1xah8H3j0yOVfKTAzpKFL+rrGOZe7i4jj3NYHR39/jTwIyRiLI+HbJlEeDGFJzN/U1a99h/j14UiaoczBfwJ5m0darESaxvUr0rMwYRn8zFfOfjYIDZENxYy+1MyUCwiirfSx2Q4epHCDQxjxGt7zzflYFJpqmaMHJ0OdyM7oYmy5NH7hH9oAOmXSUMTbY8PkIZ4ft1ZqTHFBgcpNqlZMFidQ85gM0J+2zWeVub659R2PxUBi9uj749vhKbm0Etz0dnx4xbKw+UXAGRpQGdJQwb145aJclPcjsojel+yBJSmal5R+rJyOXGWFFMqZb5fGNGaoJv8AsNFbLx6nV/eJVJS070z4h3tuyF2iaz07Db6QqnrNH40cxmnQsnggJghrGJQP/HtPrf1LeCJ1aGOrf2xJzQfxaNQtcWaockuU8qP8ZdKpgpUuUEkNWWvIE8hU3zKGT7ctx2mGCUPxljnoE0StAGvj17STPEERmgfzPqeycVxWMoq3/OmmuWo9R4YOxNizUXtxZ6oAdXPgL/V+piR8OzjC4mBN/3FzfVvcjDOJb9s3EqE3oEDex3IBSG6ou5G2sTsRNpaZ8MWQ1lDnhx300g73E9OBRXs6c33mrQ5E7qrqq97RH8m9YZFIIr243M9v8P8s13+OCzGZYMS6KTi3wk33HrB4uUT/QnjyehoQfg1oC9Db6JQ+49dGcUrPJ4h5rnfKFWODP5eiMvTQxRBQsV4VdtMJZIargtBodIxVnNuSf3IqjdNR/p3d/QQDp3g7VQM2pr6eA53t0qNTXXuaTyli1AbbVZIaJ4JtiVmyPMljIxX8+IOrQt/VDFhaAAAAAAAAAAPxMY4zasogABRwPJpjlGdLV8c/EwEd8eRckYGwaNI7t5Z/KCNH3YIRIIUc3tY401no8k8wAogFuprwcJog3K4qIASM1dv6PLdMWW9aQ/ZkQO1bIEom3isDBtoxqT/33LtX7gAJDs/JskNzxcl/9MaoEn6YT+eauS8ZF9i/qh314SJACLa4UqZW/odiCPJzNFqVFsj3OAKLVZPt4lB5QKRYNlRxzVhKn4lxN5HEv4NnS9HRbkOtDOwA2hut/bh5Eg19UHpfJEM6cBIny+FUoNDdjYFiAB9j1W/EjY1lgrhYSZWEpjojjOgGgvAjrCneShi4/v9fN//rdn/62A//61qVPwUyZ5Z33ubVxjIUuFUnQAZiIB3bGKR/e1JXQ/yw/UHrxZ0HtI1kvFAtu/y0iQkEKcIhShT3nZ2AU/NE4pDiDgAu0FNxV6tKB7MK2hblgoApGnh7ooAA/rQv7SD7ITqMlj06GJ6AbO/+mMaJT8ayVmWtz6Rj3QdY+v/2j63EshIQAAA=;fontSize=8;fontFamily=Verdana;fontColor=#808080;" vertex="1" parent="1">
          <mxGeometry x="20" y="1612" width="20" height="20" as="geometry" />
        </mxCell>
        <mxCell id="xtmQm8H3WPaShv8IGNw_-217" value="&lt;font&gt;&lt;div&gt;Identity Access Management: Only authorized users are allowed to administrate the platform.&lt;/div&gt;&lt;div&gt;&lt;br&gt;&lt;/div&gt;&lt;div&gt;&lt;span style=&quot;background-color: transparent; color: light-dark(rgb(0, 0, 0), rgb(255, 255, 255));&quot;&gt;Route 53: Utilize registered DNS with hosted zones.&lt;/span&gt;&lt;/div&gt;&lt;div&gt;&lt;br&gt;&lt;/div&gt;&lt;div&gt;&lt;br&gt;&lt;/div&gt;&lt;div&gt;Private Certificate Manager: Issues certificates for secure communication.&lt;/div&gt;&lt;div&gt;&lt;br&gt;&lt;/div&gt;&lt;div&gt;Internet Gateway: Access to the platform from anywhere.&lt;/div&gt;&lt;div&gt;&lt;br&gt;&lt;/div&gt;&lt;div&gt;&lt;br&gt;&lt;/div&gt;&lt;div&gt;NAT Gateway: Access to the internet from the platform.&lt;/div&gt;&lt;div&gt;&lt;br&gt;&lt;/div&gt;&lt;div&gt;&lt;br&gt;&lt;/div&gt;&lt;div&gt;Network Load Balancer: Distributes traffic.&amp;nbsp;&lt;/div&gt;&lt;div&gt;&lt;br&gt;&lt;/div&gt;&lt;div&gt;&lt;br&gt;&lt;/div&gt;&lt;div&gt;Application Load Balancer: Distributes the application traffic.&lt;/div&gt;&lt;div&gt;&lt;br&gt;&lt;/div&gt;&lt;div&gt;&lt;br&gt;&lt;/div&gt;&lt;div&gt;S3: Store platform blob data.&lt;/div&gt;&lt;div&gt;&lt;br&gt;&lt;/div&gt;&lt;div&gt;KMS: Encryption at rest.&lt;/div&gt;&lt;div&gt;&lt;br&gt;&lt;/div&gt;&lt;div&gt;&lt;br&gt;&lt;/div&gt;&lt;div&gt;ECR: Container Registry.&lt;/div&gt;&lt;div&gt;&lt;br&gt;&lt;/div&gt;&lt;div&gt;&lt;br&gt;&lt;/div&gt;&lt;div&gt;EKS: Host the platform&lt;/div&gt;&lt;div&gt;&lt;br&gt;&lt;/div&gt;&lt;div&gt;Auto Scaling Group: Manage Compute resources&lt;/div&gt;&lt;div&gt;&lt;br&gt;&lt;/div&gt;&lt;div&gt;&lt;br&gt;&lt;/div&gt;&lt;div&gt;EC2: Cluster worker node.&lt;/div&gt;&lt;div&gt;&lt;br&gt;&lt;/div&gt;&lt;div&gt;EBS: Block storage for platform data.&lt;/div&gt;&lt;div&gt;&lt;br&gt;&lt;/div&gt;&lt;div&gt;&lt;br&gt;&lt;/div&gt;&lt;div&gt;RDS: Postgres DB for platform data.&lt;/div&gt;&lt;div&gt;&lt;br&gt;&lt;/div&gt;&lt;div&gt;Cloudwatch: Monitoring platform events.&lt;/div&gt;&lt;div&gt;&lt;br&gt;&lt;/div&gt;&lt;div&gt;Bedrock: Utilize the full set of Bedrock capabilities from LLMs to agents, flows, guardrails, knowledge base, etc.&lt;/div&gt;&lt;div&gt;&lt;br&gt;&lt;/div&gt;&lt;div&gt;Claude: Set of Antropic Claude Models via Bedrock.&lt;br&gt;&lt;/div&gt;&lt;/font&gt;" style="text;html=1;align=left;verticalAlign=top;whiteSpace=wrap;rounded=0;fontFamily=Verdana;fontSize=10;" vertex="1" parent="1">
          <mxGeometry x="50" y="1080" width="480" height="560" as="geometry" />
        </mxCell>
        <mxCell id="xtmQm8H3WPaShv8IGNw_-218" value="" style="sketch=0;outlineConnect=0;fontColor=#808080;gradientColor=none;fillColor=#8C4FFF;strokeColor=none;dashed=0;verticalLabelPosition=bottom;verticalAlign=top;align=center;html=1;fontSize=8;fontStyle=0;aspect=fixed;pointerEvents=1;shape=mxgraph.aws4.internet_gateway;fontFamily=Verdana;" vertex="1" parent="1">
          <mxGeometry x="20" y="1170" width="30" height="30" as="geometry" />
        </mxCell>
        <mxCell id="xtmQm8H3WPaShv8IGNw_-219" value="" style="shape=image;verticalLabelPosition=bottom;labelBackgroundColor=default;verticalAlign=top;aspect=fixed;imageAspect=0;image=data:image/png,/9j/4AAQSkZJRgABAQAAAQABAAD/2wCEAAkGBwgHBgkIBwgKCgkLDRYPDQwMDRsUFRAWIB0iIiAdHx8kKDQsJCYxJx8fLT0tMTU3Ojo6Iys/RD84QzQ5OjcBCgoKDQwNGg8PGjclHyU3Nzc3Nzc3Nzc3Nzc3Nzc3Nzc3Nzc3Nzc3Nzc3Nzc3Nzc3Nzc3Nzc3Nzc3Nzc3Nzc3N//AABEIAJQAlQMBEQACEQEDEQH/xAAbAAACAgMBAAAAAAAAAAAAAAAAAgEFAwYHBP/EAEYQAAEDAgEGCgUKAgsAAAAAAAEAAgMEEQUGEiExQVEHExRTYXGBkaHRIjZSscEVIzI0QmJyg5OzdLIWJDNEVWOCkqLC8f/EABoBAQACAwEAAAAAAAAAAAAAAAABBAIDBQb/xAA1EQACAQMABQoFBAMBAAAAAAAAAQIDBBEFEiExURMUFSIyM0FScaFhgbHB0TSR4fAjQlMk/9oADAMBAAIRAxEAPwDuKAEAIAQAgKLKDKWjwb0HgzVJFxCw6hvJ2LdSoSqehoq3EafqaZXZbYvUEinfHSs3RsDj3nyV6NpTW/aUpXVR7thT1GM4nPfjcQqnfmke5bVSgtyNTqze9nhkmlkPzksjz95xKzwluMMsxZxb9EkHoQGRlfWRf2VXUM/DK4fFY6sXvRlrS4nup8qccpSDFiUxA+zJZ4/5ArB0KT8DZGvUW5m2YBwgxzSNgxqNsJOgVEd8z/UNnX7lUq2mNsC1SusvEze2uDmgtIIOohUy4MgBACAEAIAQAgBACAxVUzaemlnf9GJheeoC6lLLSIk8LJxWrqZKupkqZnF0sri53Wdi7UYqKwjiNuTyzc8HyFjlpGS4pNK2WRocI47DMvvO0qlUu2niCL1O0TWZMoMqsnZMCljcyQy00psx5FiDuPYt9Cuqq+JXr0HSfwNfLlvNIhKAQoSKUApKgHReDDG5J45cIqH34lufTk68y+lvYbW6+hULumk1NF+1qNpxZ0BUy4CAEAIAQAgBACAEBXZRG2AYl/CyfylbKPeR9TXW7uXocca8seHAXLTe29dhrKOOnh5Oz4ViNPidHHVUrw5rhpA1tO0HcVxZwcJYZ2YTU46yNP4TMTp3wU+HRPa+YScbJbTmAAgDrN/BW7ODTcmVLyaaUUc/JV8oiEoBChIpKgCkoSbDwdvLcr6INP0myA9IzHH4BaLnumb7bvUdmXLOmCAEAIAQAgBACAEBW5Ser+Jfwsn8pWyj3kfU11u7l6HGXLsnGBkskRJikfGToOY4i/csWk95OWjETpJ361IEJQCkoSKSgEJUAQoSbDweeuFB+Z+25aLnumb7fvUdpXLOmCAEAIAQAgIJsgK+sx3CqJ+ZU10LHjW0OuR2BbI0py3I1yrQjsbPH/S/Ah/fh+m7yWfN6vAw5zS4mOoyqydqIXwzVjHxyNLXtMbrOB1jUit6qeUiHcUmsNlTyjITm6b9J/kturcmvNsRyjIPbHTfpP8AJMXIzbEcoyC5um/Rf5Ji5GbYU1OQHN036L/JNW5Gbb4GmZUPwx+LvOCBgo8xtgxpAvbToKt0ddQ6+8qVXDW6m4piVsNYpKEiEoDYeDv1yw/8z9tyr3PdM323eo7M+oijdmvdYrh1LujTlqzlhnWVOUtqF5XB7fgsOkLbzfUnkp8BmTxPNmvF9y2U7qjUeIy2kOElvRlVgwBAJLI2KN0j3BrGi7iTYAJv2IhvG05plLlXUYlI+CikdDR6gRodJ0ncOhdOjbKCzLecytcubxHcawdCtFYUlAKSgEJUEiElAIShJBKAQuUAQlCRCUApKA2Lg69caDqk/bcq9z3TN9t3qOs1v1g9QXidI/qH8jv0ewYFRNpBWIPbRVJLuKedP2Su1o68cnyU/kVq1PHWR7l2SuafwiYi6nw+GgjcQ6pJL7ew22jtJHcVbs4ZlrPwKd5NqOqvE52Sukc4UlAISgEKgkQlAKShIpKAQqAIShIpKAQlAKoBsnB1640HVJ+25aLnumb7bvUdYrj/AFg9QXiNJP8A9D+R36PYMF1z8m4UlRkkgOLXAjWDcJGbjJSW9BrKwXcTw9jXDURdexpT5SCmvFZOa1h4OY5fVXHZQyRAm1PG1naRnf8AYLsWkcU88TlXUs1McDWiVZKwhQCFQSKSgEKEilAKSoAhKEiFAIUAqAFAN64KMMfNis+JOaRFTx8W0kaC92u3UB4hVLueIqJbtYZk5cDfqiTPme4arrwl3V5StKS3HepxxFIwkqsbBSViSQsQW2GPz6UD2TZeo0XU17ZLhsKNxHEzkuUkvG49XvO2dw7tHwXqaKxTRwazzUkVhK2moQlQSISgFJQCEoSKTpttOxAQWv8AZd3FY5ROGKWv9h3cUyidoha/2HdynK4jD4CZj/Yd3KMriMPgSIpHGwjeT0NKZXEYfA2HAMi8WxeRplgfR0t/SlnYWm33WnSfctNS4hD4s2woTn8EdTpqWlwXDo8Pw9uaxgtc6ydpO8leY0nf4Tgn1n7HZt6CXoYivNtl5CkqCRSsTIgqMgscIfZkrdgIXf0LPqTj8f79CncramcmxwFuM14Oyof7yvbUuwvQ85V7b9SvJWRgKSgEJQCnWhJvGTGQvKImVuNl0cZ9JtM05pI++dnV/wCKjXu1Hs/uXKNrrbZm6UtPheHM4uhooI2/5cYF+knauFW0tTzvcjpQtsLYsHo5XFzPgFo6Xj5WZ83DlcXNe5Ol4+Vjm7DlcXM+ATpeHlY5uyOWQ8ye4J0vDysnm74kctjBuIbHsUPTEfKyebviYpa2RwzWgNG8a1SraUq1NkOqvc2RoRW1nkJvrXNb8TekQSsMmRF1DZJF1jkkUqAe7Cifnez4rtaH/wB/l9ytc+BzTLGIwZTYgwjQXh46c5oPxXubd5pI81XWKrKQlbjUISgFJQk2vg7wVmJYm+sqGB0FJYtBGh0mzu19yq3VTUjhb2WbanrSy9yOiVUxkeWg+gD3rxd9dOrLUj2V7ndpU8LJgXPNwIAQEFQBSsSSCoySLdYkkEqCRSsWSQVGSRSsckkErHJJa4K35qRxGt1l6TQkP8U5cX/fqUbt9ZI0bhOpeKxOlqwDmzxFhPS0+TvBess5Zi0cO8jiSZpZKuFQQlCRSUB1Tg4jbFko+Vv0pJZHE9I0fBcfSM2lJ8F9jp2a6q9S2C8SdkEBCAglY5JIJUZJFJWOSRSVGQRdY5MiCVGQQSsckikqGyRSViSLdQSbBh8RhpI2nWRc9q9po6lyVtGL37/32nKrS1qjZV5ZYO7F8FkjhF6mI8ZD0kax2i47l06FTk558CpXp8pDBxx24gg7Qdi6xyhCUApKgHWODz1OZ+OX3lcXSnZn6fY6tn2V6lovGnXIuscgglQSKSsSRSVDZJBKxySQSoySQSsckikqMkikrFskUlY5JIKjJJnoYDUVLW29Fpu7qVywtncV1HwW1+n8mmtU1IZNiAsvbHKJQGnZVZEQ4pM6sw57aeqdpe1w9CQ7+g9KtUblw2S2oq1rZT2x2M0moyNyhheW/Jz5PvRyMIPjdW1cUmt5UdvUT3GA5JZQ/wCEz/7meanl6fmI5Cp5To+RdDVYdksKeugdDMHSEsda4BOjUuRpKSlCbXD7HRtItRSkj13XjcnWIJWOTLApKjIIJWOSR2QSyNzmRlwO0LfC1r1Y60I5Ri6kYvDZPJKjmneCy5hdeR+xHLU+JBpKnmXLHmF15H7E8tT4imkqeZd4KOj7v/m/YnlqfEg0dVzLu8KOj7vyP2J5enxI5FVcw7vCjo678j9hy9PiQaKq5h3go6Ou/wDm/b8k8vT4jx4bUvNnNDBvcVtpaIupvrR1fX8IxldU0tm0uKSmZTR5rNJ2uO1eltLSFtDVj82UKlR1HlmdWzWCAEAIAQGKp+ryfhKr3XcT9GZQ7SKa68lk6JBKxySKSsckkEqMkmaGslhjDGhlhvCu2+katCmoRSx/fiap0IzeWOcTn9mPuPmt3TNxwXv+THmsOJHypP7MfcfNY9NXHBfs/wAk81hxZHyrP7MfcfNR01ccF+z/ACOaQ4szUeITT1TI3hgBvqHQrVlpStXrxpySw8/T1Nda3jCDki1XoCmCAEAIAQAgBACAEBiqvq8n4Sq93+nn6Myh2kUl1486RCgkhY5JFJUEkEqCRCQsWyT2wYZJLHnvfmX1C1yuvb6HqVYKc3q58N5VncqLwlk81XTSUzgH6WnU4bVQvLOpaySltT3M30qsai2GTC/r8fb7ituiv1kPn9GY3PdM2BeyOWCAEAIAQAgBACAEAkzc+J7RtBC1Voa9OUV4pkxeGmUB0Eg69q8W9jwzqIgrAyIuoApKxbJwKSoJwLexBKjOHklo2eORr4w5pu0jRZe9p1IVIKcdzONJNPDK7Gnt4qNn2s6/YuLpypHk4w8c5LVonls8uEMLqzO2MFyqGhqblc63BfXYb7qWKeC+XrTmggBACAEAIAQAgBACArq+iLiZYRp2t3riaR0c5vlaW/xRao1sdWRVuuDY6OgrzssptNbUXltFJWOQLdY5MiCoySQoBkinliFo5HNG4Fb6V1Wo7KcmjCVOEt6JiimqpfQBe463E6llRoVrup1Vl+L/ACyJThSW0vaKlbTRBo0k6XO3r11laRtaeqtr8WcyrUdSWWelXDWCAEAIAQAgBACAEAIAQGGanimHzjAenaq1a1o11/kjkzjUlDcyprqSOnF4y7XqJXm9I2VO3WtBv5l2lWlLeeE7lyWWkQhJI0kdJUwWs0n4sxk8It6bD6fNz3BzzucdC9Rb6JtlHWkm/X+MFGpcT3IsI2tYM1oAA2BdeEIwWrFYRVbbeWOsyAQAgBACAEB//9k=;" vertex="1" parent="1">
          <mxGeometry x="540" y="1390" width="20.13" height="20" as="geometry" />
        </mxCell>
        <mxCell id="xtmQm8H3WPaShv8IGNw_-221" value="&lt;div&gt;NGINX: Ingress Nginx Controller traffic routing to services within EKS&amp;nbsp;&lt;span style=&quot;background-color: transparent; color: light-dark(rgb(0, 0, 0), rgb(255, 255, 255));&quot;&gt;messaging.&lt;/span&gt;&lt;/div&gt;&lt;div&gt;&lt;span style=&quot;background-color: transparent; color: light-dark(rgb(0, 0, 0), rgb(255, 255, 255));&quot;&gt;&lt;br&gt;&lt;/span&gt;&lt;/div&gt;&lt;div&gt;KEYCLOAK: Identity and access management solution&lt;/div&gt;&lt;div&gt;&lt;br&gt;&lt;/div&gt;&lt;div&gt;OAUTH2-PROXY: Authentication proxy.&lt;/div&gt;&lt;div&gt;&lt;br&gt;&lt;/div&gt;&lt;div&gt;&lt;br&gt;&lt;/div&gt;&lt;div&gt;NATS: Messaging system for enabling plugins.&lt;/div&gt;&lt;div&gt;&lt;br&gt;&lt;/div&gt;&lt;div&gt;NATS AUTh CALLOUT: Handle the authorization for the NATS&amp;nbsp;&lt;/div&gt;&lt;div&gt;&lt;br&gt;&lt;/div&gt;&lt;div&gt;&lt;br&gt;&lt;/div&gt;&lt;div&gt;KIBANA: Analytics and visualization platform&lt;/div&gt;&lt;div&gt;&lt;br&gt;&lt;/div&gt;&lt;div&gt;&lt;br&gt;&lt;/div&gt;&lt;div&gt;ELASTICSEARCH: Platform index storage&lt;/div&gt;&lt;div&gt;&lt;br&gt;&lt;/div&gt;&lt;div&gt;FLUENTBIT: Enables logs and metrics collection.&lt;/div&gt;&lt;div&gt;&lt;br&gt;&lt;/div&gt;&lt;div&gt;&lt;br&gt;&lt;/div&gt;&lt;div&gt;AI/RUN UI: User interface for interacting with the platform.&lt;/div&gt;&lt;div&gt;&lt;br&gt;&lt;/div&gt;&lt;div&gt;&lt;br&gt;&lt;/div&gt;&lt;div&gt;AI/RUN API:&amp;nbsp; Business logic, data processing, and API operations.&lt;/div&gt;&lt;div&gt;&lt;br&gt;&lt;/div&gt;&lt;div&gt;&lt;br&gt;&lt;/div&gt;&lt;div&gt;MERMAID: Mermaid code for workflow visualization&lt;/div&gt;&lt;div&gt;&lt;br&gt;&lt;/div&gt;&lt;div&gt;MCP CONNECT: Enables cloud-based AI services to communicate with MCP servers.&lt;/div&gt;" style="text;html=1;align=left;verticalAlign=top;whiteSpace=wrap;rounded=0;fontFamily=Verdana;fontSize=10;" vertex="1" parent="1">
          <mxGeometry x="580" y="1080" width="520" height="360" as="geometry" />
        </mxCell>
      </root>
    </mxGraphModel>
  </diagram>
</mxfile>
